<svg xmlns="http://www.w3.org/2000/svg" viewBox="0 0 830.05 830.05"><defs><style>.cls-1{fill:#fff;}.cls-2{fill:none;stroke:#fff;stroke-miterlimit:10;stroke-width:20px;}</style></defs><g id="Layer_2" data-name="Layer 2"><g id="Layer_1-2" data-name="Layer 1"><path class="cls-1" d="M453,484.42c.38,16.24-8.91,30.39-6.85,46.83.1,6.34-.37,12.46-5.46,16.59-10.41,7.48-1.92,27.44-17.05,28.07-5.28-.2-7.12,4.81-10.76,7.11-10.75,2-10.34-16.42-21.52-.14-4.8,1.3-9.48-1.94-14.57-1.44-3-2.09-3.44-6.46-7-8.09-52.12-11.6-5.7-71.53-8-104.17,9.79-10.24,3.35-26.25,5.45-39,1-11,6.32-20.11,9.59-30.25A80.21,80.21,0,0,0,392,384.6c5.83-4,9.86-7.35,8.82-15.19,5.57-5.92,3.16-13.73,4.14-20.52,5.45-18.71,16.65-35.29,14.06-55.64-.23-9.55,4.95-18,3-27.91-.62-6.72,1.82-9.82,8.65-9.14,46.62-18,47.59,46.8,14,57.47,16.89,2.74,12.16,28.06,8.22,40.55l-.81,23.54c-7.46,7.42.65,13.49.67,21.65C473.16,422.8,464.34,459.5,453,484.42Z"/><path class="cls-1" d="M708.85,506.1c1.56,17.1-38.88,7.5-50.43,8.58-10.47-3.9-6.84-16.48-22.07-10.53-14.64-19.18-39.07-37.84-25.25-65.34,6.7-11.23,23.85-8.74,29.34-19.94-2-7.54-11.5-3.6-16.78-6.11-14.87-16.91-18.07-42.41-14.92-64.19-2-15.61,31.45-25.89,33.42-6.42.1,4.77,1.83,9.13,2.82,14.87,5.11-8.4,3.7-17.77,11.12-24.78-.06-4.47,1.91-6.88,6.6-6.54,6.92-7.43,13.79-9.37,23.9-8.11,3.08,6.68,10.61,4.1,15.06,8.67,5.79,7.65,17.7,9.9,15.59,21.23,12.6,27.58-7.47,77-38.82,45.48-1.9-8,4.08-21.22-4.56-25.61-2.68,5.1-1.36,10.6-1.1,15.81,3.67,24.37-24.59,27.71-10.89,30.33,19.42,4.17,40.6-3.35,56.12,12.37,11.8,8.89,7.41,35.4-9.46,34.69C666.55,473.92,724.3,483.23,708.85,506.1Z"/><path class="cls-1" d="M652.76,510.23c12.61,8.85,21.1,24.88,34.11,32.44,14.06,19.92-15.24,42.76-30.81,24.15-2.42-3-4.77-7.62-9.29-4.78-4.87,3.06-1.39,7,.92,10,2.75,3.61,1.62,8.45,4.28,12,5.84,17.24-8.9,31.43-25.86,27.79-2.83-9.15-26.37-5.46-13.63-2.24,40.85,24.36-4,60.46-38.49,32.85-7.46-11.61-25.3-9.19-30-24.41-1.41-16.16-21.5-13.66-9-45,26.32-30.62,67.11,21.95,66.52-14,.46-4.34-3.7-5.23-5.75-7.68-2.63-1.59-3.77-6.71-6.33-8.85-5.7-14.76-7.07-44.54,14.86-43.58C622.1,488.32,635,509.89,652.76,510.23Z"/><path class="cls-1" d="M226.78,484.7c1.17,9.9,7.09,18.49.57,28.1.34,6.2.67,15-7.64,12.31-7.32-.38-13.67,2.08-19.74,5.71-4.09,6.81-11.14,5.64-17.44,6.49-8.19,2.29-16.19,5.71-24.76,5.8-20.16,12.58-45.74-15-28.71-33.35,3.18-5.69,11.16-5.23,15.79-9.82,4.82-3,14.93,4.84,15.26-7.69-.46-17.21-33.66-3.2-45.59-8.23-4.35-4.69-2-12-8.63-15.14-2.76-19.13,11.14-33,29.94-30.61,7.52-5.3,18.15,1,24.19-7.93l14.61-.7c9.53-5.15,44.61-4.56,39.28,11.19,12.09,11.53-4.59,19.55-10.89,27.94-1.55,4.8-12.77.67-11.68,8.24C194.19,485.78,217.52,478,226.78,484.7Z"/><path class="cls-1" d="M272.15,551.66c6.25,5.31,7.55,12.58,9.49,20.23,18.38,31-3.6,53.27-37.53,45.46-15.88-5.72-15.88,14.09-17.27,24.87-15.05,13.23-30.87,8.26-33.19-8.86-4.22-11.86,10.64-24.17,4.62-32.28C188.37,596,182,615,166.39,603.37c-25.07-28,12.58-44.26,30.38-60.49,5.37-6.27,16.84-6.1,21.18-15C239,515.74,259,536.42,272.15,551.66Z"/><path class="cls-1" d="M263.47,295.21c-12.59.66-24.23,8-36.57.39-6.41.87-9.74-1.52-8.83-8.37-6.26-8.11-13.39-15.91-21.45-22-15-13.11-34.91-26.69-19.4-48.81,3.86-5.69,9.47-10.74,11-18,13.46-9.33,30.12-22.66,49.12-17.28,19.43,4.43,2.19,37.5,24.42,35.5,11.26.07,29.65,5.28,29.1,18.94-.86,9.71,2.47,21.08-2.85,29.7-2.51,1.13-6.66,4-6.2,8.11C280,282.7,269.16,287.93,263.47,295.21Z"/><path class="cls-1" d="M504.69,247.76c-.07-8.52-7.46-14.27-5.6-23.5.05-4.87-.59-10.26-7.47-4.57-50.41,35.57-32.25-40.37-17.64-64.91,7-7.58,5.32-26.67,17.38-26.44,36.69-13.29,82,20.92,76.94,59.56-1.68,11.31-12.28,23.3-23.87,25.74-6.14.07-6.92,4-6.37,8.91C542.43,248.64,529.17,260.88,504.69,247.76Z"/><path class="cls-1" d="M218.73,384.51c2.89,37.33-54.3,65.16-54.86,12,4.83-9.28,10.26-15.32,2.51-24.1-15.61,5.58,7.34,42.69-19,49.56-15.19,6.13-32.42-6.29-35.83-20.81C73,310.91,229.74,290.51,218.73,384.51Z"/><path class="cls-1" d="M288,210.85c-1.85-23.33-29-50.93-9.05-73.78,18-6.4,52.27-24.25,69.66-15.29,18,1.85,6.65,32-8.51,31.05-5.05,3.73-11.44,5.28-16,10.26,12.06-7.22,41.27-10.31,37.16,10.93-1.71,5.31-10.86,5.87-9.82,11.66,4.76,12.84,30.68,2.16,19.06,25.49,1.31,9.23-7,14.68-14.37,17.49-9.5,2.7-12.5,8.06-24.42,6.58-11.25,11.16-25.49,4.22-37.79.23C288.09,228.1,294.68,217.6,288,210.85Z"/><path class="cls-1" d="M404.67,716c-6.84,1.92-15.28,2.15-19.46,8.47l-23.62.16c-5.21-8.67-15.23-3-21.91-8.28-39.39-22.62-17.07-49.17,20.61-36.47,10.93,5.4,7.64-7.11-3.7-10.37-5.48-5.44-17.84-2.42-19.3-10.74-1.06-9.67-12.14-11.24-9.08-23.08,8.3-39,92.24-36.15,89.91,6.9-5.39,10.16-18.1,11.87-30.95,4.17,2.12,7.35,2,7.61,8.28,9.93C422.21,666.86,428.89,697.88,404.67,716Z"/><path class="cls-1" d="M504.85,642.87c-2.1,9.4,9.68,12.16,8.73,21.16,17,21,11.16,56-21.6,48.67-19.87-3.49-11.42-36.31-24-48.81-1.94-17.62-37.57,11.32-48.48-21.3-2.9-17.21,16.53-32.3,32.68-30.82,18.47-14.49,43.82-21.34,67.69-16.2,26.06,3.24,16.49,28.38-.16,38.12C516.5,638,506.9,635.47,504.85,642.87Z"/><path class="cls-1" d="M604.42,270c-10.49,1.09-16.68,11.42-23.86,17-18.76,11.35-38.24-9.49-33.31-28.83-.32-6.12,3.72-9.34,8-12.76,23.23-19.71,13.84-28.27,15.71-55.44-1.8-18.59,30.41-29.64,39.78-15.69,21.55,14.53-7.19,37.72,9.19,51.52l36.18.66c11.41,11.25,12.62,29.33,2.74,41.22C640.76,270,622.36,265.92,604.42,270Z"/><path class="cls-1" d="M437.47,152.16C448.41,151,452,165.89,445.91,174c-4.29,7.37-35.66-2.55-23.34,10,8.64,5.29,23.1.37,25.75,13.86,3.64,30-32.05,22.22-51.19,22.25-34.64-3.11-15.69-45.51-22.9-68-.35-10.88-4.71-38.94,10.86-39,19.56-10,44.11-10.38,63.25.1,6.6.25,3.23,5.79,4.65,8.78,7.53,10-4.58,23-15.49,22.17C417.37,151.29,418.07,144.84,437.47,152.16Z"/><path class="cls-1" d="M272.14,633.66c12-13.51,18.27-35.58,35.6-44.66,14.77-6.86,27.89,13.5,26.25,27.73.58,11.48-13.44,16.5-13.46,27.11-.19,6.7-9.59,7.16-8.53,14.93C294.14,727.1,227.15,683.2,272.14,633.66Z"/><path class="cls-1" d="M270.25,438.86c-20.44-1.61,5.35-16.35,8.95-23.92,4.37-2.95,8.84-8.85,14.34-7.92,17.27,19,26.3,10.74,27.31,23.12a11.5,11.5,0,0,1-2.66,8.58c-8.84,5.73-8,20.32-18.71,24-5,1.06-10-.16-13.39-3.74C273.37,458.1,270.25,449.72,270.25,438.86Z"/><path class="cls-1" d="M565.62,430.25c-7.11,33.28-1,16.89-22,30.11-11.85,7.4-10.09-14.63-21.68-15.48-10.41-3.36,5.87-10.38,5.84-16.13,1.3-10.82,17.25-20.37,24.47-11C555.06,424,569.13,422.81,565.62,430.25Z"/><path class="cls-1" d="M534.67,339c-.68,24.72,10.53,20.48-15,30.16a3.91,3.91,0,0,1-6.17-.23c1-7.42-5-11.07-9.93-15.26-.88-2-.61-4.94,1.09-6C512.35,337.77,522.34,330.71,534.67,339Z"/><path class="cls-1" d="M634.9,334.4c-36.38-3.82-25.55,45.67-15.6,65.56-14.26,6.12-14.69-30.85-15.37-41.1.23-14.11,4.59-30.19,21.59-29.24C629.21,329.56,633.75,329,634.9,334.4Z"/><path class="cls-1" d="M331.35,325.67c-1.22-10.13.81-16.87,8.2-23.81-.55-7.2,7-8.44,6.48-.54.78,6.23.78,12,7,16.81,6.6,5.74-3,6.54-6.4,10.09C344.12,338.73,335.7,329.92,331.35,325.67Z"/><path class="cls-1" d="M430.83,573.05c-4.82-22.66,12.36-24.55,13-39.43,1.91-9.92-4.22-31.45,8.19-34.44,1.41,11.09-7.26,20.93-4.8,32.3C447.83,545.16,445.63,571,430.83,573.05Z"/><path class="cls-1" d="M369.92,429.82c-3,10.64,7.88,39.71-8.13,39.36C364.63,460.28,354.1,422.26,369.92,429.82Z"/><path class="cls-1" d="M288,399.84c1.43-6.64-5.07-23,6.1-21.77C306.17,389.16,306.62,428.13,288,399.84Z"/><path class="cls-1" d="M513.13,506.06c4.87,5.95-6.2,10.07-8.75,14.75-6.54,7.22-8.35-4.89-12.72-8.48-4.9-4.33,3.1-9.8,6.14-13.18C503.44,495.68,508.59,503.14,513.13,506.06Z"/><path class="cls-1" d="M287.72,460.35c30.25-8.88-.88,47.61.09,23.22C287.69,475.83,287.74,468.09,287.72,460.35Z"/><path class="cls-1" d="M543.33,414.43c-16.82,5.61-10.17,26.1-23.32,24.3-1.44-6.65,6.64-11.71,2.77-19.32C524.3,413.61,537.8,414.85,543.33,414.43Z"/><path class="cls-1" d="M565,425.81c-10.19,4.16-33.67-22.87-13.12-15.68,6.32,3,5.65,12.3,13.34,13.46A1.3,1.3,0,0,1,565,425.81Z"/><path class="cls-1" d="M187.9,603.3c-1.33-9.45,16.17-8.61,15.24-.6-.09,4.51,1.24,9.86-6.23,9.5C197.78,605.31,194.85,602.27,187.9,603.3Z"/><path class="cls-1" d="M305.11,453.89c1.91-2.45,4.94-4.18,4.37-8.11-1-7,3.49-7.56,8.71-7.06C319.21,448,317.34,462.78,305.11,453.89Z"/><path class="cls-1" d="M309.21,414.93c3.59,16.45-12.09,1.05-15-6.63C303,406,302.1,413.56,309.21,414.93Z"/><path class="cls-1" d="M452.11,393.28c-5.76.35-6.17-3.31-6.15-7.75C449.73,367.43,453.89,384,452.11,393.28Z"/><path class="cls-1" d="M346.62,326.06c4,1.44,4.66,36.74-7.12,26.13C345.72,344.8,341.72,334,346.62,326.06Z"/><path class="cls-1" d="M300.5,685.56c2.38-6-.63-14.69,8.65-17.23C311.1,676.5,305.92,681.09,300.5,685.56Z"/><path class="cls-1" d="M339.55,301.86c1.27,6.56-1.19,9.83-8.1,9.16C329.83,304.15,332.65,301.21,339.55,301.86Z"/><path class="cls-1" d="M461.06,310.52c-11.28,3.88-11.59-10.23-.1-8.57C461,304.81,461,307.66,461.06,310.52Z"/><path class="cls-1" d="M535.1,460.18l8.54.18c-.61,3.14,1.74,8.07-3.91,8.35C533.11,469,535.44,463.71,535.1,460.18Z"/><path class="cls-1" d="M504.37,520.81q-1.11-9.78,8.66-8.63C514.45,519.37,511.54,522.22,504.37,520.81Z"/><path class="cls-1" d="M535.12,612.42c-.06-3-.11-6-.17-9C546.56,601.42,546.61,615.68,535.12,612.42Z"/><path class="cls-1" d="M422.4,573.23c11.69-3.53,11.35,11.2-.38,8.28C419.77,578.64,419.92,575.88,422.4,573.23Z"/><path class="cls-1" d="M309.64,657.93c-1.3-6.7,1.37-9.79,8.24-9.06C318.81,654.75,317,663.12,309.64,657.93Z"/><path class="cls-1" d="M504.85,362.46c0-2.85-.05-5.69-.07-8.54C516.15,352.31,516.23,366.56,504.85,362.46Z"/><path class="cls-1" d="M504.64,339c11.61-3.44,11.74,10.63,0,8.65Z"/><path class="cls-1" d="M263.65,686.1c6.72-1.46,9.73,1.28,9.15,8.09C265.84,695.92,263.09,692.89,263.65,686.1Z"/><path class="cls-1" d="M422.4,573.23c.83,6.92-1.64,10.79-8.88,8.1C415.85,577.94,415.54,571.66,422.4,573.23Z"/><path class="cls-1" d="M264.15,430.28c2.37,6.45-4.11,13.1-6.53,4.12C257.52,429.69,260.91,430,264.15,430.28Z"/><path class="cls-1" d="M318.43,429.51c5.69-.74,10.85,3.62,6,8.85C316.59,440.46,318.28,435.55,318.43,429.51Z"/><path class="cls-1" d="M324.42,438.36c-.36-6.16-.61-9.55,6.58-8.37C331.3,434.74,331.9,439.72,324.42,438.36Z"/><path class="cls-1" d="M339.54,332.55c-6.21.18-9.61.32-8.19-6.88C335.8,325.92,340.87,325.41,339.54,332.55Z"/><path class="cls-1" d="M369.77,573.35c7.07-1.4,7,3.36,7,8.09C369.22,583.25,369.93,577.92,369.77,573.35Z"/><path class="cls-1" d="M491.66,512.33c7.29-.44,6.64,4.4,6.1,9.18C490.77,521.74,491.4,516.91,491.66,512.33Z"/><path class="cls-1" d="M287.62,694.25c.09-4.64-.09-9.51,7-8.1C294.51,690.77,295,695.88,287.62,694.25Z"/><path class="cls-1" d="M491.31,505.69q.06,3.4.1,6.81c-2.77-.71-7.47,1.55-7.86-2.8C483,504,488.43,506.61,491.31,505.69Z"/><path class="cls-1" d="M513.13,506.06c-4.54-.1-9.65.53-8.45-6.75C509.22,499.41,514.22,498.92,513.13,506.06Z"/><path class="cls-1" d="M369.92,429.82l-8.15.4C360,420.62,372.64,421.12,369.92,429.82Z"/><path class="cls-1" d="M565,425.81c-.64-3.53,9.24-4,8.42,1.36C572.72,432.36,563.58,431.13,565,425.81Z"/><path class="cls-1" d="M288,399.84c7.29-1,5.9,4.35,6.21,8.46C286.9,410,287.93,405.72,288,399.84Z"/><path class="cls-1" d="M504.44,499.47c-8.2,2.09-8.91-7.85-2.91-8.35C506.65,491.39,504,496.44,504.44,499.47Z"/><path class="cls-1" d="M415.45,499.21c-6.66,21-44.23,16.21-38.84-7.92,1.25-6,12.06-19.77,16.65-13.4-.13,8-12,14.4-4.6,22.45,4.51,5.17,11.11,3.26,16.91.8C408.6,499.14,411.46,496.21,415.45,499.21Z"/><path class="cls-1" d="M415.45,499.21c-21.77,10.19-.22-10.43-23.65-21.57C402.8,469.42,418.25,483.56,415.45,499.21Z"/><path class="cls-1" d="M437.44,460.15c7.79,9.66-9.12,15-15.37,8.93C415.61,459.76,431,453.91,437.44,460.15Z"/><path class="cls-1" d="M407.11,581.23l-15.34.26c-.45-5.48,1-8.57,7.57-8.58C405.74,572.9,407.67,575.52,407.11,581.23Z"/><path class="cls-1" d="M422.34,468.9l15.11.23c.77,6.06-2.74,6.75-7.65,6.63S421.38,475,422.34,468.9Z"/><path class="cls-1" d="M452.72,310.87q-.18,3.21-.38,6.43c-4.73-1.46-13.87,2.72-13.68-3C438.92,306.92,447.83,312.25,452.72,310.87Z"/><path class="cls-1" d="M437.44,460.15l-15.14.32c-.76-6.35,3.34-6.53,8-6.72S438,454.78,437.44,460.15Z"/><path class="cls-1" d="M422.53,423.85c-3.23-10.73,6.76-12.5,8.38-4.89C431.26,425.08,425.86,423.07,422.53,423.85Z"/><path class="cls-1" d="M415.48,408.48c-9.72,2.74-12.09-7.36-4.13-8.56C417.51,399.9,415.38,405,415.48,408.48Z"/><path class="cls-1" d="M422.31,460.44l-.24,8.65C413.67,470.64,414.09,458.39,422.31,460.44Z"/><path class="cls-1" d="M407.42,442.45c-.58-4.72,7.42-5.27,7.87-.84C415.93,445.93,408,446.53,407.42,442.45Z"/><path class="cls-1" d="M391.81,449.2c.18,6.25-7.29,5-6.32-.22C385.29,443.92,392.57,445.2,391.81,449.2Z"/><path class="cls-1" d="M663,460.41c3.54-.08,8.35-2.1,8.47,4.09C671,474.41,655.78,467.14,663,460.41Z"/><path class="cls-1" d="M663,460.41c1.94,6-2.87,13.42-6.36,4.86C656.17,460.46,659.5,460.26,663,460.41Z"/><path class="cls-1" d="M242,581.56c-3.61,0-8.64,2.17-8.45-4.41C234.33,566.8,249.41,574.87,242,581.56Z"/><path class="cls-1" d="M242,581.56c-2.08-7.41,4.92-13.45,6.47-3.52C248.1,582.33,244.9,581.69,242,581.56Z"/><path class="cls-1" d="M210.88,226.4c-4.08-.34-8.47-.81-7-3.31,2.44-3.7,13.51-18.17,14.35-7C218.56,222.45,213.88,224.34,210.88,226.4Z"/><path class="cls-1" d="M253,256.43c-2.2,0-4.68-.22-5.17-2.72C248.31,244.61,264.75,254.39,253,256.43Z"/><path class="cls-1" d="M528.13,174.47c.74,9.66-7.58,6.22-11.63,7C505.45,177.65,521,165.42,528.13,174.47Z"/><path class="cls-1" d="M528.13,174.47l-14.84-.33c-.69-6.49,3.44-6.63,8.21-6.64C526.5,167.48,529.11,169.11,528.13,174.47Z"/><path class="cls-1" d="M324.58,633.8c.53,4.82.48,9.23-6.27,9C318,638.08,317.36,633.2,324.58,633.8Z"/><path class="cls-1" d="M346.62,326.06c-1.83,8.09,3.84,22.3-6.46,25.48C339.84,340.48,338.12,332.9,346.62,326.06Z"/><circle class="cls-2" cx="415.02" cy="415.02" r="405.02"/></g></g></svg>