<svg xmlns="http://www.w3.org/2000/svg" viewBox="0 0 193.41 119.73"><defs><style>.cls-1{fill:none;}.cls-2{fill:#f9a13a;}.cls-3{fill:#ffd520;}.cls-4{fill:#00a79c;}</style></defs><g id="Layer_2" data-name="Layer 2"><g id="Layer_1-2" data-name="Layer 1"><path class="cls-1" d="M14.45,54.57C10.32,54.57,10,59,10,59V73.73C25.06,63.71,18.57,54.57,14.45,54.57Z"/><path class="cls-2" d="M78.41,31.68c.17-.1.83-.45,3.16-1.56,4.1-2-3.43-7.11-8.51-7.36s-4.66,1.48-4.66,1.48C68,26.4,78,31.47,78.41,31.68Z"/><path class="cls-2" d="M78.45,31.71a.08.08,0,0,1,0,0C78.28,31.77,78.45,31.71,78.45,31.71Z"/><path class="cls-2" d="M139.15,5.19c0-6-2.7-5.15-2.7-5.15l-2.82,5.33s-3.37,7.35-.3,9.13S139.15,11.19,139.15,5.19Z"/><path class="cls-3" d="M130.82,58.48c0,3.69,2,1.54,2,1.54,6.12-4.93,18.06-5.38,28.89-2.79s17.69,3.39,17.69,1-12.75-8.62-30.66-8.62S130.82,58.48,130.82,58.48Z"/><path class="cls-3" d="M112.49,63.81s3.59.36,3.59-1-10.16-3-18.66-15.77c-4.2-6.3-4-11-4-11s.17-5.51,8.41,1.58c8.49,7.31,8.76,7.72,8.76,7.72a2.84,2.84,0,0,0,2.8.87c1.57-.53,1.4-4,1.4-4s-.61-17.25,5.78-17.25,4.91,12.69,4.82,14.8S122.56,55.5,118.18,62c0,0-.82,1.71-.08,2.46s4.82-2.19,5.86-3.76,8.24-13,9-30.49c0,0,.79-14.89-11-14.89,0,0-9.38-.7-12.18,17.52,0,0-5.52-6.39-13.75-6.39S85.6,34.3,85.6,38.68,89.81,60.67,112.49,63.81Z"/><path class="cls-2" d="M102.89,18.67s4.52,2.33,4.59-2.89-2.7-12.49-8.14-11.27a2.94,2.94,0,0,0-1.72,2.4c-.07.42-1.05,1.47,2.2,5.26S102.89,18.67,102.89,18.67Z"/><path class="cls-3" d="M69.12,49.63c-20.27,0-34.71,6.27-34.71,8.62s7.76,1.56,20-1S80.22,55.09,87.14,60c0,0,2.26,2.15,2.26-1.54C89.4,58.48,89.4,49.63,69.12,49.63Z"/><path class="cls-4" d="M160.38,66.22c0-2.88-5.75-5.31-12.39,3.76V65.55s-.44-2.43-2.43-2.43h-3.1s-1.77.22-1.77,1.77c0,0,1.12,35.15,3.32,37.36a7.49,7.49,0,0,0,4.64,1.56V83.46s1.11-11.49,10.62-13.7C159.27,69.76,160.38,69.09,160.38,66.22Z"/><path class="cls-4" d="M138,89.21c-3.31,0-1.77-1.55-4.75,1.44,0,0-3,3.87-7,3.87,0,0-2.87-.66-2.87-6.63l13-6.4c2.68-1.36,1.82-7.32,1.82-7.32,0-2.87-1.33-11.05-11.5-11.05,0,0-11.5,1.11-11.5,24.1s20.35,17.48,24.1,4.65C139.37,91.87,141.36,89.21,138,89.21Zm-10.39-19c4.42,0,4.42,7.3,4.42,7.3l-8.4,3.75S123.23,70.2,127.65,70.2Z"/><path class="cls-4" d="M175,82.28c-4.2-3.9-6.12-7.29-6.12-8.61s-.3-4.88,3.25-4.88,3.68,4.14,3.09,5.61.66,1.55.66,1.55c4.65,0,4.27-5.39,4.27-5.39,0-7.43-7.65-7.88-9.21-7.88s-10.09,1.47-10.09,8,3.31,10.61,6.92,13.49,3.69,6,3.69,6c0,4.42-5.31,4.28-5.31,4.28-4.27,0-5.74-3.47-6.33-4.57s-1.26-1-1.26-1c-1.84,0-1.51,2.84-1.51,2.84,0,6.81,4.76,11.53,11.53,11.53s11.8-5.68,11.8-10S179.17,86.19,175,82.28Z"/><path class="cls-4" d="M36.12,62.24s-9.59.76-8.41,8.18c0,0,1.33,4,4,1.33s9.07-8.63,9.07,1.77c0,0-20.35,2-20.35,20.34s17.91,4.86,19.9-1.77c0,0,1.55,2.87-.22,8.39,0,0-.44,2.21,2.21,2.21s5.53-1.53,5.53-19S44.22,62.24,36.12,62.24Zm-6,31.62c-4.2,0,1.77-14.38,8.62-12.83C38.76,81,34.34,93.86,30.14,93.86Z"/><path class="cls-4" d="M28,62.24C28,47.5,12.38,46.61,12.38,46.61A14.6,14.6,0,0,0,0,53.69v46c0,6.78,8.84,6.48,8.84,6.48,1.77,0,1.18-23,1.18-23C27.42,76.1,28,62.24,28,62.24ZM10,73.73V59s.3-4.43,4.43-4.43S25.06,63.71,10,73.73Z"/><path class="cls-4" d="M101.56,64s-4.64-1.11-11,5.3c0,0-1.77,18.13,0,46.65,0,0,0,3.77,7.29,3.77V100.27s16.58-1.77,16.58-23.44C114.38,76.83,114.82,64,101.56,64ZM98.47,92.09V72.19a3,3,0,0,1,2.87-1.33c2.21,0,4.87,2.43,4.87,8S104.88,89.88,98.47,92.09Z"/><path class="cls-4" d="M78.57,63.56a10.87,10.87,0,0,0-7.74,6.2s-3.65-15.37-12.61,0v-6s.67-2.66-2.65-2.66-4.87.67-4.87,3.76v30.3s.45,8,8,8c0,0-2-30.95,4.87-30.95,0,0,2.65-1.11,2.65,11.94v13s.22,5.52,6.86,5.52V76.39S73,72,77,72c0,0,2.65,0,2.65,5.09V95.63s.88,7.4,7.41,7.4V77.27S86.3,63.56,78.57,63.56Z"/><path class="cls-4" d="M188.49,88.36c.11,0,.41.11.77.18a4.58,4.58,0,0,1,4.15,4.82c0,4.64-1.35,6.86-4.46,6.86s-4-4-4-5.63C184.9,89.61,187.9,88.36,188.49,88.36Zm.64,11c2.12,0,3.49-1.64,3.49-5.78,0-3.35-2.26-4-3.39-4.19-.26,0-.46-.23-.56-.23-.53,0-3,.89-3,5.35C185.71,95.8,186.35,99.38,189.13,99.38Zm-1.63-8.24,1,0a9.19,9.19,0,0,1,1.95.15c.24,0,.6.25.6.54a1.69,1.69,0,0,1-.25.89c-.28.38-1,1.45-1.53,2a3.34,3.34,0,0,0,1.05.41c.53.11,1.16.26,1.5.29a.59.59,0,0,1,.46.55.39.39,0,0,1-.36.42,14.44,14.44,0,0,0-2-.62c-1-.17-1.64-.58-1.66-.76a.6.6,0,0,1,.25-.57,7.12,7.12,0,0,0,1.63-2.34c0-.23-.74-.26-1.14-.26a7.24,7.24,0,0,0-.95,0c0,.18.11,2.5.16,3.29.07,1,.35,2.26.35,2.48a.49.49,0,0,1-.46.45.6.6,0,0,1-.6-.67c0-.55-.18-2.72-.2-3.18s-.18-1.73-.18-1.86-.16-.54-.16-.77C187.17,91.2,187.3,91.14,187.5,91.14Z"/></g></g></svg>