<svg xmlns="http://www.w3.org/2000/svg" viewBox="0 0 534.15 515.2"><defs><style>.cls-1{fill:#fff;}</style></defs><g id="Layer_2" data-name="Layer 2"><g id="wifi"><path class="cls-1" d="M275.15,515.2c-.48-.9,209.71-209,259-257.76a272.94,272.94,0,0,0-12.65-60.88c-17.95,17.91-239.54,239-239.8,239.8a84.15,84.15,0,0,1,12.51-73.22L503.27,153.81a281.69,281.69,0,0,0-24.83-38.74L260.79,328.63S174,432.75,275.15,515.2Z"/><path class="cls-1" d="M298.36,228.28S369,140.1,277.87,49.61c.2.26-203.5,202-203.5,202s-28.72-36.75,9.19-74.4L261.46.56c-6-.36-12.1-.56-18.22-.56a302.46,302.46,0,0,0-59.18,5.81L21.74,168.14S-41.72,258.76,48.22,348.7c.53.51,208.5-208.5,208.5-208.5a70.94,70.94,0,0,1-18,78.36L7.59,449.74a287.25,287.25,0,0,0,31.88,35.47Z"/></g></g></svg>