<svg xmlns="http://www.w3.org/2000/svg" width="813.438" height="705.571" viewBox="0 0 813.438 705.571">
  <g id="big_frontpath" transform="translate(-971.553 -163.827)">
    <path id="Pfad_2134" data-name="Pfad 2134" d="M-453.667,592.584c-104.308,182.493,39.42,335.756,195.45,198.086,38.011-33.537,53.655-47.3,113.5-46.585,106.373,1.274,240.663,45.46,316.93,12.982C309.081,698.786,250.1,377.993-112.447,377.993-162.733,377.993-342.584,398.237-453.667,592.584Z" transform="translate(1545.076 25.691)" fill="#f8751d"/>
    <path id="Pfad_2135" data-name="Pfad 2135" d="M-242.563,545.993c-14.412,18.926-14.279,48.311,2.1,65.557s45.908,18.819,65.145,4.845,27.073-41.011,20.109-63.745C-167.791,511.574-219.646,515.892-242.563,545.993Z" transform="translate(1859.755 218.46)" fill="#925e78" opacity="0.87"/>
    <path id="Pfad_2139" data-name="Pfad 2139" d="M-557.174,351.9c.119,10.15,7.2,19.752,16.731,23.244s20.907.893,28.262-6.105c12.581-11.967,7.841-35.949-9.086-41.634C-537.077,322.092-557.373,334.9-557.174,351.9Z" transform="translate(1593.438 -162.359)" fill="#925e78" opacity="0.87"/>
    <path id="Pfad_2136" data-name="Pfad 2136" d="M-488.049,572.271c29.814,45.453,72.25,86.2,105.006,124.361s68.518,76.158,86.056,123.286C-159.093,1190.471,255.714,632.027,279.8,501.1c5.946-32.326,1.67-67.795-21.623-90.6-32.835-32.156-100.536-45.075-205.185-40.129-182.871,8.641-268.389-49.923-345.286-64.524C-473.142,271.5-588.6,418.969-488.049,572.271Z" transform="translate(1496.883 -77.17)" fill="#f8951d" opacity="0.87"/>
    <path id="Pfad_2137" data-name="Pfad 2137" d="M-118.113,375.782c73.2-31.657,50.87-108.174-13.92-88.676C-209.124,310.306-224.906,421.97-118.113,375.782Z" transform="translate(1666.451 -114.627)" fill="#f7b538" opacity="0.87"/>
  </g>
</svg>
