<svg xmlns="http://www.w3.org/2000/svg" xmlns:xlink="http://www.w3.org/1999/xlink" width="809" height="1018" viewBox="0 0 809 1018">
  <defs>
    <clipPath id="clip-path">
      <path id="Rechteck_12" data-name="Rechteck 12" d="M0,0H809a0,0,0,0,1,0,0V793a225,225,0,0,1-225,225H178A178,178,0,0,1,0,840V0A0,0,0,0,1,0,0Z" transform="translate(-11611 -855)" fill="#353a40"/>
    </clipPath>
    <linearGradient id="linear-gradient" x1="0.5" x2="0.5" y2="1" gradientUnits="objectBoundingBox">
      <stop offset="0" stop-color="#f8951d"/>
      <stop offset="1" stop-color="#f8751d"/>
    </linearGradient>
  </defs>
  <g id="cloud" transform="translate(11544 2208)">
    <g id="Gruppe_maskieren_114" data-name="Gruppe maskieren 114" transform="translate(67 -1353)" clip-path="url(#clip-path)">
      <g id="design" transform="translate(6592.914 -1783.583)">
        <path id="Pfad_2120" data-name="Pfad 2120" d="M-1013.49,774.569c-188.884-72.248-556.683,265.558-638.888-3.706-47.283-154.878,207.67-423.515,385.862-535.6C-1103.983,133.02-906.874,164.4-931.04,364.968-952.261,541.061-686.34,899.7-1013.49,774.569Z" transform="translate(-16545.793 909.972)" fill="url(#linear-gradient)"/>
      </g>
    </g>
    <g id="cloud-2" data-name="cloud" transform="translate(-11293 -1808)">
      <g id="Calque_1" data-name="Calque 1">
        <path id="Pfad_12" data-name="Pfad 12" d="M256.931,103.336a88.164,88.164,0,0,0,2.988-18.822C262.577,40.776,232.493,2.983,192.877.175c-32.176-2.33-60.767,19.15-71.522,50.789A48.369,48.369,0,0,0,90.732,39.82c-28.322,0-51.3,25.066-51.3,56.017a61.544,61.544,0,0,0,1.613,13.982C17.925,113.732,0,136.348,0,163.744c0,30.085,21.6,54.493,48.07,54.493H254.929c29.009,0,52.551-25.723,52.551-57.481C307.54,129.835,285.074,104.561,256.931,103.336ZM123.626,179.25a11.95,11.95,0,1,1,12.428-11.95,12.13,12.13,0,0,1-12.428,11.95Zm27.814-1.822A37.524,37.524,0,0,0,113.8,140.053v-21.72a59.184,59.184,0,0,1,59.482,58.945Zm39.227,0v-1.793c0-40.392-33.431-73.106-74.689-73.106h-2.838V77.672c55.9,0,101.189,44.634,101.189,99.665Z" transform="translate(0 -0.002)" fill="#fff"/>
      </g>
    </g>
  </g>
</svg>
