<svg xmlns="http://www.w3.org/2000/svg" xmlns:xlink="http://www.w3.org/1999/xlink" width="809" height="1018" viewBox="0 0 809 1018">
  <defs>
    <clipPath id="clip-path">
      <path id="Rechteck_1497" data-name="Rechteck 1497" d="M0,0H809a0,0,0,0,1,0,0V793a225,225,0,0,1-225,225H178A178,178,0,0,1,0,840V0A0,0,0,0,1,0,0Z" transform="translate(-11611 -855)" fill="#353a40"/>
    </clipPath>
    <linearGradient id="linear-gradient" x1="0.5" x2="0.5" y2="1" gradientUnits="objectBoundingBox">
      <stop offset="0" stop-color="#f8951d"/>
      <stop offset="1" stop-color="#f8751d"/>
    </linearGradient>
  </defs>
  <g id="crm" transform="translate(10503 1427)">
    <g id="Gruppe_maskieren_118" data-name="Gruppe maskieren 118" transform="translate(1108 -572)" clip-path="url(#clip-path)">
      <g id="design" transform="translate(6592.914 -1783.583)">
        <path id="Pfad_2120" data-name="Pfad 2120" d="M-1013.49,774.569c-188.884-72.248-556.683,265.558-638.888-3.706-47.283-154.878,207.67-423.515,385.862-535.6C-1103.983,133.02-906.874,164.4-931.04,364.968-952.261,541.061-686.34,899.7-1013.49,774.569Z" transform="translate(-16545.793 909.972)" fill="url(#linear-gradient)"/>
      </g>
    </g>
    <g id="crm-2" data-name="crm" transform="translate(-10242 -1022)">
      <g id="Calque_1" data-name="Calque 1">
        <path id="Pfad_23" data-name="Pfad 23" d="M131.557,106.8a19.294,19.294,0,0,1-2.392-7.718,67.143,67.143,0,0,1,5.248-20.452,15.088,15.088,0,0,0,5.171-5.171,15.088,15.088,0,0,0,1.119-8.644A3.087,3.087,0,0,1,139.467,62,87.093,87.093,0,0,0,141.9,38.849C140.7,23.877,125.807,17.24,119.44,15.7a43.8,43.8,0,0,0-28.131,2.856A24.851,24.851,0,0,0,77.533,40.586,124.1,124.1,0,0,0,80.118,63.16s-3.01.617-2.392,6.29a13.236,13.236,0,0,0,5.865,8.875S92,96.616,90.074,103.137s-20.876,13.7-34.266,23.925c-17.365,9.107-20.838,38.588-20.838,38.588H186.159s-2.277-25.893-12.657-36.813S134.142,114.29,131.557,106.8Z" transform="translate(99.974 41.684)" fill="#fff"/>
        <path id="Pfad_24" data-name="Pfad 24" d="M35,94.513h75.479s-3.164-35.27-17.558-50.165a40.71,40.71,0,0,0-7.1-5.518c-6.753,5.325-19.989,11.229-30.06,18.947C40.827,65.533,36.235,88.223,35,94.513Z" transform="translate(100.059 111.046)" fill="#fff"/>
        <path id="Pfad_25" data-name="Pfad 25" d="M149.221,158.51A187.846,187.846,0,0,1,167.4,146.934c1.814-1.042,3.859-2.238,5.865-3.434-16.786-6.792-36.312-11.191-38.588-18.137a27.32,27.32,0,0,1-3.473-10.457,92.612,92.612,0,0,1,7.293-27.861,20.606,20.606,0,0,0,7.216-7.062,20.22,20.22,0,0,0,1.582-11.577,4.245,4.245,0,0,1-1.736-3.859,112.717,112.717,0,0,0,3.357-31.488c-1.621-20.568-22.42-29.6-31.218-31.527A62.59,62.59,0,0,0,78.45,5.392c-15.2,7.023-18.368,20.761-19.294,29.79s3.859,30.871,3.859,30.871-4.245.888-3.4,8.605a18.021,18.021,0,0,0,8.142,12.078s11.769,24.967,9.03,33.881-29.1,18.638-47.7,32.569C4.785,165.533,0,205.588,0,205.588H122.943C123.483,201.073,128.036,170.473,149.221,158.51Z" transform="translate(0 0.01)" fill="#fff"/>
      </g>
    </g>
  </g>
</svg>
