<svg xmlns="http://www.w3.org/2000/svg" xmlns:xlink="http://www.w3.org/1999/xlink" width="339.218" height="292.819" viewBox="0 0 339.218 292.819">
  <defs>
    <linearGradient id="linear-gradient" x1="0.5" x2="0.5" y2="1" gradientUnits="objectBoundingBox">
      <stop offset="0" stop-color="#f8951d"/>
      <stop offset="1" stop-color="#f8751d"/>
    </linearGradient>
  </defs>
  <g id="design" transform="translate(7633 -456.377)">
    <path id="Pfad_2120" data-name="Pfad 2120" d="M-424.962,324.781c-79.2-30.294-233.42,111.35-267.889-1.554-19.826-64.941,87.077-177.582,161.794-224.582,68.151-42.869,150.8-29.713,140.667,54.388C-399.288,226.87-287.786,377.249-424.962,324.781Z" transform="translate(-6937.74 381.556)" fill="url(#linear-gradient)"/>
    <g id="design-2" data-name="design" transform="translate(-7530.851 542.6)">
      <g id="Calque_1" data-name="Calque 1">
        <path id="Pfad_38" data-name="Pfad 38" d="M159.146,44.726C150.871,11.1,109.378-7.61,66.577,2.947S-6.922,51.835,1.353,85.6C7.179,109.212,31.79,121.767,60.8,123.5a13.031,13.031,0,0,1-7.657-9.369c-1.427-8.3,7.3-16.645,19.474-18.809s23.208,2.949,24.634,11.247c1.022,5.826-3.02,11.723-9.749,15.432a111.037,111.037,0,0,0,11.485-2.378C141.883,109.212,167.445,78.467,159.146,44.726ZM45.462,83.484c-5.588,4.209-14.766,1.45-20.521-6.159s-5.826-17.192-.238-21.4,14.766-1.45,20.5,6.159S51.05,79.276,45.462,83.484ZM64.485,59.112c-6.3,1.712-13.292-3.8-15.646-12.365s.856-16.859,7.133-18.595,13.292,3.8,15.622,12.365-.737,16.859-7.015,18.595Zm41.041-20.854c-1.664,7.4-7.99,12.27-14.124,10.89s-9.749-8.489-8.085-15.884,8.085-12.27,14.172-10.89,9.8,8.536,8.132,15.884ZM116.512,56.9c-4.565-2.949-5.4-9.82-1.831-15.337s10.153-7.609,14.719-4.756,5.4,9.8,1.855,15.313S121.1,59.849,116.512,56.9Zm20.021,23.778c-4.756,2.687-10.439,1.664-12.674-2.259s-.214-9.3,4.542-12.008,10.415-1.664,12.65,2.378.238,9.2-4.518,11.913Z" transform="translate(-0.002 -0.001)" fill="#fff"/>
      </g>
    </g>
  </g>
</svg>
