<svg xmlns="http://www.w3.org/2000/svg" xmlns:xlink="http://www.w3.org/1999/xlink" width="809" height="1018" viewBox="0 0 809 1018">
  <defs>
    <clipPath id="clip-path">
      <path id="Rechteck_1495" data-name="Rechteck 1495" d="M0,0H809a0,0,0,0,1,0,0V793a225,225,0,0,1-225,225H178A178,178,0,0,1,0,840V0A0,0,0,0,1,0,0Z" transform="translate(-11611 -855)" fill="#353a40"/>
    </clipPath>
    <linearGradient id="linear-gradient" x1="0.5" x2="0.5" y2="1" gradientUnits="objectBoundingBox">
      <stop offset="0" stop-color="#f8951d"/>
      <stop offset="1" stop-color="#f8751d"/>
    </linearGradient>
  </defs>
  <g id="internet" transform="translate(11544 612)">
    <g id="Gruppe_maskieren_116" data-name="Gruppe maskieren 116" transform="translate(67 243)" clip-path="url(#clip-path)">
      <g id="design" transform="translate(6592.914 -1783.583)">
        <path id="Pfad_2120" data-name="Pfad 2120" d="M-1013.49,774.569c-188.884-72.248-556.683,265.558-638.888-3.706-47.283-154.878,207.67-423.515,385.862-535.6C-1103.983,133.02-906.874,164.4-931.04,364.968-952.261,541.061-686.34,899.7-1013.49,774.569Z" transform="translate(-16545.793 909.972)" fill="url(#linear-gradient)"/>
      </g>
    </g>
    <g id="internet-2" data-name="internet" transform="translate(-11256 -194)">
      <g id="Calque_1" data-name="Calque 1">
        <rect id="Rechteck_22" data-name="Rechteck 22" width="97.224" height="74.937" transform="translate(67.087)" fill="#fff"/>
        <path id="Pfad_16" data-name="Pfad 16" d="M58.873,55.382V90.9H11.214V55.382H58.873m2.243-11.214H9a9.027,9.027,0,0,0-9,8.971V93.145a9.027,9.027,0,0,0,9,9H61.228a9.055,9.055,0,0,0,9-9V53.139a9.055,9.055,0,0,0-9-9Z" transform="translate(0 79.605)" fill="#fff"/>
        <path id="Pfad_17" data-name="Pfad 17" d="M88.355,55.382V90.9H40.7V55.382H88.355M90.6,44.168H38.369a9.055,9.055,0,0,0-9,9V93.145a9.055,9.055,0,0,0,9,9H90.6a9.055,9.055,0,0,0,9-9V53.139a9.055,9.055,0,0,0-9-9Z" transform="translate(52.968 79.605)" fill="#fff"/>
        <path id="Pfad_18" data-name="Pfad 18" d="M117.155,55.382V90.9H69.5V55.382h47.659M119.4,44.168H67.169a9.027,9.027,0,0,0-9,9V93.145a9.027,9.027,0,0,0,9,9h52.2a9.055,9.055,0,0,0,9-9V53.139a9.055,9.055,0,0,0-9-9Z" transform="translate(104.908 79.605)" fill="#fff"/>
        <path id="Pfad_19" data-name="Pfad 19" d="M184.8,44.9a4.99,4.99,0,0,0-4.962-4.962h-76V34.334a5.13,5.13,0,1,0-10.233,0v5.607H15.333A4.962,4.962,0,0,0,10.4,44.9V60.855a5.13,5.13,0,1,0,10.233,0V53.37h72.89v5.3a5.13,5.13,0,0,0,10.233,0v-5.3h70.591v7.485a5.13,5.13,0,1,0,10.233,0V49.641a5.608,5.608,0,0,0,.224-1.374Z" transform="translate(18.729 51.985)" fill="#fff"/>
      </g>
    </g>
  </g>
</svg>
