<svg xmlns="http://www.w3.org/2000/svg" xmlns:xlink="http://www.w3.org/1999/xlink" width="809" height="1018" viewBox="0 0 809 1018">
  <defs>
    <clipPath id="clip-path">
      <path id="Rechteck_1500" data-name="Rechteck 1500" d="M0,0H809a0,0,0,0,1,0,0V793a225,225,0,0,1-225,225H178A178,178,0,0,1,0,840V0A0,0,0,0,1,0,0Z" transform="translate(-11611 -855)" fill="#353a40"/>
    </clipPath>
    <linearGradient id="linear-gradient" x1="0.5" x2="0.5" y2="1" gradientUnits="objectBoundingBox">
      <stop offset="0" stop-color="#f8951d"/>
      <stop offset="1" stop-color="#f8751d"/>
    </linearGradient>
  </defs>
  <g id="social" transform="translate(9496 1452)">
    <g id="Gruppe_maskieren_121" data-name="Gruppe maskieren 121" transform="translate(2115 -597)" clip-path="url(#clip-path)">
      <g id="design" transform="translate(6592.914 -1783.583)">
        <path id="Pfad_2120" data-name="Pfad 2120" d="M-1013.49,774.569c-188.884-72.248-556.683,265.558-638.888-3.706-47.283-154.878,207.67-423.515,385.862-535.6C-1103.983,133.02-906.874,164.4-931.04,364.968-952.261,541.061-686.34,899.7-1013.49,774.569Z" transform="translate(-16545.793 909.972)" fill="url(#linear-gradient)"/>
      </g>
    </g>
    <g id="social-2" data-name="social" transform="translate(-9235 -1066)">
      <g id="Calque_1" data-name="Calque 1">
        <path id="Pfad_33" data-name="Pfad 33" d="M156.378,150.119a31.928,31.928,0,0,1-3.823-12.684,112.114,112.114,0,0,1,8.688-33.317A24.5,24.5,0,0,0,169.41,95.6a25.107,25.107,0,0,0,1.868-14.031,5.039,5.039,0,0,1-1.868-4.561,138.481,138.481,0,0,0,3.866-37.661C171.408,14.982,147.213,4.165,136.961,1.82A70.978,70.978,0,0,0,91.221,6.511C73.5,14.938,69.806,31.4,68.893,42.174s4.344,36.792,4.344,36.792-4.909,1-3.866,10.251a21.719,21.719,0,0,0,9.513,14.465s13.64,29.8,10.512,40.441-33.882,22.327-55.514,39.095C5.56,197.9,0,245.77,0,245.77H244.862s-3.692-42.222-20.46-60.032S160.722,162.281,156.378,150.119Z" transform="translate(0 0.012)" fill="#fff"/>
        <path id="Pfad_34" data-name="Pfad 34" d="M89.441.25a42.917,42.917,0,1,0,30.391,12.57A42.961,42.961,0,0,0,89.441.25Zm18.548,43.438c-1.955,2.128-3.692,4.344-5.43,6.125,0,5.69,1.39,10.382,1.694,15.985-5.213-1.824-9.47-4.561-14.639-6.472-5.039,2-9.383,4.691-14.6,6.472.738-5,1.043-10.512,2.042-15.29-3.128-4.822-7.775-7.906-10.947-12.727,5.3-.738,9.991-2.042,15.29-2.737,3.084-4.344,5.343-9.643,8.166-14.291,2.954,4.344,5.256,9.73,8.166,14.291,5.213.7,9.9,1.911,14.943,2.737.3,1.911-2.91,3.866-4.691,5.777Z" transform="translate(155.422 0.886)" fill="#fff"/>
      </g>
    </g>
  </g>
</svg>
