<svg xmlns="http://www.w3.org/2000/svg" xmlns:xlink="http://www.w3.org/1999/xlink" width="809" height="1018" viewBox="0 0 809 1018">
  <defs>
    <clipPath id="clip-path">
      <path id="Rechteck_1503" data-name="Rechteck 1503" d="M0,0H809a0,0,0,0,1,0,0V793a225,225,0,0,1-225,225H178A178,178,0,0,1,0,840V0A0,0,0,0,1,0,0Z" transform="translate(-11611 -855)" fill="#353a40"/>
    </clipPath>
    <linearGradient id="linear-gradient" x1="0.5" x2="0.5" y2="1" gradientUnits="objectBoundingBox">
      <stop offset="0" stop-color="#f8951d"/>
      <stop offset="1" stop-color="#f8751d"/>
    </linearGradient>
  </defs>
  <g id="sound" transform="translate(8489 1473)">
    <g id="Gruppe_maskieren_124" data-name="Gruppe maskieren 124" transform="translate(3122 -618)" clip-path="url(#clip-path)">
      <g id="design" transform="translate(6592.914 -1783.583)">
        <path id="Pfad_2120" data-name="Pfad 2120" d="M-1013.49,774.569c-188.884-72.248-556.683,265.558-638.888-3.706-47.283-154.878,207.67-423.515,385.862-535.6C-1103.983,133.02-906.874,164.4-931.04,364.968-952.261,541.061-686.34,899.7-1013.49,774.569Z" transform="translate(-16545.793 909.972)" fill="url(#linear-gradient)"/>
      </g>
    </g>
    <g id="sound-2" data-name="sound" transform="translate(-8201 -1085)">
      <g id="Calque_1" data-name="Calque 1">
        <path id="Pfad_40" data-name="Pfad 40" d="M232.281,35.886a37.732,37.732,0,0,0,0-10.264L228.628,8.929C227.35,3.267,222.82-.6,218.729.053L72.621,26.973c-4.237.731-6.648,5.954-5.443,11.543l.767,3.251v119.3A56.435,56.435,0,0,0,27,164.9C2.963,176.954-6.863,202.779,5.082,222.576s40.983,26.117,65.018,14.1c20.126-10.081,30.244-29.879,26.007-47.485a7.853,7.853,0,0,0,2.082-5.26V96.886L202.328,78.623v62.754a56.435,56.435,0,0,0-41.093,3.835c-24.035,12.054-33.824,37.879-21.916,57.676s40.983,26.153,64.982,14.1c20.163-10.118,30.281-29.843,26.044-47.485a7.671,7.671,0,0,0,2.046-5.223ZM202.328,68.76,98.19,87.024V54.405L202.328,35.192Z" transform="translate(0.002 0.02)" fill="#fff"/>
      </g>
    </g>
  </g>
</svg>
