<svg id="store" xmlns="http://www.w3.org/2000/svg" width="75.995" height="67.31" viewBox="0 0 75.995 67.31">
  <g id="Calque_1" data-name="Calque 1">
    <path id="Pfad_20" data-name="Pfad 20" d="M28.39,54.67A6.32,6.32,0,1,1,22.08,61a6.32,6.32,0,0,1,6.31-6.33Z" transform="translate(0 0)" fill="#f8951d"/>
    <path id="Pfad_21" data-name="Pfad 21" d="M56,54.67a6.32,6.32,0,1,1-4.5,1.84A6.32,6.32,0,0,1,56,54.67Z" transform="translate(0 0)" fill="#f8951d"/>
    <path id="Pfad_22" data-name="Pfad 22" d="M72.05,20.05H22.86a3.07,3.07,0,0,0-2.3,3.05c0,2.54-2.8,3.27-2.8,3.27H68l-2,6.65H24a2.87,2.87,0,0,0-2.15,2.84A3.24,3.24,0,0,0,24,38.92H64.31l-1.84,6.21H27L24.64,26.37l-.76-6.32s-.69-5.85-1.08-8.26S16.36,6.33,3.33.19C.26-1.1-2.3,4.51,3.33,7.44l10.27,4.8s2.39,1.39,2.6,3.25,4.37,32.78,4.37,32.78.17,4.3,4.08,4.3h39.2c3.28,0,3.92-3.43,3.92-3.43l7.77-23.07S77.85,20.05,72.05,20.05Z" transform="translate(0 0)" fill="#f8951d"/>
  </g>
</svg>
