<svg xmlns="http://www.w3.org/2000/svg" xmlns:xlink="http://www.w3.org/1999/xlink" width="809" height="1018" viewBox="0 0 809 1018">
  <defs>
    <clipPath id="clip-path">
      <path id="Rechteck_1494" data-name="Rechteck 1494" d="M0,0H809a0,0,0,0,1,0,0V793a225,225,0,0,1-225,225H178A178,178,0,0,1,0,840V0A0,0,0,0,1,0,0Z" transform="translate(-11611 -855)" fill="#353a40"/>
    </clipPath>
    <linearGradient id="linear-gradient" x1="0.5" x2="0.5" y2="1" gradientUnits="objectBoundingBox">
      <stop offset="0" stop-color="#f8951d"/>
      <stop offset="1" stop-color="#f8751d"/>
    </linearGradient>
  </defs>
  <g id="wifi" transform="translate(11544 1452)">
    <g id="Gruppe_maskieren_115" data-name="Gruppe maskieren 115" transform="translate(67 -597)" clip-path="url(#clip-path)">
      <g id="design" transform="translate(6592.914 -1783.583)">
        <path id="Pfad_2120" data-name="Pfad 2120" d="M-1013.49,774.569c-188.884-72.248-556.683,265.558-638.888-3.706-47.283-154.878,207.67-423.515,385.862-535.6C-1103.983,133.02-906.874,164.4-931.04,364.968-952.261,541.061-686.34,899.7-1013.49,774.569Z" transform="translate(-16545.793 909.972)" fill="url(#linear-gradient)"/>
      </g>
    </g>
    <g id="wifi-2" data-name="wifi" transform="translate(-11288 -1054)">
      <g id="Calque_1" data-name="Calque 1">
        <circle id="Ellipse_1" data-name="Ellipse 1" cx="33.875" cy="33.875" r="33.875" transform="translate(111.278 154.22)" fill="#fff"/>
        <path id="Pfad_13" data-name="Pfad 13" d="M19.88,87.125c.215-.323.431-.574.682-.9a161.48,161.48,0,0,1,255.748,4.7L296.3,74.889A186.922,186.922,0,0,0,.61,70.224c-.215.251-.359.5-.61.789Z" transform="translate(0 0.027)" fill="#fff"/>
        <path id="Pfad_14" data-name="Pfad 14" d="M21.46,62.687,36.424,74.781a70.19,70.19,0,0,1,112.569,4.665l15-12.021a87.522,87.522,0,0,0-17.045-18.158A89.711,89.711,0,0,0,21.46,62.687Z" transform="translate(55.548 76.892)" fill="#fff"/>
        <path id="Pfad_15" data-name="Pfad 15" d="M10.54,67.826l-.61.789L29.846,84.691c.251-.287.395-.574.682-.861a114.83,114.83,0,0,1,182.185,3.588l19.952-15.861A140.452,140.452,0,0,0,10.5,67.969Z" transform="translate(25.703 39.53)" fill="#fff"/>
      </g>
    </g>
  </g>
</svg>
