<svg xmlns="http://www.w3.org/2000/svg" width="118.234" height="80.39" viewBox="0 0 118.234 80.39">
  <g id="adidas" transform="translate(-939 -272.333)">
    <g id="adidas-9" transform="translate(939 272.333)">
      <path id="Pfad_232" data-name="Pfad 232" d="M129.879,136.742c-5.53,0-8.809-2.83-9.06-6.905h5.287c0,1.359.753,3.167,4.024,3.279,2.267,0,3.521-1.358,3.521-2.379-.251-1.584-2.267-1.7-4.275-2.042a20.663,20.663,0,0,1-5.287-1.35,5.414,5.414,0,0,1-2.769-4.871c0-3.626,3.028-6.456,8.307-6.456,5.036,0,8.307,2.605,8.549,6.568H133.15c0-1.013-.251-2.717-3.271-2.717-2.016,0-3.27.337-3.521,1.808,0,2.042,4.275,1.93,7.546,2.717,3.02.8,5.036,2.717,5.036,5.443,0,4.984-4.024,6.905-9.059,6.905M33.537,103.3,50.895,93.222l9.31,15.974h-23.4" transform="translate(-20.704 -56.875)"/>
      <path id="Pfad_233" data-name="Pfad 233" d="M126.15,171.126V150.965" transform="translate(-76.816 -91.86)"/>
      <path id="Pfad_234" data-name="Pfad 234" d="M5.753,70.484a5.91,5.91,0,0,0,5.78,5.772,5.741,5.741,0,0,0,5.789-5.772,5.812,5.812,0,0,0-5.789-5.772,5.989,5.989,0,0,0-5.78,5.772M11.282,80.9a10.362,10.362,0,0,1,0-20.724,10.2,10.2,0,0,1,6.04,1.808V60.4h5.036v20.04H17.322V79.2a10.334,10.334,0,0,1-6.04,1.7M78.466,53.316,54.316,11.193,71.673,1l30.19,52.316M28.9,70.484a5.747,5.747,0,0,0,5.789,5.772,5.917,5.917,0,0,0,5.789-5.772,6,6,0,0,0-5.789-5.772A5.818,5.818,0,0,0,28.9,70.484M34.437,80.9a10.364,10.364,0,1,1,6.04-18.916V53.5H45.5V80.443H40.477V79.2a10.944,10.944,0,0,1-6.04,1.7m-.248-51.478L51.8,19.464l19.374,33.85H52.8V58.3H47.774V53.315m68.174,5.141a2.492,2.492,0,1,1,0-4.984,2.492,2.492,0,1,1,0,4.984m0-4.638a2.155,2.155,0,1,0,2.008,2.146,2.021,2.021,0,0,0-2.008-2.146" transform="translate(-0.976 -1)"/>
      <path id="Pfad_235" data-name="Pfad 235" d="M199.233,138.034l-.5-1.133h-.5v1.133h-.381v-2.717h1.133a.9.9,0,0,1,.753.8.8.8,0,0,1-.5.787l.5,1.133m-1-2.371h-.5v.9h.5c.5,0,.5-.112.5-.45,0-.233,0-.45-.5-.45m-33.245,15.523a5.747,5.747,0,0,0,5.789,5.772,5.9,5.9,0,0,0,5.78-5.772,5.983,5.983,0,0,0-5.78-5.772,5.818,5.818,0,0,0-5.789,5.772m5.53,10.418a10.364,10.364,0,1,1,6.04-18.916v-1.584h4.785v20.04h-4.785V159.9a10.9,10.9,0,0,1-6.04,1.7m-28.658-10.418a5.911,5.911,0,0,0,5.788,5.772,5.746,5.746,0,0,0,5.789-5.772,5.818,5.818,0,0,0-5.789-5.772,5.991,5.991,0,0,0-5.788,5.772M153.934,134.2h5.027v26.945h-5.027V159.9a9.577,9.577,0,0,1-5.789,1.7,10.364,10.364,0,1,1,0-20.724,8.989,8.989,0,0,1,5.789,1.808Z" transform="translate(-83.741 -81.703)"/>
    </g>
    <rect id="Rechteck_60" data-name="Rechteck 60" width="5" height="22" transform="translate(985.834 330.724)"/>
  </g>
</svg>
