<svg id="app" xmlns="http://www.w3.org/2000/svg" width="77" height="61.519" viewBox="0 0 77 61.519">
  <g id="Calque_1" data-name="Calque 1">
    <path id="Pfad_26" data-name="Pfad 26" d="M72.648,0H4.364A4.376,4.376,0,0,0,0,4.364V57.155a4.376,4.376,0,0,0,4.364,4.364H72.648A4.376,4.376,0,0,0,77,57.155V4.364A4.376,4.376,0,0,0,72.648,0ZM19.619,5.945a3.4,3.4,0,1,1-2.412.992,3.412,3.412,0,0,1,2.412-.992Zm-10.4,0a3.412,3.412,0,1,1-3.4,3.341,3.412,3.412,0,0,1,3.4-3.341ZM71.2,54.48H5.8V15.742H71.2Z" fill="#ededed"/>
    <path id="Pfad_27" data-name="Pfad 27" d="M27.381,40.74,15.17,33.19v-2.7L27.381,23v3.888l-8.43,4.97,8.43,5.006Z" transform="translate(2.867 4.347)" fill="#ededed"/>
    <path id="Pfad_28" data-name="Pfad 28" d="M41.094,19.67,31.713,45.031H27.23l9.441-25.314Z" transform="translate(5.147 3.718)" fill="#ededed"/>
    <path id="Pfad_29" data-name="Pfad 29" d="M40.61,36.84,49.1,31.834l-8.489-4.97V23l12.211,7.491v2.7L40.61,40.74Z" transform="translate(7.676 4.347)" fill="#ededed"/>
  </g>
</svg>
