<svg id="bayer" xmlns="http://www.w3.org/2000/svg" width="104.644" height="104.644" viewBox="0 0 104.644 104.644">
  <path id="Pfad_7" data-name="Pfad 7" d="M0,0H104.644V104.644H0Z" transform="translate(0)" fill="#fff" fill-rule="evenodd"/>
  <path id="Pfad_8" data-name="Pfad 8" d="M59.753,16.258a43.5,43.5,0,1,1-43.5,43.5,43.661,43.661,0,0,1,43.5-43.5Z" transform="translate(-7.431 -7.432)" fill="#c1c1c9" fill-rule="evenodd"/>
  <path id="Pfad_9" data-name="Pfad 9" d="M62.128,21.4a40.692,40.692,0,0,0,0,81.383,40.692,40.692,0,0,0,0-81.383Z" transform="translate(-9.806 -9.78)" fill="#fff" fill-rule="evenodd"/>
  <path id="Pfad_10" data-name="Pfad 10" d="M65.1,63.683l3.954-5.333h4.137l-6.405,8.306v5.15H63.414v-5.15L57.008,58.35h4.138L65.1,63.683ZM53.268,58.35l6.621,13.456h-3.8l-1.226-2.667H48.057l-1.226,2.667h-3.8L49.65,58.35Zm-24.645,0H36.93c2.33,0,5.058.368,5.058,3.249a2.851,2.851,0,0,1-2.115,2.758,3.473,3.473,0,0,1,2.851,3.525c0,2.881-2.176,3.923-4.72,3.923h-9.38Zm58.3,11.034v2.422H73.866V58.35H86.557v2.421H77.269v2.943H86.25v2.421H77.269v3.249h9.656Zm5.394-2.942v5.364H88.948V58.35H97.99c2.636,0,5.241.92,5.241,4.015,0,2.36-1.349,3.617-3.494,4.077l4.015,5.364H99.737l-3.525-5.364H92.318Zm-34.146-38.1h8.307c2.33,0,5.058.368,5.058,3.28a2.906,2.906,0,0,1-2.115,2.758,3.45,3.45,0,0,1,2.85,3.525c0,2.882-2.176,3.923-4.72,3.923H58.172Zm8.89,14.989,6.59,13.456h-3.77L68.655,54.12h-6.8l-1.257,2.667h-3.77L63.445,43.33Zm5.732,40.952V86.7H58.815V73.247H72.456v2.422H62.218v2.942h9.931v2.422H62.218v3.249H72.794ZM62.218,96.359v5.364h-3.4V88.236h9.073c2.636,0,5.212.92,5.212,4.015a3.9,3.9,0,0,1-3.464,4.107l4.015,5.364H69.636l-3.555-5.364H62.218Z" transform="translate(-13.084 -12.955)" fill="#c1c1c9" fill-rule="evenodd"/>
  <path id="Pfad_11" data-name="Pfad 11" d="M56.6,68.782l-2.268-4.9-.03.03-.031-.03-2.238,4.9ZM34.834,65.595h4.935c.92,0,1.717-.306,1.778-1.349.092-1.134-.827-1.41-1.778-1.41H34.834Zm0,5.854h4.935c1.257,0,2.33-.368,2.33-1.808,0-1.564-1.042-1.717-2.33-1.717H34.834v3.524Zm60.324-5.364h5.3c1.073,0,2.176-.306,2.176-1.624s-1.072-1.625-2.176-1.625h-5.3Zm-30.774-30.5h4.934c.92,0,1.717-.306,1.809-1.318.061-1.164-.858-1.41-1.809-1.41H64.383Zm0,5.854h4.934c1.288,0,2.36-.368,2.36-1.808,0-1.533-1.072-1.686-2.36-1.686H64.383ZM70.36,53.732l-2.268-4.9v.061l-.03-.061-2.269,4.9Zm-5.3,42.239h5.271c1.1,0,2.177-.306,2.177-1.594,0-1.318-1.073-1.624-2.177-1.624H65.057v3.218Z" transform="translate(-15.923 -15.02)" fill="#fff" fill-rule="evenodd"/>
</svg>
