<svg xmlns="http://www.w3.org/2000/svg" width="929.895" height="705.571" viewBox="0 0 929.895 705.571">
  <g id="biggey" transform="translate(4278 -4835)">
    <g id="big_frontpath" transform="translate(-5191.553 4671.173)">
      <path id="Pfad_2134" data-name="Pfad 2134" d="M-453.667,592.584c-104.308,182.493,39.42,335.756,195.45,198.086,38.011-33.537,53.655-47.3,113.5-46.585,106.373,1.274,240.663,45.46,316.93,12.982C309.081,698.786,250.1,377.993-112.447,377.993-162.733,377.993-342.584,398.237-453.667,592.584Z" transform="translate(1545.076 25.691)" fill="#f8751d"/>
      <path id="Pfad_2135" data-name="Pfad 2135" d="M-242.563,545.993c-14.412,18.926-14.279,48.311,2.1,65.557s45.908,18.819,65.145,4.845,27.073-41.011,20.109-63.745C-167.791,511.574-219.646,515.892-242.563,545.993Z" transform="translate(1859.755 218.46)" fill="#925e78" opacity="0.87"/>
      <path id="Pfad_2139" data-name="Pfad 2139" d="M-557.174,351.9c.119,10.15,7.2,19.752,16.731,23.244s20.907.893,28.262-6.105c12.581-11.967,7.841-35.949-9.086-41.634C-537.077,322.092-557.373,334.9-557.174,351.9Z" transform="translate(1593.438 -162.359)" fill="#925e78" opacity="0.87"/>
      <path id="Pfad_2136" data-name="Pfad 2136" d="M-488.049,572.271c29.814,45.453,72.25,86.2,105.006,124.361s68.518,76.158,86.056,123.286C-159.093,1190.471,255.714,632.027,279.8,501.1c5.946-32.326,1.67-67.795-21.623-90.6-32.835-32.156-100.536-45.075-205.185-40.129-182.871,8.641-268.389-49.923-345.286-64.524C-473.142,271.5-588.6,418.969-488.049,572.271Z" transform="translate(1496.883 -77.17)" fill="#f8951d" opacity="0.87"/>
      <path id="Pfad_2137" data-name="Pfad 2137" d="M-118.113,375.782c73.2-31.657,50.87-108.174-13.92-88.676C-209.124,310.306-224.906,421.97-118.113,375.782Z" transform="translate(1666.451 -114.627)" fill="#f7b538" opacity="0.87"/>
    </g>
    <g id="whatwedo" transform="translate(-4292.424 4940.004)">
      <path id="Pfad_45" data-name="Pfad 45" d="M136.877,113.718V108.1a5.035,5.035,0,0,0-5.01-5.01H92.232v-1.344A5.159,5.159,0,0,0,87.1,96.615H65.65a5.172,5.172,0,0,0-5.133,5.129v59.961a5.027,5.027,0,0,0,5.01,5.01h66.34a5.024,5.024,0,0,0,5.01-5.01Z" transform="translate(136.179 128.87)" fill="#f8951d" fill-rule="evenodd"/>
      <path id="Pfad_46" data-name="Pfad 46" d="M141.826,116.068v-6.462a4.325,4.325,0,0,0-1.273-3.065l0,0-.02-.02a4.33,4.33,0,0,0-3.041-1.254H103.9a1.424,1.424,0,0,1-1.424-1.42V102.3a4.459,4.459,0,0,0-1.309-3.16l0,0,0,0A4.451,4.451,0,0,0,98,97.818H65.684a4.463,4.463,0,0,0-3.16,1.313l-.008.008-.02.02a4.46,4.46,0,0,0-1.289,3.14v63.512a4.354,4.354,0,0,0,4.338,4.338h71.943a4.322,4.322,0,0,0,3.061-1.273l0,0,.02-.02a4.33,4.33,0,0,0,1.254-3.041V116.068Zm2.843-6.462v56.2a7.177,7.177,0,0,1-2.072,5.034l-.036.036h0v0a7.167,7.167,0,0,1-5.07,2.112H65.545a7.2,7.2,0,0,1-7.185-7.185V102.3a7.287,7.287,0,0,1,2.116-5.133l.036-.036v0l0,0a7.307,7.307,0,0,1,5.168-2.151H98a7.3,7.3,0,0,1,5.172,2.151v0a7.3,7.3,0,0,1,2.151,5.172v.123h32.161a7.16,7.16,0,0,1,5.034,2.072l.036.036v0h0a7.166,7.166,0,0,1,2.108,5.074Zm-77.3,7.885a1.424,1.424,0,1,1,0-2.847h68.847a1.424,1.424,0,0,1,0,2.847Z" transform="translate(129.806 124.013)" fill="#333" fill-rule="evenodd"/>
      <path id="Pfad_47" data-name="Pfad 47" d="M369.039,371.39H151.8A6.781,6.781,0,0,1,147,369.4v0l0,0A6.777,6.777,0,0,1,145,364.6V80.324a6.774,6.774,0,0,1,1.993-4.8l0,0,.028-.028a6.783,6.783,0,0,1,4.769-1.969H369.039a6.775,6.775,0,0,1,4.793,2l0,0h0l.032.036a6.781,6.781,0,0,1,1.961,4.761V364.6a6.772,6.772,0,0,1-1.993,4.793l0,0h0l-.036.036a6.764,6.764,0,0,1-4.757,1.961ZM151.8,368.543H369.039a3.927,3.927,0,0,0,2.764-1.135l.02-.02.008-.008a3.927,3.927,0,0,0,1.155-2.784V80.324a3.937,3.937,0,0,0-1.135-2.768l-.02-.02-.008,0a3.911,3.911,0,0,0-2.784-1.155H151.8a3.942,3.942,0,0,0-2.76,1.127l-.028.024,0,.008a3.951,3.951,0,0,0-1.155,2.788V364.6a3.954,3.954,0,0,0,1.159,2.788h0A3.924,3.924,0,0,0,151.8,368.543Z" transform="translate(385.791 60.655)" fill="#333" fill-rule="evenodd"/>
      <path id="Pfad_48" data-name="Pfad 48" d="M196.132,82.211H240.2v3.334q6.044-.569,11.812-1.641v38.386q-5.766-1.062-11.812-1.641v3.338H229.491a20.858,20.858,0,0,0,7.407,13.647q.255.225.522.451c-1.961,2.444-3.867,3.9-7.189,4.287a7.739,7.739,0,0,0,3.757,1.681c-5.1,5.109,5.967,21.247,6.691,26.515.34,2.527-19.654,6.667-24,6.7-12.733-5.813-3.951-32.154-12.243-48.695a23.185,23.185,0,0,0-2.993-4.583h-5.311v-3.017a2.285,2.285,0,0,1-.368,0,6.894,6.894,0,0,1-1.562-.127l-.016,0a9.847,9.847,0,0,1-8.237-9.688v-16.1a9.843,9.843,0,0,1,9.815-9.819h.368Z" transform="translate(506.761 86.314)" fill="#e8f1f2" fill-rule="evenodd"/>
      <path id="Pfad_49" data-name="Pfad 49" d="M146.8,92.125H249.762a18.684,18.684,0,0,1,18.629,18.629V305.435H146.8Z" transform="translate(391.109 115.604)" fill="#e8f1f2" fill-rule="evenodd"/>
      <path id="Pfad_50" data-name="Pfad 50" d="M151.7,95a1.424,1.424,0,1,1,0-2.847H330.766a1.424,1.424,0,1,1,0,2.847Z" transform="translate(401.358 115.693)" fill="#333" fill-rule="evenodd"/>
      <path id="Pfad_51" data-name="Pfad 51" d="M151.7,100.02a1.424,1.424,0,1,1,0-2.847H306.252a1.424,1.424,0,1,1,0,2.847Z" transform="translate(401.358 130.518)" fill="#333" fill-rule="evenodd"/>
      <path id="Pfad_52" data-name="Pfad 52" d="M151.7,105.039a1.424,1.424,0,1,1,0-2.847H322.865a1.424,1.424,0,1,1,0,2.847Z" transform="translate(401.358 145.347)" fill="#333" fill-rule="evenodd"/>
      <path id="Pfad_53" data-name="Pfad 53" d="M151.7,110.058a1.424,1.424,0,1,1,0-2.847H309.068a1.424,1.424,0,0,1,0,2.847Z" transform="translate(401.358 160.175)" fill="#333" fill-rule="evenodd"/>
      <path id="Pfad_54" data-name="Pfad 54" d="M151.7,115.077a1.424,1.424,0,1,1,0-2.847H339.758a1.424,1.424,0,0,1,0,2.847Z" transform="translate(401.358 175.003)" fill="#333" fill-rule="evenodd"/>
      <path id="Pfad_55" data-name="Pfad 55" d="M151.7,120.1a1.424,1.424,0,1,1,0-2.847H325.119a1.424,1.424,0,1,1,0,2.847Z" transform="translate(401.358 189.832)" fill="#333" fill-rule="evenodd"/>
      <path id="Pfad_56" data-name="Pfad 56" d="M151.7,125.115a1.424,1.424,0,1,1,0-2.847H339.758a1.424,1.424,0,0,1,0,2.847Z" transform="translate(401.358 204.66)" fill="#333" fill-rule="evenodd"/>
      <path id="Pfad_57" data-name="Pfad 57" d="M151.7,130.134a1.424,1.424,0,0,1,0-2.847H324.834a1.424,1.424,0,0,1,0,2.847Z" transform="translate(401.358 219.488)" fill="#333" fill-rule="evenodd"/>
      <path id="Pfad_58" data-name="Pfad 58" d="M151.7,135.153a1.424,1.424,0,1,1,0-2.847H330.766a1.424,1.424,0,1,1,0,2.847Z" transform="translate(401.358 234.317)" fill="#333" fill-rule="evenodd"/>
      <path id="Pfad_59" data-name="Pfad 59" d="M151.7,140.173a1.424,1.424,0,1,1,0-2.847H320.049a1.424,1.424,0,0,1,0,2.847Z" transform="translate(401.358 249.148)" fill="#333" fill-rule="evenodd"/>
      <path id="Pfad_60" data-name="Pfad 60" d="M129.631,128.935v-9.107a8.923,8.923,0,0,0-8.9-8.9H48.992a8.923,8.923,0,0,0-8.9,8.9V250.569a8.919,8.919,0,0,0,8.9,8.9H120.73a8.917,8.917,0,0,0,8.9-8.9Z" transform="translate(75.832 171.151)" fill="#f4f6f8" fill-rule="evenodd"/>
      <rect id="Rechteck_45" data-name="Rechteck 45" width="89.541" height="118.074" transform="translate(115.923 297.311)" fill="#f4f6f8"/>
      <path id="Pfad_61" data-name="Pfad 61" d="M129.631,128.935v-9.107a8.923,8.923,0,0,0-8.9-8.9H48.992a8.923,8.923,0,0,0-8.9,8.9V250.569a8.919,8.919,0,0,0,8.9,8.9H120.73a8.917,8.917,0,0,0,8.9-8.9Z" transform="translate(75.832 171.151)" fill="#f4f6f8" fill-rule="evenodd"/>
      <path id="Pfad_62" data-name="Pfad 62" d="M129.271,130v-9.107a7.438,7.438,0,0,0-2.191-5.279l0,0v0a7.459,7.459,0,0,0-5.283-2.2H50.056a7.459,7.459,0,0,0-5.283,2.2l-.067.059a7.467,7.467,0,0,0-2.127,5.22V251.633a7.438,7.438,0,0,0,2.191,5.279l0,.008a7.468,7.468,0,0,0,5.283,2.187h71.738a7.48,7.48,0,0,0,7.478-7.474V130Zm2.847-9.107V251.633a10.287,10.287,0,0,1-3.005,7.264l-.024.024,0,.008a10.3,10.3,0,0,1-7.292,3.029H50.056a10.288,10.288,0,0,1-7.256-3l-.032-.032h0l0,0a10.29,10.29,0,0,1-3.029-7.288V120.891a10.283,10.283,0,0,1,2.958-7.213l.071-.083a10.311,10.311,0,0,1,7.3-3.029h71.738a10.311,10.311,0,0,1,7.3,3.029l0,0A10.3,10.3,0,0,1,132.119,120.891Z" transform="translate(74.768 170.087)" fill="#333" fill-rule="evenodd"/>
      <path id="Pfad_63" data-name="Pfad 63" d="M41.155,147.124a1.424,1.424,0,0,1,0-2.847H130.7a1.424,1.424,0,0,1,0,2.847Z" transform="translate(74.768 269.684)" fill="#333" fill-rule="evenodd"/>
      <path id="Pfad_64" data-name="Pfad 64" d="M51.1,115.411a1.424,1.424,0,1,1,0-2.847H61.99a1.424,1.424,0,1,1,0,2.847Z" transform="translate(104.15 175.99)" fill="#333" fill-rule="evenodd"/>
      <path id="Pfad_65" data-name="Pfad 65" d="M51.919,149.056a1.424,1.424,0,0,1,0-2.847h4.413a1.424,1.424,0,0,1,0,2.847Z" transform="translate(106.57 275.392)" fill="#333" fill-rule="evenodd"/>
      <path id="Pfad_66" data-name="Pfad 66" d="M154.992,125.767v16.027l26.625,23.493v74.7H60.667v-74.7l25.55-22.544V125.767h19.242l4.548-4.014a16.757,16.757,0,0,1,22.271,0l4.552,4.014Z" transform="translate(136.622 190.626)" fill="#fff" fill-rule="evenodd"/>
      <path id="Pfad_67" data-name="Pfad 67" d="M69.053,121.684h61.163v48.09l-24.47,14.766c-6.616-3.725-12.848-3.523-18.76,0L69.053,173.463Z" transform="translate(161.398 202.935)" fill="#f8951d" fill-rule="evenodd"/>
      <path id="Pfad_68" data-name="Pfad 68" d="M183.618,165.287a1.419,1.419,0,0,1-1.878,2.128l-26.625-23.493a1.419,1.419,0,1,1,1.878-2.128l26.625,23.493Zm-44.792-39.521a1.418,1.418,0,0,1-1.878,2.124l-4.548-4.01a15.352,15.352,0,0,0-20.393,0l-4.552,4.01a1.418,1.418,0,1,1-1.878-2.124l4.552-4.014a18.163,18.163,0,0,1,24.15,0l4.548,4.014Zm-52.491,16.98a1.418,1.418,0,0,1,1.878,2.124L62.668,167.415a1.419,1.419,0,1,1-1.878-2.128Z" transform="translate(135.562 189.563)" fill="#333" fill-rule="evenodd"/>
      <path id="Pfad_69" data-name="Pfad 69" d="M63.154,205.369a1.424,1.424,0,1,1-2.847,0V130.662a1.425,1.425,0,0,1,2.274-1.143l50.993,31.5a1.42,1.42,0,1,1-1.491,2.416L63.154,133.208Z" transform="translate(135.559 225.253)" fill="#333" fill-rule="evenodd"/>
      <path id="Pfad_70" data-name="Pfad 70" d="M61.731,206.793a1.424,1.424,0,1,1,0-2.847H181.261V133.208l-48.932,30.224a1.42,1.42,0,1,1-1.491-2.416l51-31.5a1.4,1.4,0,0,1,.846-.281,1.426,1.426,0,0,1,1.428,1.424v74.707a1.426,1.426,0,0,1-1.428,1.424Z" transform="translate(135.559 225.253)" fill="#333" fill-rule="evenodd"/>
      <path id="Pfad_71" data-name="Pfad 71" d="M183.6,183.022a1.421,1.421,0,1,1-1.839,2.167l-49.34-41.8a14.761,14.761,0,0,0-20.437,0l-49.34,41.8a1.42,1.42,0,0,1-1.835-2.167l49.34-41.8a17.568,17.568,0,0,1,24.11,0Z" transform="translate(135.562 246.516)" fill="#333" fill-rule="evenodd"/>
      <path id="Pfad_72" data-name="Pfad 72" d="M138.391,175.97a1.424,1.424,0,1,1-2.847,0V122.091H69.615V175.97a1.424,1.424,0,1,1-2.847,0v-55.3a1.423,1.423,0,0,1,1.424-1.424h68.776a1.423,1.423,0,0,1,1.424,1.424Z" transform="translate(154.647 195.726)" fill="#333" fill-rule="evenodd"/>
      <path id="Pfad_73" data-name="Pfad 73" d="M70.12,156.006H96.049v2.847H70.12v-2.847Zm0-32.4H90.541v2.847H70.12V123.6Zm28.606,0h17.585v2.847H98.726V123.6ZM70.12,139.8H80.492v2.847H70.12V139.8Zm19.286,0h26.906v2.847H89.406V139.8Zm14.75,16.2h12.156v2.847H104.156Z" transform="translate(164.551 208.604)" fill="#333" fill-rule="evenodd"/>
      <path id="Pfad_74" data-name="Pfad 74" d="M15.848,150.977a1.424,1.424,0,0,1,0-2.847H942.9a1.424,1.424,0,0,1,0,2.847Z" transform="translate(0 281.068)" fill="#333" fill-rule="evenodd"/>
      <path id="Pfad_75" data-name="Pfad 75" d="M101.128,89.45H412.219a11.356,11.356,0,0,1,11.322,11.326V296.247H89.8V100.776A11.36,11.36,0,0,1,101.128,89.45Z" transform="translate(222.7 107.701)" fill="#fff" fill-rule="evenodd"/>
      <path id="Pfad_76" data-name="Pfad 76" d="M102.191,89.09H413.283a12.779,12.779,0,0,1,12.745,12.749V297.311a1.423,1.423,0,0,1-1.424,1.424H90.866a1.425,1.425,0,0,1-1.424-1.424V101.839A12.786,12.786,0,0,1,102.191,89.09Zm311.092,2.847H102.191a9.937,9.937,0,0,0-9.9,9.9V295.887H423.181V101.839a9.937,9.937,0,0,0-9.9-9.9Z" transform="translate(221.636 106.638)" fill="#333" fill-rule="evenodd"/>
      <rect id="Rechteck_46" data-name="Rechteck 46" width="303.227" height="176.285" transform="translate(327.761 212.409)" fill="#f8951d"/>
      <path id="Pfad_77" data-name="Pfad 77" d="M474.56,141.745H82.418v10.883a15.835,15.835,0,0,0,15.79,15.79H458.766a15.836,15.836,0,0,0,15.794-15.79Z" transform="translate(200.884 262.204)" fill="#fff" fill-rule="evenodd"/>
      <path id="Pfad_78" data-name="Pfad 78" d="M474.2,144.232H84.905v9.459a14.318,14.318,0,0,0,4.215,10.147l0,0a14.325,14.325,0,0,0,10.147,4.215H459.83a14.311,14.311,0,0,0,10.147-4.215l.008,0a14.318,14.318,0,0,0,4.215-10.147v-9.459ZM83.482,141.385H475.624a1.423,1.423,0,0,1,1.424,1.424v10.883a17.175,17.175,0,0,1-5.026,12.124l-.032.028v0l0,0A17.156,17.156,0,0,1,459.83,170.9H99.272a17.158,17.158,0,0,1-12.124-5.026l-.028-.028,0,0,0,0a17.163,17.163,0,0,1-5.054-12.152V142.809A1.423,1.423,0,0,1,83.482,141.385Z" transform="translate(199.821 261.14)" fill="#333" fill-rule="evenodd"/>
      <rect id="Rechteck_47" data-name="Rechteck 47" width="392.142" height="10.882" transform="translate(283.302 403.949)" fill="#e8f1f2"/>
      <path id="Pfad_79" data-name="Pfad 79" d="M474.2,144.232H84.905v8.035H474.2v-8.035ZM83.482,141.385H475.624a1.423,1.423,0,0,1,1.424,1.424v10.883a1.423,1.423,0,0,1-1.424,1.424H83.482a1.423,1.423,0,0,1-1.424-1.424V142.809A1.423,1.423,0,0,1,83.482,141.385Z" transform="translate(199.821 261.14)" fill="#333" fill-rule="evenodd"/>
      <path id="Pfad_80" data-name="Pfad 80" d="M124.043,141.745h62.935a5.164,5.164,0,0,1-5.149,5.149H129.192A5.162,5.162,0,0,1,124.043,141.745Z" transform="translate(323.863 262.204)" fill="#b8c6d7" fill-rule="evenodd"/>
      <path id="Pfad_81" data-name="Pfad 81" d="M125.107,141.385h62.935a1.425,1.425,0,0,1,1.424,1.424v.036a6.558,6.558,0,0,1-1.93,4.6l-.008.008-.024.024a6.562,6.562,0,0,1-4.611,1.906H130.255a6.55,6.55,0,0,1-4.643-1.934l0,0a6.569,6.569,0,0,1-1.926-4.643,1.423,1.423,0,0,1,1.424-1.424Zm61.227,2.847H126.815a3.745,3.745,0,0,0,.811,1.206l0,0h0a3.7,3.7,0,0,0,2.63,1.091h52.638a3.716,3.716,0,0,0,2.61-1.072l.02-.02,0,0A3.734,3.734,0,0,0,186.333,144.232Z" transform="translate(322.799 261.14)" fill="#333" fill-rule="evenodd"/>
      <path id="Pfad_82" data-name="Pfad 82" d="M96.148,95.8V269.233H396.528V95.8ZM93.3,270.657V94.372a1.425,1.425,0,0,1,1.424-1.424H397.951a1.428,1.428,0,0,1,1.424,1.424V270.657a1.425,1.425,0,0,1-1.424,1.424H94.725A1.423,1.423,0,0,1,93.3,270.657Z" transform="translate(233.037 118.036)" fill="#333" fill-rule="evenodd"/>
      <rect id="Rechteck_48" data-name="Rechteck 48" width="106.216" height="56.431" transform="translate(505.311 250.84)" fill="#fff"/>
      <path id="Pfad_83" data-name="Pfad 83" d="M46.1,150.862a1.424,1.424,0,0,0,0,2.847H63.179a1.427,1.427,0,0,0,1.016-2.42,1.394,1.394,0,0,0-1.016-.427Zm687.836,2.847a1.427,1.427,0,0,0,1.02-2.42,1.411,1.411,0,0,0-1.02-.427H689.559a1.424,1.424,0,0,0,0,2.847Zm-55.762,0a1.427,1.427,0,0,0,1.02-2.42,1.411,1.411,0,0,0-1.02-.427H661.087a1.424,1.424,0,0,0,0,2.847Zm-31.319,0a1.427,1.427,0,0,0,1.02-2.42,1.411,1.411,0,0,0-1.02-.427H535.81a1.424,1.424,0,0,0,0,2.847Zm-122.43,0a1.427,1.427,0,0,0,1.02-2.42,1.411,1.411,0,0,0-1.02-.427H507.338a1.424,1.424,0,0,0,0,2.847Zm-31.319,0a1.427,1.427,0,0,0,1.02-2.42,1.41,1.41,0,0,0-1.02-.427H382.061a1.424,1.424,0,0,0,0,2.847Zm-122.43,0a1.427,1.427,0,0,0,1.02-2.42,1.41,1.41,0,0,0-1.02-.427H353.589a1.424,1.424,0,0,0,0,2.847Zm-31.319,0a1.427,1.427,0,0,0,1.02-2.42,1.411,1.411,0,0,0-1.02-.427H228.313a1.424,1.424,0,0,0,0,2.847Zm-122.426,0a1.427,1.427,0,0,0,1.016-2.42,1.408,1.408,0,0,0-1.016-.427H199.845a1.424,1.424,0,0,0,0,2.847Zm-31.319,0a1.427,1.427,0,0,0,1.016-2.42,1.4,1.4,0,0,0-1.016-.427H74.568a1.424,1.424,0,0,0,0,2.847Z" transform="translate(89.358 289.139)" fill="#333" fill-rule="evenodd"/>
      <path id="Pfad_84" data-name="Pfad 84" d="M216.374,113.288a10.081,10.081,0,0,1,7.15,2.966h0a10.1,10.1,0,0,1,0,14.3l0,0v0l-.032.032a10.106,10.106,0,0,1-14.264-.032l0,0,0,0-.032-.032a10.106,10.106,0,0,1,.032-14.264l0,0h0l.032-.032a10.08,10.08,0,0,1,7.114-2.934Zm5.141,4.971a7.285,7.285,0,0,0-10.262-.02l-.02.02,0,.008a7.28,7.28,0,0,0-.02,10.258l.02.024,0,0a7.285,7.285,0,0,0,10.262.02l.02-.02.008,0a7.275,7.275,0,0,0-.008-10.282l0,0Z" transform="translate(566.765 178.129)" fill="#333" fill-rule="evenodd"/>
      <path id="Pfad_85" data-name="Pfad 85" d="M208.457,115.9a1.424,1.424,0,0,1,2.847,0v7.96a1.424,1.424,0,1,1-2.847,0Z" transform="translate(573.259 181.651)" fill="#333" fill-rule="evenodd"/>
      <path id="Pfad_86" data-name="Pfad 86" d="M216.835,115.487a1.424,1.424,0,1,1,0,2.847h-7.96a1.424,1.424,0,0,1,0-2.847Z" transform="translate(570.287 184.626)" fill="#333" fill-rule="evenodd"/>
      <path id="Pfad_87" data-name="Pfad 87" d="M77.28,155.169,37.111,123.72,77.28,92.266v62.9Zm37.271-8.846-28.867-22.6,28.867-22.608Z" transform="translate(67.027 116.021)" fill="#e8f1f2" fill-rule="evenodd"/>
      <path id="Pfad_88" data-name="Pfad 88" d="M59.439,138.919,83.5,120.076,59.439,101.237v37.682Zm-32.015-5.3,17.3-13.544-17.3-13.54Z" transform="translate(38.408 142.525)" fill="#e8f1f2" fill-rule="evenodd"/>
      <path id="Pfad_89" data-name="Pfad 89" d="M242.008,167.582l35.361-35.361L242.008,96.861v70.721Zm-32.814-9.941,25.415-25.419-25.415-25.415Z" transform="translate(575.437 129.597)" fill="#e8f1f2" fill-rule="evenodd"/>
      <path id="Pfad_90" data-name="Pfad 90" d="M243.662,149.315l-21.184-21.184,21.184-21.184v42.368Zm28.183-5.959-15.225-15.225,15.225-15.225Z" transform="translate(614.683 159.395)" fill="#e8f1f2" fill-rule="evenodd"/>
      <path id="Pfad_91" data-name="Pfad 91" d="M253.122,66.582a1.4,1.4,0,1,1,0,2.8H217.868a1.4,1.4,0,0,1,0-2.8Zm-51.934,0a1.4,1.4,0,0,1,0,2.8h-6.972a1.4,1.4,0,0,1,0-2.8Zm-12.658,0a1.4,1.4,0,0,1,0,2.8H178.6a1.4,1.4,0,0,1,0-2.8Z" transform="translate(480.903 40.139)" fill="#e8f1f2" fill-rule="evenodd"/>
      <path id="Pfad_92" data-name="Pfad 92" d="M187.328,71.582a2.649,2.649,0,1,0-2.649-2.649A2.655,2.655,0,0,0,187.328,71.582Z" transform="translate(503.008 39.256)" fill="none" stroke="#b8c6d7" stroke-linecap="round" stroke-miterlimit="22.926" stroke-width="0.709" fill-rule="evenodd"/>
      <path id="Pfad_93" data-name="Pfad 93" d="M220.881,111.287a1.424,1.424,0,1,1,0-2.847c1.467,0,3.243-1.467,5.022-2.934l.079-.063c2.151-1.772,4.306-3.527,6.754-3.527,2.479,0,4.654,1.8,6.829,3.591h.008c1.776,1.467,3.555,2.934,5.022,2.934s3.243-1.467,5.022-2.934l.079-.063c2.151-1.772,4.306-3.527,6.754-3.527,2.479,0,4.654,1.8,6.829,3.591h.008c1.776,1.467,3.555,2.934,5.022,2.934s3.243-1.467,5.022-2.934l.079-.063c2.151-1.772,4.306-3.527,6.754-3.527a1.424,1.424,0,1,1,0,2.847c-1.451,0-3.2,1.424-4.947,2.867l-.075.067c-2.171,1.8-4.35,3.591-6.833,3.591s-4.662-1.8-6.837-3.591l0,0c-1.78-1.467-3.555-2.93-5.026-2.93-1.451,0-3.2,1.424-4.947,2.867l-.075.067c-2.171,1.8-4.35,3.591-6.833,3.591s-4.662-1.8-6.837-3.591l0,0c-1.779-1.467-3.555-2.93-5.026-2.93-1.451,0-3.2,1.424-4.947,2.867l-.075.067C225.543,109.492,223.364,111.287,220.881,111.287Z" transform="translate(605.758 144.528)" fill="#b8c6d7" fill-rule="evenodd"/>
      <path id="Pfad_94" data-name="Pfad 94" d="M39.939,95.571a2.133,2.133,0,0,1,0-4.267H44.8v-4.86a2.131,2.131,0,0,1,4.263,0V91.3H53.93a2.133,2.133,0,0,1,0,4.267H49.066v4.86a2.131,2.131,0,1,1-4.263,0v-4.86Z" transform="translate(69.087 92.524)" fill="#f8951d" fill-rule="evenodd"/>
      <path id="Pfad_95" data-name="Pfad 95" d="M176.054,85.266a19.538,19.538,0,0,1,13.856-13.86,19.52,19.52,0,0,1-13.856-13.856A19.52,19.52,0,0,1,162.2,71.405,19.538,19.538,0,0,1,176.054,85.266Z" transform="translate(436.59 13.452)" fill="#f8951d" fill-rule="evenodd"/>
      <path id="Pfad_96" data-name="Pfad 96" d="M108.621,109.232a22.274,22.274,0,0,1-.652,34.083,12.884,12.884,0,0,1-4.018,2.357,17.358,17.358,0,0,1-5.1,1.246l-33.257,1.115a8.03,8.03,0,0,1-5.588-1.9,8.906,8.906,0,0,1-2.309-3.084,9.5,9.5,0,0,1-.866-3.638,7.963,7.963,0,0,1,.66-3.527c-.166-.119-.332-.245-.494-.38l0,0v0a8.646,8.646,0,0,1-2.412-3.46,7.91,7.91,0,0,1-.34-4.686,7.314,7.314,0,0,1,.6-1.637,7.57,7.57,0,0,1-.708-.471,7.952,7.952,0,0,1-2.464-3.14,7.4,7.4,0,0,1-.459-4.461,8.6,8.6,0,0,1,.977-2.543,8.638,8.638,0,0,1-2.669-4.3,7.5,7.5,0,0,1,.186-4.251,7.59,7.59,0,0,1,2.242-3.314,6.194,6.194,0,0,1,4.283-1.53l23.446,1.06a50.019,50.019,0,0,1-1.511-6.754h0a80.691,80.691,0,0,1-.819-9.59,1.72,1.72,0,0,1,.008-.2c.447-4.793,1.534-8.146,2.95-10.42a8.949,8.949,0,0,1,4.959-4.053h0a8.662,8.662,0,0,1,5.291.146,10.164,10.164,0,0,1,4.215,2.7,1.4,1.4,0,0,1,.356,1.044h0c-.063.846-.119,1.993-.166,3.282-.047,1.38-.095,2.9-.138,4.429a26.848,26.848,0,0,0,3.591,14.264,42.592,42.592,0,0,0,10.108,11.523l.1.091Zm3.088,8.85a19.375,19.375,0,0,0-4.955-6.711l-.051-.04a45.353,45.353,0,0,1-10.76-12.314,29.6,29.6,0,0,1-3.958-15.743c.044-1.578.091-3.128.138-4.449.04-1.068.079-2.009.123-2.74a7.494,7.494,0,0,0-2.6-1.495,5.827,5.827,0,0,0-3.555-.127v0l0,0a6.167,6.167,0,0,0-3.373,2.843c-1.2,1.926-2.131,4.852-2.535,9.115a77.125,77.125,0,0,0,.791,9.162h0A46.111,46.111,0,0,0,83,103.81h0a1.473,1.473,0,0,1,.079.53A1.419,1.419,0,0,1,81.6,105.7L56.1,104.546a3.4,3.4,0,0,0-2.321.866,4.75,4.75,0,0,0-1.5,4.714,6.247,6.247,0,0,0,2.559,3.484l.1.071a1.419,1.419,0,0,1,.277,1.989,6.47,6.47,0,0,0-1.222,2.547,4.6,4.6,0,0,0,.281,2.764,5.028,5.028,0,0,0,1.574,2,3.679,3.679,0,0,0,1.356.672,1.423,1.423,0,0,1,.858,2.321A4.912,4.912,0,0,0,57,128.011a5.1,5.1,0,0,0,.245,3.021,5.681,5.681,0,0,0,1.586,2.3l0,0a2.881,2.881,0,0,0,.969.565,1.415,1.415,0,0,1,.819,2.309,4.558,4.558,0,0,0-.945,3.112,6.675,6.675,0,0,0,.609,2.543,6.071,6.071,0,0,0,1.566,2.1,5.266,5.266,0,0,0,3.666,1.234l33.253-1.115a14.571,14.571,0,0,0,4.144-1.056,10.139,10.139,0,0,0,3.12-1.779q.053-.053.119-.107a19.422,19.422,0,0,0,5.568-23.058Z" transform="translate(103.027 54.386)" fill="#333" fill-rule="evenodd"/>
      <rect id="Rechteck_49" data-name="Rechteck 49" width="10.513" height="43.039" rx="0.218" transform="translate(208.036 157.822)" fill="#f8951d"/>
      <path id="Pfad_97" data-name="Pfad 97" d="M65.311,79.144H74.1a2.269,2.269,0,0,1,1.613.676l0,0a2.281,2.281,0,0,1,.668,1.613v41.316a2.286,2.286,0,0,1-.668,1.609l0,0,0,0a2.29,2.29,0,0,1-1.617.668H65.311a2.29,2.29,0,0,1-1.617-.668c-.044-.047-.083-.091-.123-.142a2.275,2.275,0,0,1-.546-1.475V81.43a2.281,2.281,0,0,1,.668-1.613,1.171,1.171,0,0,1,.13-.115,2.259,2.259,0,0,1,1.487-.558Zm8.225,2.847H65.872v40.193h7.664Z" transform="translate(143.589 77.253)" fill="#333" fill-rule="evenodd"/>
      <rect id="Rechteck_50" data-name="Rechteck 50" width="12.793" height="42.054" transform="translate(218.549 158.314)" fill="#f8951d"/>
      <path id="Pfad_98" data-name="Pfad 98" d="M67.107,79.269H79.9a1.425,1.425,0,0,1,1.424,1.424v42.055a1.428,1.428,0,0,1-1.424,1.424h-12.8a1.428,1.428,0,0,1-1.424-1.424V80.693a1.425,1.425,0,0,1,1.424-1.424Zm11.369,2.847H68.53v39.208h9.945Z" transform="translate(151.442 77.622)" fill="#333" fill-rule="evenodd"/>
      <path id="Pfad_99" data-name="Pfad 99" d="M62.633,76.65a1.421,1.421,0,0,1-1.238,2.558l-8.107-3.915a1.42,1.42,0,0,1,1.234-2.559Z" transform="translate(112.452 57.902)" fill="#333" fill-rule="evenodd"/>
      <path id="Pfad_100" data-name="Pfad 100" d="M61.751,76.449a1.418,1.418,0,1,1-2.733.759L56.982,69.9a1.419,1.419,0,1,1,2.736-.755Z" transform="translate(125.581 44.627)" fill="#333" fill-rule="evenodd"/>
      <path id="Pfad_101" data-name="Pfad 101" d="M64.09,77.2a1.42,1.42,0,1,1-1.724-2.258l6.311-4.84A1.421,1.421,0,0,1,70.4,72.364Z" transform="translate(139.989 49.692)" fill="#333" fill-rule="evenodd"/>
      <path id="Pfad_102" data-name="Pfad 102" d="M102.861,107.874a1.424,1.424,0,1,1,0-2.847H215.93a1.424,1.424,0,0,1,0,2.847Zm0,110.938a1.424,1.424,0,1,1,0-2.847h106.3a1.424,1.424,0,1,1,0,2.847Zm0-12.326a1.424,1.424,0,1,1,0-2.847H215.93a1.424,1.424,0,1,1,0,2.847Zm0-12.326a1.424,1.424,0,1,1,0-2.847H212.185a1.424,1.424,0,1,1,0,2.847Zm0-12.33a1.424,1.424,0,1,1,0-2.847H221.609a1.424,1.424,0,0,1,0,2.847Zm0-12.326a1.424,1.424,0,1,1,0-2.847H212.367a1.424,1.424,0,1,1,0,2.847Zm0-12.326a1.424,1.424,0,1,1,0-2.847H221.609a1.424,1.424,0,0,1,0,2.847Zm0-12.322a1.424,1.424,0,1,1,0-2.847h99.371a1.424,1.424,0,1,1,0,2.847Zm0-12.33a1.424,1.424,0,0,1,0-2.847H210.943a1.424,1.424,0,0,1,0,2.847Zm0-12.326a1.424,1.424,0,1,1,0-2.847h97.592a1.424,1.424,0,0,1,0,2.847Z" transform="translate(257.075 153.723)" fill="#333" fill-rule="evenodd"/>
      <path id="Pfad_103" data-name="Pfad 103" d="M145.9,153.838h50.324l-1.993-9.578a6.425,6.425,0,0,0-5.627-5.153l-6.984-.819L171.066,145.6l-10.558-7.312-6.984.819a6.437,6.437,0,0,0-5.627,5.153l-1.993,9.578Zm25.162-48.909c6.754,0,12.227,5.319,12.227,13.619s-5.473,16.439-12.227,16.439-12.227-8.138-12.227-16.439S164.312,104.929,171.066,104.929Z" transform="translate(388.45 153.433)" fill="#f8951d" fill-rule="evenodd"/>
      <path id="Pfad_104" data-name="Pfad 104" d="M244.416,105.514H141.047V159.1H244.416V105.514Zm-104.793-2.847H245.84a1.425,1.425,0,0,1,1.424,1.424v56.43a1.425,1.425,0,0,1-1.424,1.424H139.624a1.423,1.423,0,0,1-1.424-1.424v-56.43A1.423,1.423,0,0,1,139.624,102.667Z" transform="translate(365.689 146.75)" fill="#333" fill-rule="evenodd"/>
      <rect id="Rechteck_51" data-name="Rechteck 51" width="106.216" height="56.429" transform="translate(505.311 320.504)" fill="#fff"/>
      <path id="Pfad_105" data-name="Pfad 105" d="M244.416,123.13H141.047v53.583H244.416V123.13Zm-104.793-2.847H245.84a1.428,1.428,0,0,1,1.424,1.424v56.43a1.425,1.425,0,0,1-1.424,1.424H139.624a1.423,1.423,0,0,1-1.424-1.424v-56.43A1.425,1.425,0,0,1,139.624,120.283Z" transform="translate(365.689 198.795)" fill="#333" fill-rule="evenodd"/>
      <g id="Gruppe_135" data-name="Gruppe 135" transform="translate(383.947 246.906)">
        <path id="Pfad_106" data-name="Pfad 106" d="M171.5,104.879h-62.2a1.424,1.424,0,0,1,0-2.847h62.2a1.424,1.424,0,0,1,0,2.847Z" transform="translate(-107.869 -102.032)" fill="#fff"/>
      </g>
      <path id="Pfad_107" data-name="Pfad 107" d="M256.2,135.894H236.58a26.213,26.213,0,0,1-11.393,21.682,20.328,20.328,0,0,0,22.888-.281C254.924,152.507,257.123,147.184,256.2,135.894Z" transform="translate(622.687 244.917)" fill="#e8f1f2" fill-rule="evenodd"/>
      <path id="Pfad_108" data-name="Pfad 108" d="M247.69,167.126H228.068V130a4.668,4.668,0,0,1,6.137-4.429A19.7,19.7,0,0,1,247.69,144.2Z" transform="translate(631.199 213.685)" fill="#e8f1f2" fill-rule="evenodd"/>
      <rect id="Rechteck_52" data-name="Rechteck 52" width="22.998" height="5.186" transform="translate(855.556 425.438)" fill="#b8c6d7"/>
      <g id="Gruppe_136" data-name="Gruppe 136" transform="translate(832.463 374.706)">
        <path id="Pfad_109" data-name="Pfad 109" d="M272.049,135.774a1.424,1.424,0,1,1,2.847,0V146.19a26.771,26.771,0,0,1-45.733,18.93l-.071-.075a26.722,26.722,0,0,1-7.8-18.855V135.774a1.424,1.424,0,1,1,2.847,0V146.19a23.879,23.879,0,0,0,6.972,16.854l.067.063a23.954,23.954,0,0,0,40.873-16.917V135.774Zm-42.957,29.271.071-1.938A1.427,1.427,0,0,0,229.092,165.044Z" transform="translate(-221.29 -134.35)" fill="#333" fill-rule="evenodd"/>
      </g>
      <path id="Pfad_110" data-name="Pfad 110" d="M243.789,124.776h0a21.1,21.1,0,0,1,21.046,21.042v28.658a21.1,21.1,0,0,1-21.046,21.042h0a21.1,21.1,0,0,1-21.042-21.042V145.818a21.1,21.1,0,0,1,21.042-21.042Zm0,2.847h0a18.254,18.254,0,0,0-18.194,18.194v28.658a18.248,18.248,0,0,0,18.194,18.194h0a18.248,18.248,0,0,0,18.2-18.194V145.818a18.254,18.254,0,0,0-18.2-18.194Z" transform="translate(615.478 212.07)" fill="#333" fill-rule="evenodd"/>
      <path id="Pfad_111" data-name="Pfad 111" d="M222.239,138.384a1.426,1.426,0,0,1,0-2.851h54.52a1.426,1.426,0,0,1,0,2.851Z" transform="translate(609.77 243.851)" fill="#333" fill-rule="evenodd"/>
      <path id="Pfad_112" data-name="Pfad 112" d="M225.83,152.007h34.522v-2.341H225.83v2.341Zm35.946,2.847H224.407a1.428,1.428,0,0,1-1.424-1.424v-5.188a1.425,1.425,0,0,1,1.424-1.424h37.369a1.423,1.423,0,0,1,1.424,1.424v5.188A1.425,1.425,0,0,1,261.776,154.854Z" transform="translate(616.175 277.195)" fill="#333" fill-rule="evenodd"/>
      <path id="Pfad_113" data-name="Pfad 113" d="M241.281,129.789a3.177,3.177,0,0,1-6.355,0c0-4.18,6.355-4.18,6.355,0Zm7.074,19.132a3.177,3.177,0,1,1-3.175,3.179,3.18,3.18,0,0,1,3.175-3.179Zm0-8.909a3.177,3.177,0,1,1-3.175,3.179,3.179,3.179,0,0,1,3.175-3.179Zm0-8.909a3.177,3.177,0,1,1-3.175,3.175,3.179,3.179,0,0,1,3.175-3.175Zm-20.508,17.819a3.177,3.177,0,1,1-3.175,3.179,3.18,3.18,0,0,1,3.175-3.179Zm0-8.909a3.177,3.177,0,1,1-3.175,3.179,3.18,3.18,0,0,1,3.175-3.179Zm0-8.909a3.177,3.177,0,1,1-3.175,3.175,3.179,3.179,0,0,1,3.175-3.175Zm10.254,22.24a3.177,3.177,0,1,1-3.175,3.175,3.179,3.179,0,0,1,3.175-3.175Zm0-8.909a3.177,3.177,0,1,1-3.175,3.175,3.179,3.179,0,0,1,3.175-3.175Zm0-8.909a3.175,3.175,0,1,1-3.175,3.175A3.176,3.176,0,0,1,238.1,135.523Z" transform="translate(621.165 217.619)" fill="#333" fill-rule="evenodd"/>
      <path id="Pfad_114" data-name="Pfad 114" d="M226.981,144.826a1.424,1.424,0,1,1,2.847,0v13.512a1.424,1.424,0,1,1-2.847,0Z" transform="translate(627.987 267.099)" fill="#333" fill-rule="evenodd"/>
      <path id="Pfad_115" data-name="Pfad 115" d="M228.436,144.826a1.424,1.424,0,1,1,2.847,0v13.512a1.424,1.424,0,0,1-2.847,0Z" transform="translate(632.286 267.099)" fill="#333" fill-rule="evenodd"/>
      <rect id="Rechteck_53" data-name="Rechteck 53" width="121.264" height="98.954" transform="translate(393.204 79.483)" fill="#fff"/>
      <path id="Pfad_116" data-name="Pfad 116" d="M111.274,59.334H232.537a1.423,1.423,0,0,1,1.424,1.424v98.956a1.425,1.425,0,0,1-1.424,1.424H111.274a1.425,1.425,0,0,1-1.424-1.424V60.758a1.423,1.423,0,0,1,1.424-1.424Zm119.839,2.847H112.7V158.29H231.113Z" transform="translate(281.931 18.725)" fill="#333" fill-rule="evenodd"/>
      <path id="Pfad_117" data-name="Pfad 117" d="M112.77,142.443h9.212l28.729-6.148,51.586,6.148h11.493V62.04H112.77Z" transform="translate(290.556 26.719)" fill="#f8951d" fill-rule="evenodd"/>
      <path id="Pfad_118" data-name="Pfad 118" d="M146.708,68.411l-22.861,55.208h45.721L146.708,68.411Z" transform="translate(323.284 45.543)" fill="#fff" fill-rule="evenodd"/>
      <path id="Pfad_119" data-name="Pfad 119" d="M146.709,68.411l-22.862,55.207h22.862Z" transform="translate(323.283 45.544)" fill="#e8f1f2" fill-rule="evenodd"/>
      <path id="Pfad_120" data-name="Pfad 120" d="M143.828,64.829,115.1,134.2h57.454L143.828,64.829Z" transform="translate(297.438 34.96)" fill="#fff" fill-rule="evenodd"/>
      <path id="Pfad_121" data-name="Pfad 121" d="M143.827,64.829,115.1,134.2h28.727Z" transform="translate(297.439 34.96)" fill="#e8f1f2" fill-rule="evenodd"/>
      <path id="Pfad_122" data-name="Pfad 122" d="M150.488,83.443H114.451a9.286,9.286,0,0,1,11.59-9.1,6.941,6.941,0,1,1,13.872-.253,9.126,9.126,0,0,1,10.574,9.348Z" transform="translate(295.523 41.516)" fill="#fff" fill-rule="evenodd"/>
      <path id="Pfad_123" data-name="Pfad 123" d="M157.262,84.626H128.355a7.451,7.451,0,0,1,9.3-7.3,5.568,5.568,0,1,1,11.128-.2,7.323,7.323,0,0,1,8.482,7.5Z" transform="translate(336.602 54.593)" fill="#fff" fill-rule="evenodd"/>
      <rect id="Rechteck_54" data-name="Rechteck 54" width="189.814" height="31.437" transform="translate(551.302 156.328)" fill="#f8951d"/>
      <path id="Pfad_124" data-name="Pfad 124" d="M193.286,98.789h44.072v3.334a126.625,126.625,0,0,0,68.621-27.8v31.817h5.75l4.457,4.457v18.155l-4.457,4.457h-5.75V165.03c-15.327-10.234-31.343-20.16-51.392-25.043l-.02,0a132.886,132.886,0,0,0-17.21-2.752v3.334H226.645a20.85,20.85,0,0,0,7.407,13.647q.255.231.522.451c-1.961,2.444-3.867,3.9-7.189,4.287a7.718,7.718,0,0,0,3.757,1.681c-5.1,5.113,5.967,21.247,6.691,26.515.34,2.531-19.654,6.667-24,6.7-12.733-5.809-3.95-32.154-12.243-48.695a23.3,23.3,0,0,0-2.994-4.583h-5.311v-3.017a2.281,2.281,0,0,1-.368,0,7.122,7.122,0,0,1-1.562-.123l-.016,0a9.85,9.85,0,0,1-8.237-9.688V111.625a9.842,9.842,0,0,1,9.815-9.815h.368Z" transform="translate(498.352 63.021)" fill="#f4f6f8" fill-rule="evenodd"/>
      <path id="Pfad_125" data-name="Pfad 125" d="M219.687,86.992a1.42,1.42,0,1,1-1.281-2.535l21.251-10.784a1.42,1.42,0,0,1,1.281,2.535Z" transform="translate(600.347 60.634)" fill="#333" fill-rule="evenodd"/>
      <path id="Pfad_126" data-name="Pfad 126" d="M222.658,88.236a1.424,1.424,0,1,1,0-2.847h26.008a1.424,1.424,0,0,1,0,2.847Z" transform="translate(611.008 95.703)" fill="#333" fill-rule="evenodd"/>
      <path id="Pfad_127" data-name="Pfad 127" d="M219.624,96.144a1.422,1.422,0,0,1,1.091-2.626l20.615,8.565a1.421,1.421,0,0,1-1.087,2.626Z" transform="translate(603.665 119.399)" fill="#333" fill-rule="evenodd"/>
      <path id="Pfad_128" data-name="Pfad 128" d="M224.385,85.8h-10.21V99.332h5.3l4.905-4.9Z" transform="translate(590.154 96.904)" fill="#f8951d" fill-rule="evenodd"/>
      <path id="Pfad_129" data-name="Pfad 129" d="M237.358,87.369H183.1v1.613c0,5.259,5.006,10.353,10.183,10.032l.443,2.82a9.251,9.251,0,0,0,2.424.2h41.205Z" transform="translate(498.352 101.553)" fill="#f8951d" fill-rule="evenodd"/>
      <path id="Pfad_130" data-name="Pfad 130" d="M196.823,86.53c26.424-.376,51.965,4.611,68.621,15.838v26.665c-19.472-13-40.054-25.506-68.621-27.8Z" transform="translate(538.887 99.015)" fill="#f8951d" fill-rule="evenodd"/>
      <path id="Pfad_131" data-name="Pfad 131" d="M198.017,104.595a1.418,1.418,0,1,1-.269-2.823A127.461,127.461,0,0,0,233.8,93.064a125.945,125.945,0,0,0,31.81-18.784,1.419,1.419,0,0,1,1.993.217,1.4,1.4,0,0,1,.312.89h.008v90.7h-.008a1.4,1.4,0,0,1-.312.89,1.416,1.416,0,0,1-1.993.217A126.179,126.179,0,0,0,233.8,148.41a127.461,127.461,0,0,0-36.057-8.708,1.418,1.418,0,0,1,.269-2.823,130.444,130.444,0,0,1,36.855,8.894,128.492,128.492,0,0,1,30.208,17.384V78.318A128.441,128.441,0,0,1,234.869,95.7,130.247,130.247,0,0,1,198.017,104.595Z" transform="translate(537.828 61.961)" fill="#333" fill-rule="evenodd"/>
      <path id="Pfad_132" data-name="Pfad 132" d="M215.24,82.012h5.75a1.429,1.429,0,0,1,1.008.419l4.457,4.457a1.425,1.425,0,0,1,.415,1.008h0v18.155a1.433,1.433,0,0,1-.415,1.008L222,111.516a1.425,1.425,0,0,1-1.008.415h-5.75a1.423,1.423,0,0,1-1.424-1.424V83.44a1.426,1.426,0,0,1,1.424-1.428Zm5.161,2.851h-3.737v24.225H220.4l3.622-3.626V88.485Z" transform="translate(589.092 85.726)" fill="#333" fill-rule="evenodd"/>
      <path id="Pfad_133" data-name="Pfad 133" d="M198.277,91.077a20.907,20.907,0,0,0,7.4,13.655c-1.961,2.444-3.867,3.9-7.193,4.287-3.674-3.29-6.327-10-5.686-17.941Z" transform="translate(526.72 112.508)" fill="#f8951d" fill-rule="evenodd"/>
      <path id="Pfad_134" data-name="Pfad 134" d="M187.778,92.236q22.178,16.259,12.247,48.695C187.292,135.122,196.07,108.777,187.778,92.236Z" transform="translate(512.164 115.932)" fill="#f8951d" fill-rule="evenodd"/>
      <path id="Pfad_135" data-name="Pfad 135" d="M187,93.052a1.416,1.416,0,1,1,2.167-1.823c6.79,8.067,7.237,19.717,7.644,30.327.391,10.206.739,19.389,6.813,22.434.55-.024,1.313-.1,2.23-.229a114.065,114.065,0,0,0,13.038-2.693c3.769-1.02,6.833-1.95,7.007-2.254-.245-1.511-1.5-4.219-2.93-7.3-2.887-6.228-6.414-13.841-4.563-18.451-2.626-1.08-5.018-3.539-6.707-6.94a27.084,27.084,0,0,1-2.46-14.094,1.422,1.422,0,0,1,2.835.221,24.25,24.25,0,0,0,2.171,12.615c1.685,3.385,4.085,5.592,6.509,5.924a1.387,1.387,0,0,1,.874.407,1.422,1.422,0,0,1,.008,2.009c-2.744,2.752.961,10.748,3.915,17.119,1.518,3.286,2.863,6.177,3.16,8.1a1.53,1.53,0,0,1,.028.194l0,.059h0l0,.095c.012,1.89-4.061,3.674-9.107,5.042a117.527,117.527,0,0,1-13.4,2.76,25.239,25.239,0,0,1-2.887.257h-.02a1.332,1.332,0,0,1-.6-.127c-7.937-3.622-8.324-13.761-8.759-25.047C193.579,111.511,193.152,100.371,187,93.052Z" transform="translate(508.87 111.447)" fill="#333" fill-rule="evenodd"/>
      <path id="Pfad_136" data-name="Pfad 136" d="M193.9,92.438a1.419,1.419,0,0,1,2.812-.38,20.689,20.689,0,0,0,2.278,7.134l.036.075a19.29,19.29,0,0,0,4.6,5.548,1.422,1.422,0,0,1,.178,2l-.028.028a13.9,13.9,0,0,1-3.393,3.175,10.907,10.907,0,0,1-4.7,1.582,1.423,1.423,0,0,1-.32-2.827,8.115,8.115,0,0,0,3.512-1.159,9.6,9.6,0,0,0,1.855-1.578,21.837,21.837,0,0,1-4.192-5.414l-.044-.075A23.573,23.573,0,0,1,193.9,92.438Z" transform="translate(530.218 111.78)" fill="#333" fill-rule="evenodd"/>
      <path id="Pfad_137" data-name="Pfad 137" d="M188,94.444a1.422,1.422,0,0,1,1.681-2.294q11.5,8.435,14.691,21.1,3.156,12.546-1.93,29.148a1.415,1.415,0,1,1-2.709-.823q4.846-15.838,1.878-27.634Q198.679,102.268,188,94.444Z" transform="translate(511.102 114.871)" fill="#333" fill-rule="evenodd"/>
      <path id="Pfad_138" data-name="Pfad 138" d="M225.408,78.3a1.421,1.421,0,0,1,1.534,2.392,76.574,76.574,0,0,1-8.36,4.615,97.944,97.944,0,0,1-9.6,3.923,1.42,1.42,0,0,1-.937-2.681,94.156,94.156,0,0,0,9.321-3.812A73.278,73.278,0,0,0,225.408,78.3Z" transform="translate(569.243 74.089)" fill="#333" fill-rule="evenodd"/>
      <path id="Pfad_139" data-name="Pfad 139" d="M194.349,80.917a1.424,1.424,0,1,1,0,2.847h-.368a8.411,8.411,0,0,0-8.391,8.391v16.106a8.351,8.351,0,0,0,2.46,5.924l0,0v0a8.371,8.371,0,0,0,5.928,2.468h.368a1.424,1.424,0,1,1,0,2.847h-.368a11.21,11.21,0,0,1-7.941-3.3l0,0a11.2,11.2,0,0,1-3.3-7.933V92.156a11.26,11.26,0,0,1,11.239-11.239Z" transform="translate(497.289 82.491)" fill="#333" fill-rule="evenodd"/>
      <path id="Pfad_140" data-name="Pfad 140" d="M229.39,83H188.165v38.928H229.39V83Zm-42.649-2.847h44.072a1.425,1.425,0,0,1,1.424,1.424v41.775a1.423,1.423,0,0,1-1.424,1.424H186.742a1.423,1.423,0,0,1-1.424-1.424V81.577A1.425,1.425,0,0,1,186.742,80.153Z" transform="translate(504.896 80.234)" fill="#333" fill-rule="evenodd"/>
      <path id="Pfad_141" data-name="Pfad 141" d="M63.8,68.8a1.424,1.424,0,1,1,0-2.847c1.625,0,3.559-1.594,5.493-3.187,2.329-1.922,4.658-3.848,7.292-3.848s4.963,1.926,7.292,3.848c1.93,1.594,3.864,3.187,5.493,3.187s3.555-1.594,5.481-3.187l.083-.063c2.305-1.9,4.611-3.784,7.217-3.784,2.634,0,4.967,1.926,7.292,3.848,1.934,1.594,3.867,3.187,5.493,3.187s3.559-1.594,5.489-3.187c2.329-1.922,4.658-3.848,7.3-3.848a1.424,1.424,0,0,1,0,2.847c-1.629,0-3.559,1.6-5.493,3.191-2.329,1.922-4.658,3.844-7.292,3.844s-4.967-1.922-7.3-3.844c-1.93-1.594-3.863-3.191-5.489-3.191-1.6,0-3.5,1.55-5.41,3.124l-.075.067C94.338,66.874,92,68.8,89.367,68.8s-4.967-1.922-7.3-3.844c-1.93-1.594-3.864-3.191-5.489-3.191s-3.559,1.6-5.493,3.191C68.764,66.874,66.431,68.8,63.8,68.8Z" transform="translate(141.665 17.484)" fill="#e8f1f2" fill-rule="evenodd"/>
      <path id="Pfad_142" data-name="Pfad 142" d="M203.5,126.766H214.42v-6.181a1.463,1.463,0,0,1,1.459-1.459h13.532a1.463,1.463,0,0,1,1.459,1.459v6.181h67.807a17.445,17.445,0,0,1,17.4,17.4v73.683a17.448,17.448,0,0,1-17.4,17.4H203.5a17.447,17.447,0,0,1-17.4-17.4V144.162A17.444,17.444,0,0,1,203.5,126.766Z" transform="translate(507.213 195.377)" fill="#f4f6f8" fill-rule="evenodd"/>
      <path id="Pfad_143" data-name="Pfad 143" d="M192.225,141.2h11.808a4.512,4.512,0,0,1,4.5,4.5h0a4.512,4.512,0,0,1-4.5,4.5h-16.3v-4.5A4.512,4.512,0,0,1,192.225,141.2Z" transform="translate(512.019 260.588)" fill="#e8f1f2" fill-rule="evenodd"/>
      <rect id="Rechteck_55" data-name="Rechteck 55" width="21.039" height="6.765" rx="0.436" transform="translate(750.93 332.68)" fill="#e8f1f2"/>
      <path id="Pfad_144" data-name="Pfad 144" d="M251.181,122.928a16.933,16.933,0,0,1,3.029,9.677v23.054H216.552a33.585,33.585,0,0,0-9.51-9.056V135.329a12.426,12.426,0,0,1,12.4-12.4Zm3.029,40.126v43.882a17.122,17.122,0,0,1-17.071,17.075h-17.7a12.426,12.426,0,0,1-12.4-12.4v-8.526a33.42,33.42,0,0,0,13.429-40.031Z" transform="translate(569.079 206.61)" fill="#f8951d" fill-rule="evenodd"/>
      <path id="Pfad_145" data-name="Pfad 145" d="M204.561,120.7h95.179a18.868,18.868,0,0,1,18.823,18.819V213.2a18.875,18.875,0,0,1-18.823,18.823H204.561A18.868,18.868,0,0,1,185.742,213.2V139.517A18.862,18.862,0,0,1,204.561,120.7Zm95.179,2.843H204.561a16.019,16.019,0,0,0-15.972,15.976V213.2a16.02,16.02,0,0,0,15.972,15.976h95.179A16.026,16.026,0,0,0,315.717,213.2V139.517a16.026,16.026,0,0,0-15.976-15.976Z" transform="translate(506.149 200.022)" fill="#333" fill-rule="evenodd"/>
      <rect id="Rechteck_56" data-name="Rechteck 56" width="8.224" height="7.638" transform="translate(729.858 314.503)" fill="#e8f1f2"/>
      <path id="Pfad_146" data-name="Pfad 146" d="M195.75,126.406h13.6v-4.757l-.012-.024-.024-.012H195.786l-.024.012-.012.024v4.757Zm15.027,2.843h-16.45a1.424,1.424,0,0,1-1.424-1.42v-6.181a2.889,2.889,0,0,1,2.883-2.883h13.532a2.889,2.889,0,0,1,2.883,2.883v6.181A1.422,1.422,0,0,1,210.777,129.249Z" transform="translate(527.306 194.314)" fill="#333" fill-rule="evenodd"/>
      <path id="Pfad_147" data-name="Pfad 147" d="M202.773,122.463h22.074a4.036,4.036,0,0,1,2.859,1.19l0,0,.032.032a4.045,4.045,0,0,1,1.159,2.827v5.062a4.036,4.036,0,0,1-1.19,2.859l0,.008-.028.024a4.038,4.038,0,0,1-2.831,1.167H202.773a4.059,4.059,0,0,1-2.859-1.19l0-.008-.028-.024a4.043,4.043,0,0,1-1.163-2.835v-5.062a4.049,4.049,0,0,1,1.186-2.859l.008,0,.032-.032a4.038,4.038,0,0,1,2.827-1.159Zm22.074,2.847H202.773a1.223,1.223,0,0,0-.846.344l0,0-.008.008a1.219,1.219,0,0,0-.348.85v5.062a1.207,1.207,0,0,0,.328.83l.02.024.008,0a1.208,1.208,0,0,0,.85.352h22.074a1.192,1.192,0,0,0,.831-.332l.02-.02.008,0a1.214,1.214,0,0,0,.348-.854v-5.062a1.206,1.206,0,0,0-.344-.846l0,0-.008-.008A1.212,1.212,0,0,0,224.847,125.31Z" transform="translate(544.492 205.236)" fill="#333" fill-rule="evenodd"/>
      <path id="Pfad_148" data-name="Pfad 148" d="M228.547,127.253a34.813,34.813,0,1,1-24.616,10.195,34.7,34.7,0,0,1,24.616-10.195Zm22.6,12.207a31.963,31.963,0,1,0,9.364,22.608A31.881,31.881,0,0,0,251.151,139.46Z" transform="translate(529.755 219.388)" fill="#333" fill-rule="evenodd"/>
      <path id="Pfad_149" data-name="Pfad 149" d="M218.608,130.617A21.51,21.51,0,1,1,197.1,152.129,21.512,21.512,0,0,1,218.608,130.617Z" transform="translate(539.694 229.327)" fill="#e8f1f2" fill-rule="evenodd"/>
      <g id="Gruppe_137" data-name="Gruppe 137" transform="translate(735.366 358.516)">
        <path id="Pfad_150" data-name="Pfad 150" d="M219.672,130.256a22.865,22.865,0,0,1,16.213,6.723l0,0a22.936,22.936,0,0,1,0,32.438l-.079.071a22.933,22.933,0,1,1-16.138-39.228Zm14.2,8.727a20.086,20.086,0,1,0-.063,28.484l.063-.071a20.087,20.087,0,0,0,0-28.409h0l0,0Zm1.934,30.5-1.934-.071A1.426,1.426,0,0,0,235.81,169.484Z" transform="translate(-196.736 -130.256)" fill="#333" fill-rule="evenodd"/>
      </g>
      <path id="Pfad_151" data-name="Pfad 151" d="M187.166,139.694h21.014a8.164,8.164,0,0,1,5.781,2.4l.071.075a8.155,8.155,0,0,1,2.333,5.706v0a8.163,8.163,0,0,1-2.4,5.781l-.075.071a8.157,8.157,0,0,1-5.71,2.333H187.166a1.423,1.423,0,0,1-1.424-1.424V141.118a1.423,1.423,0,0,1,1.424-1.424Zm21.014,2.847h-19.59v10.677h19.59a5.323,5.323,0,0,0,3.709-1.5l.059-.067a5.311,5.311,0,0,0,1.57-3.769v0a5.306,5.306,0,0,0-1.5-3.705l-.067-.063A5.324,5.324,0,0,0,208.179,142.541Z" transform="translate(506.149 256.144)" fill="#333" fill-rule="evenodd"/>
      <path id="Pfad_152" data-name="Pfad 152" d="M187.166,133.692a1.424,1.424,0,1,1,0-2.847H224.82a1.424,1.424,0,1,1,0,2.847Zm92.316,0a1.424,1.424,0,1,1,0-2.847H317.14a1.424,1.424,0,1,1,0,2.847Z" transform="translate(506.149 230)" fill="#333" fill-rule="evenodd"/>
      <path id="Pfad_153" data-name="Pfad 153" d="M204.631,152.784a1.422,1.422,0,1,1-2.135,1.878,13.2,13.2,0,0,1,.569-18.076l.083-.079a13.185,13.185,0,0,1,9.261-3.792,1.424,1.424,0,1,1,0,2.847,10.349,10.349,0,0,0-7.268,2.97l-.063.067a10.367,10.367,0,0,0-2.369,10.993A10.45,10.45,0,0,0,204.631,152.784Z" transform="translate(545.892 235.525)" fill="#333" fill-rule="evenodd"/>
      <path id="Pfad_154" data-name="Pfad 154" d="M210.878,136.738a1.419,1.419,0,0,1,2.756-.676,13.208,13.208,0,0,1-8.652,15.707,1.418,1.418,0,0,1-.89-2.693,10.371,10.371,0,0,0,6.786-12.338Z" transform="translate(557.488 242.219)" fill="#333" fill-rule="evenodd"/>
      <rect id="Rechteck_57" data-name="Rechteck 57" width="302.918" height="19.623" transform="translate(328.068 212.63)" fill="#e8f1f2"/>
      <path id="Pfad_155" data-name="Pfad 155" d="M94.8,93H397.72a1.423,1.423,0,0,1,1.424,1.424v19.626a1.422,1.422,0,0,1-1.424,1.42H94.8a1.424,1.424,0,0,1-1.424-1.42V94.428A1.425,1.425,0,0,1,94.8,93ZM396.3,95.851H96.225V112.63H396.3Z" transform="translate(233.265 118.201)" fill="#333" fill-rule="evenodd"/>
      <path id="Pfad_156" data-name="Pfad 156" d="M167.634,94.648a5.056,5.056,0,0,1,3.591,1.491l.008,0,.028.032a5.069,5.069,0,0,1-.028,7.154l-.008.008-.028.028a5.084,5.084,0,0,1-7.158-.028l0-.008-.028-.028a5.074,5.074,0,0,1,.028-7.158l0,0,.032-.028a5.078,5.078,0,0,1,3.563-1.463Zm1.59,3.5,0,0a2.253,2.253,0,0,0-3.156-.016l-.016.016,0,0a2.254,2.254,0,0,0-.016,3.156l.016.016,0,0a2.254,2.254,0,0,0,3.156.016l.016-.016,0,0a2.254,2.254,0,0,0,.016-3.156l-.016-.016Zm13.2-3.5a5.066,5.066,0,0,1,3.595,1.491l0,0,.028.032a5.07,5.07,0,0,1-.028,7.154l0,.008-.032.028a5.079,5.079,0,0,1-7.154-.028l-.008-.008-.028-.028a5.084,5.084,0,0,1,.028-7.158l.008,0,.028-.028a5.078,5.078,0,0,1,3.563-1.463Zm1.594,3.5-.008,0a2.254,2.254,0,0,0-3.156-.016l-.016.016,0,0a2.258,2.258,0,0,0-.012,3.156l.012.016,0,0a2.258,2.258,0,0,0,3.16.016l.012-.016.008,0a2.258,2.258,0,0,0,.012-3.156Z" transform="translate(437.615 123.058)" fill="#333" fill-rule="evenodd"/>
      <path id="Pfad_157" data-name="Pfad 157" d="M35.907,200.267,35.7,136.526c2.436-3.709,5.493-5.564,8.332-5.572v69.3Z" transform="translate(62.862 230.322)" fill="#e8f1f2" fill-rule="evenodd"/>
      <path id="Pfad_158" data-name="Pfad 158" d="M48.517,136.5l.206,63.742-17.15.04-.21-63.746C36.239,129.122,43.6,129.106,48.517,136.5Z" transform="translate(50.045 230.351)" fill="#f8951d" fill-rule="evenodd"/>
      <path id="Pfad_159" data-name="Pfad 159" d="M65.751,132.015v69.3a1.423,1.423,0,0,1-1.424,1.424l-.119-.008-33.735.075a1.417,1.417,0,0,1-1.416-1.416l-.225-69.3a1.42,1.42,0,0,1,1.416-1.42h.04a9.85,9.85,0,0,1,5.323,1.645,14.4,14.4,0,0,1,3.227,2.918,14.287,14.287,0,0,1,3.1-2.863,9.513,9.513,0,0,1,10.918-.028,14.342,14.342,0,0,1,3.128,2.855,14.571,14.571,0,0,1,3.132-2.9,9.425,9.425,0,0,1,5.208-1.7,1.421,1.421,0,0,1,1.42,1.42ZM62.9,199.9V133.628a7.634,7.634,0,0,0-2.207,1.028,12.985,12.985,0,0,0-3.476,3.646,1.383,1.383,0,0,1-.443.467,1.422,1.422,0,0,1-1.969-.4,12.673,12.673,0,0,0-3.508-3.654,6.661,6.661,0,0,0-7.79.024,12.648,12.648,0,0,0-3.44,3.595,1.407,1.407,0,0,1-.443.475,1.425,1.425,0,0,1-1.969-.4,12.694,12.694,0,0,0-3.583-3.7,7.578,7.578,0,0,0-2.4-1.036l.217,66.292Z" transform="translate(42.568 229.262)" fill="#333" fill-rule="evenodd"/>
      <path id="Pfad_160" data-name="Pfad 160" d="M31.005,133.433a1.418,1.418,0,1,1,2.835,0l.206,63.746a1.418,1.418,0,0,1-2.835,0Z" transform="translate(48.988 233.451)" fill="#333" fill-rule="evenodd"/>
      <path id="Pfad_161" data-name="Pfad 161" d="M35.342,133.424a1.42,1.42,0,0,1,2.839,0l.206,63.742a1.418,1.418,0,1,1-2.835,0Z" transform="translate(61.801 233.424)" fill="#333" fill-rule="evenodd"/>
      <path id="Pfad_162" data-name="Pfad 162" d="M31.549,161.511a1.417,1.417,0,0,1-2.6-1.123l16.8-38.706a1.416,1.416,0,0,1,2.594-.016h0L65.625,160.3a1.42,1.42,0,0,1-2.594,1.155L47.07,125.763Z" transform="translate(42.567 200.402)" fill="#333" fill-rule="evenodd"/>
      <path id="Pfad_163" data-name="Pfad 163" d="M40.652,121.682l6.636,14.924a1.415,1.415,0,0,1-.724,1.866,1.4,1.4,0,0,1-.573.123h0l-13.133.032a1.419,1.419,0,0,1-1.289-2.013l6.481-14.932a1.417,1.417,0,0,1,2.6,0Zm3.16,14.082-4.445-10-4.346,10.017Z" transform="translate(50.267 200.402)" fill="#333" fill-rule="evenodd"/>
      <path id="Pfad_164" data-name="Pfad 164" stroke="#f4f6f8" d="M82.729,92.623a9.372,9.372,0,1,0-9.376-9.372A9.389,9.389,0,0,0,82.729,92.623Z" fill="none" transform="translate(174.102 61.698)" stroke-linecap="round" stroke-linejoin="round" stroke-width="0.72" fill-rule="evenodd"/>
      <g id="Gruppe_138" data-name="Gruppe 138" transform="translate(255.404 139.234)">
        <path id="Pfad_165" data-name="Pfad 165" d="M76.787,86.232a1.423,1.423,0,0,1-1.424-1.424V76.228a1.424,1.424,0,1,1,2.847,0v8.581A1.423,1.423,0,0,1,76.787,86.232Z" transform="translate(-75.363 -74.804)" fill="#f8951d"/>
      </g>
      <g id="Gruppe_139" data-name="Gruppe 139" transform="translate(251.117 143.525)">
        <path id="Pfad_166" data-name="Pfad 166" d="M84.284,78.736H75.7a1.424,1.424,0,1,1,0-2.847h8.581a1.424,1.424,0,0,1,0,2.847Z" transform="translate(-74.279 -75.889)" fill="#fff"/>
      </g>
      <path id="Pfad_167" data-name="Pfad 167" d="M156.792,115.691a29.116,29.116,0,0,0-3.341.19,24.389,24.389,0,0,0-44.527-19.2,14.708,14.708,0,0,0-14.105,24.79,26.8,26.8,0,0,0,5.338,53.069h56.636a29.423,29.423,0,1,0,0-58.846Z" transform="translate(174.102 92.524)" fill="#fff" fill-rule="evenodd"/>
      <path id="Pfad_168" data-name="Pfad 168" d="M157.855,118.179c-.581,0-1.115.016-1.606.04-.51.032-1.036.075-1.574.138a1.422,1.422,0,0,1-1.574-1.25,1.385,1.385,0,0,1,.079-.652,22.88,22.88,0,0,0-3.488-20.3,22.839,22.839,0,0,0-11.677-8.344,22.993,22.993,0,0,0-26.8,10.633,1.418,1.418,0,0,1-1.637.66,13.255,13.255,0,0,0-11.555,2.242l-.087.059a13.228,13.228,0,0,0-4.69,6.944,13.286,13.286,0,0,0,3.614,13.16,1.421,1.421,0,0,1-.763,2.428,25.39,25.39,0,0,0-12.836,42.811h.008a25.294,25.294,0,0,0,17.945,7.43h56.636a28,28,0,1,0,0-56Zm-1.455-2.812c.51-.024.993-.036,1.455-.036a30.847,30.847,0,0,1,0,61.693H101.22a28.157,28.157,0,0,1-19.962-8.265l0,0a28.227,28.227,0,0,1,11.994-47.034,16.1,16.1,0,0,1,2.958-22.568l.1-.079A16,16,0,0,1,109.3,96.117a25.8,25.8,0,0,1,47.1,19.25Z" transform="translate(173.039 91.461)" fill="#333" fill-rule="evenodd"/>
      <path id="Pfad_169" data-name="Pfad 169" d="M163.286,90.507a1.419,1.419,0,1,1,2.456-1.424l15.248,26.408.04.079a4.722,4.722,0,0,0,4.67,2.582,4.805,4.805,0,0,0,1.87-.625l.067-.036a5,5,0,0,0,1.416-1.277,4.747,4.747,0,0,0,.055-5.41l-.044-.083L168.747,75.527l-.02-.028a9.927,9.927,0,0,0-13.536-3.6h0a9.938,9.938,0,0,0-3.634,13.564l6.62,11.472a1.416,1.416,0,0,1-2.456,1.412L149.1,86.877a12.756,12.756,0,0,1,4.579-17.38,1.268,1.268,0,0,1,.225-.127,12.752,12.752,0,0,1,17.23,4.619,1.555,1.555,0,0,1,.142.249l20.247,35.068.047.075a7.484,7.484,0,0,1-.237,8.538,7.63,7.63,0,0,1-2.262,2.017l-.075.047a7.736,7.736,0,0,1-2.962,1A7.453,7.453,0,0,1,178.586,117l-.055-.087L163.286,90.507Zm35.661,6.426L181.41,66.559a1.416,1.416,0,0,0-2.456,1.412l17.534,30.374a1.418,1.418,0,0,0,2.46-1.412Z" transform="translate(392.829 37.968)" fill="#333" fill-rule="evenodd"/>
      <path id="Pfad_170" data-name="Pfad 170" d="M93.942,64.7h27.934v55.872H93.942v-7.383h15.6a4.963,4.963,0,0,0,4.951-4.951V77.033a4.966,4.966,0,0,0-4.951-4.951h-15.6Z" transform="translate(234.931 34.588)" fill="#f8951d" fill-rule="evenodd"/>
      <path id="Pfad_171" data-name="Pfad 171" d="M89.365,120.211h53.021V67.19H89.365v53.021Zm54.445,2.847H87.942a1.422,1.422,0,0,1-1.424-1.42V65.767a1.423,1.423,0,0,1,1.424-1.424H143.81a1.423,1.423,0,0,1,1.424,1.424v55.872A1.422,1.422,0,0,1,143.81,123.059Z" transform="translate(212.997 33.524)" fill="#333" fill-rule="evenodd"/>
      <path id="Pfad_172" data-name="Pfad 172" d="M91.6,73.891a1.424,1.424,0,1,1-2.847,0V63.017a1.424,1.424,0,0,1,2.847,0Z" transform="translate(219.601 25.399)" fill="#333" fill-rule="evenodd"/>
      <path id="Pfad_173" data-name="Pfad 173" d="M91.689,61.081a3.448,3.448,0,1,1-3.448,3.448A3.449,3.449,0,0,1,91.689,61.081Z" transform="translate(218.088 23.887)" fill="#fff" fill-rule="evenodd"/>
      <path id="Pfad_174" data-name="Pfad 174" d="M92.753,60.721A4.85,4.85,0,0,1,96.2,62.149l.083.091a4.866,4.866,0,0,1-6.968,6.794l0,0a4.872,4.872,0,0,1,3.444-8.316Zm1.432,3.44a2.024,2.024,0,1,0-2.863,2.863v.008a2.028,2.028,0,0,0,2.918-2.816Z" transform="translate(217.024 22.823)" fill="#333" fill-rule="evenodd"/>
      <path id="Pfad_175" data-name="Pfad 175" d="M94.819,73.891a1.424,1.424,0,1,1-2.847,0V63.017a1.424,1.424,0,0,1,2.847,0Z" transform="translate(229.111 25.399)" fill="#333" fill-rule="evenodd"/>
      <path id="Pfad_176" data-name="Pfad 176" d="M94.905,61.081a3.448,3.448,0,1,1-3.444,3.448A3.449,3.449,0,0,1,94.905,61.081Z" transform="translate(227.601 23.887)" fill="#fff" fill-rule="evenodd"/>
      <path id="Pfad_177" data-name="Pfad 177" d="M95.969,60.721a4.872,4.872,0,1,1-3.44,8.312v0a4.869,4.869,0,0,1,0-6.889l.091-.087a4.861,4.861,0,0,1,3.349-1.341Zm1.432,3.44a2.027,2.027,0,0,0-2.8-.059l-.055.059a2.024,2.024,0,0,0,0,2.863l0,0,0,0A2.026,2.026,0,0,0,97.4,64.161Z" transform="translate(226.538 22.823)" fill="#333" fill-rule="evenodd"/>
      <path id="Pfad_178" data-name="Pfad 178" d="M98.039,73.891a1.424,1.424,0,1,1-2.847,0V63.017a1.424,1.424,0,1,1,2.847,0Z" transform="translate(238.624 25.399)" fill="#333" fill-rule="evenodd"/>
      <path id="Pfad_179" data-name="Pfad 179" d="M98.128,61.081a3.448,3.448,0,1,1-3.448,3.448A3.451,3.451,0,0,1,98.128,61.081Z" transform="translate(237.112 23.887)" fill="#fff" fill-rule="evenodd"/>
      <path id="Pfad_180" data-name="Pfad 180" d="M99.192,60.721a4.874,4.874,0,1,1-3.444,1.428,4.864,4.864,0,0,1,3.444-1.428Zm1.431,3.44a2.025,2.025,0,0,0-3.456,1.432,2.025,2.025,0,0,0,4.049,0A2.034,2.034,0,0,0,100.623,64.161Z" transform="translate(236.048 22.823)" fill="#333" fill-rule="evenodd"/>
      <path id="Pfad_181" data-name="Pfad 181" d="M101.258,73.891a1.424,1.424,0,1,1-2.847,0V63.017a1.424,1.424,0,1,1,2.847,0Z" transform="translate(248.135 25.399)" fill="#333" fill-rule="evenodd"/>
      <path id="Pfad_182" data-name="Pfad 182" d="M101.347,61.081A3.448,3.448,0,1,1,97.9,64.529,3.451,3.451,0,0,1,101.347,61.081Z" transform="translate(246.622 23.887)" fill="#fff" fill-rule="evenodd"/>
      <path id="Pfad_183" data-name="Pfad 183" d="M102.411,60.721a4.857,4.857,0,0,1,3.444,1.428l.083.091a4.868,4.868,0,0,1-6.972,6.794v0a4.872,4.872,0,0,1,3.444-8.316Zm1.431,3.44a2.024,2.024,0,1,0-2.863,2.863l0,0,0,0a2.028,2.028,0,0,0,2.918-2.816Z" transform="translate(245.558 22.823)" fill="#333" fill-rule="evenodd"/>
      <path id="Pfad_184" data-name="Pfad 184" d="M88.753,79.9a1.424,1.424,0,1,1,2.847,0V90.769a1.424,1.424,0,0,1-2.847,0Z" transform="translate(219.601 75.264)" fill="#333" fill-rule="evenodd"/>
      <path id="Pfad_185" data-name="Pfad 185" d="M91.689,87.606a3.448,3.448,0,1,0-3.448-3.448A3.446,3.446,0,0,0,91.689,87.606Z" transform="translate(218.088 81.876)" fill="#fff" fill-rule="evenodd"/>
      <path id="Pfad_186" data-name="Pfad 186" d="M92.753,87.246a2.03,2.03,0,0,0,1.435-3.46l0,0a2.024,2.024,0,1,0-2.863,2.863l.059.063a2.016,2.016,0,0,0,1.372.53Zm3.444,1.42a4.862,4.862,0,0,1-6.794.087l-.095-.087A4.871,4.871,0,1,1,96.2,81.777v0h0a4.864,4.864,0,0,1,0,6.885Z" transform="translate(217.024 80.813)" fill="#333" fill-rule="evenodd"/>
      <path id="Pfad_187" data-name="Pfad 187" d="M91.972,79.9a1.424,1.424,0,1,1,2.847,0V90.769a1.424,1.424,0,0,1-2.847,0Z" transform="translate(229.111 75.264)" fill="#333" fill-rule="evenodd"/>
      <path id="Pfad_188" data-name="Pfad 188" d="M94.905,87.606a3.448,3.448,0,1,0-3.444-3.448A3.446,3.446,0,0,0,94.905,87.606Z" transform="translate(227.601 81.876)" fill="#fff" fill-rule="evenodd"/>
      <path id="Pfad_189" data-name="Pfad 189" d="M95.969,87.246a2.025,2.025,0,0,0,0-4.049,2,2,0,0,0-1.428.589h0l0,0a2.024,2.024,0,0,0,0,2.863l.055.063a2.023,2.023,0,0,0,1.372.53Zm3.444,1.42a4.862,4.862,0,0,1-6.794.087l-.091-.087a4.869,4.869,0,0,1,0-6.889v0a4.868,4.868,0,1,1,6.885,6.885Z" transform="translate(226.538 80.813)" fill="#333" fill-rule="evenodd"/>
      <path id="Pfad_190" data-name="Pfad 190" d="M95.192,79.9a1.424,1.424,0,1,1,2.847,0V90.769a1.424,1.424,0,0,1-2.847,0Z" transform="translate(238.624 75.264)" fill="#333" fill-rule="evenodd"/>
      <path id="Pfad_191" data-name="Pfad 191" d="M98.128,87.606a3.448,3.448,0,1,0-3.448-3.448A3.449,3.449,0,0,0,98.128,87.606Z" transform="translate(237.112 81.876)" fill="#fff" fill-rule="evenodd"/>
      <path id="Pfad_192" data-name="Pfad 192" d="M99.192,87.246a2.025,2.025,0,1,0-1.432-3.456,2.025,2.025,0,0,0,1.432,3.456Zm3.444,1.42a4.869,4.869,0,1,1,1.428-3.444A4.864,4.864,0,0,1,102.636,88.665Z" transform="translate(236.048 80.813)" fill="#333" fill-rule="evenodd"/>
      <path id="Pfad_193" data-name="Pfad 193" d="M98.411,79.9a1.424,1.424,0,1,1,2.847,0V90.769a1.424,1.424,0,1,1-2.847,0Z" transform="translate(248.135 75.264)" fill="#333" fill-rule="evenodd"/>
      <path id="Pfad_194" data-name="Pfad 194" d="M101.347,87.606A3.448,3.448,0,1,0,97.9,84.157,3.449,3.449,0,0,0,101.347,87.606Z" transform="translate(246.622 81.876)" fill="#fff" fill-rule="evenodd"/>
      <path id="Pfad_195" data-name="Pfad 195" d="M102.411,87.246a2.027,2.027,0,0,0,1.431-3.46v0a2.024,2.024,0,1,0-2.863,2.863l.059.063a2.016,2.016,0,0,0,1.372.53Zm3.444,1.42a4.862,4.862,0,0,1-6.794.087l-.095-.087a4.871,4.871,0,1,1,6.889-6.889l0,0h0a4.864,4.864,0,0,1,0,6.885Z" transform="translate(245.558 80.813)" fill="#333" fill-rule="evenodd"/>
      <path id="Pfad_196" data-name="Pfad 196" d="M102.07,69.425a1.424,1.424,0,0,1,0-2.847h10.875a1.424,1.424,0,1,1,0,2.847Z" transform="translate(254.738 40.127)" fill="#333" fill-rule="evenodd"/>
      <path id="Pfad_197" data-name="Pfad 197" d="M109.781,69.518a3.448,3.448,0,1,1-3.448-3.452A3.445,3.445,0,0,1,109.781,69.518Z" transform="translate(261.35 38.615)" fill="#fff" fill-rule="evenodd"/>
      <path id="Pfad_198" data-name="Pfad 198" d="M112.268,70.579a4.867,4.867,0,1,1-1.428-3.448,4.863,4.863,0,0,1,1.428,3.448Zm-3.44,1.428a2.024,2.024,0,1,0-1.432.593A2.025,2.025,0,0,0,108.827,72.006Z" transform="translate(260.286 37.554)" fill="#333" fill-rule="evenodd"/>
      <path id="Pfad_199" data-name="Pfad 199" d="M102.07,72.644a1.424,1.424,0,0,1,0-2.847h10.875a1.424,1.424,0,1,1,0,2.847Z" transform="translate(254.738 49.638)" fill="#333" fill-rule="evenodd"/>
      <path id="Pfad_200" data-name="Pfad 200" d="M109.781,72.734a3.448,3.448,0,1,1-3.448-3.448A3.445,3.445,0,0,1,109.781,72.734Z" transform="translate(261.35 48.128)" fill="#fff" fill-rule="evenodd"/>
      <path id="Pfad_201" data-name="Pfad 201" d="M112.268,73.8a4.872,4.872,0,1,1-8.316-3.444h0a4.869,4.869,0,0,1,6.889,0l.087.091a4.864,4.864,0,0,1,1.341,3.353Zm-3.44,1.431a2.041,2.041,0,0,0,.593-1.431,2.018,2.018,0,0,0-.534-1.376l-.059-.055a2.024,2.024,0,0,0-2.863,0l0,0v0a2.01,2.01,0,0,0-.589,1.431,2.027,2.027,0,0,0,3.456,1.431Z" transform="translate(260.286 47.064)" fill="#333" fill-rule="evenodd"/>
      <path id="Pfad_202" data-name="Pfad 202" d="M102.07,75.864a1.424,1.424,0,0,1,0-2.847h10.875a1.424,1.424,0,0,1,0,2.847Z" transform="translate(254.738 59.151)" fill="#333" fill-rule="evenodd"/>
      <path id="Pfad_203" data-name="Pfad 203" d="M109.781,75.953a3.448,3.448,0,1,1-3.448-3.448A3.449,3.449,0,0,1,109.781,75.953Z" transform="translate(261.35 57.638)" fill="#fff" fill-rule="evenodd"/>
      <path id="Pfad_204" data-name="Pfad 204" d="M112.268,77.017a4.872,4.872,0,1,1-8.316-3.44v0a4.869,4.869,0,0,1,6.889,0l.087.095a4.847,4.847,0,0,1,1.341,3.349Zm-3.44,1.432a2.034,2.034,0,0,0,.593-1.432,2,2,0,0,0-.534-1.372l-.059-.059a2.024,2.024,0,0,0-2.863,0l0,0v0a2.01,2.01,0,0,0-.589,1.431,2.024,2.024,0,0,0,3.456,1.432Z" transform="translate(260.286 56.575)" fill="#333" fill-rule="evenodd"/>
      <path id="Pfad_205" data-name="Pfad 205" d="M102.07,79.083a1.424,1.424,0,0,1,0-2.847h10.875a1.424,1.424,0,1,1,0,2.847Z" transform="translate(254.738 68.661)" fill="#333" fill-rule="evenodd"/>
      <path id="Pfad_206" data-name="Pfad 206" d="M109.781,79.172a3.448,3.448,0,1,1-3.448-3.448A3.449,3.449,0,0,1,109.781,79.172Z" transform="translate(261.35 67.149)" fill="#fff" fill-rule="evenodd"/>
      <path id="Pfad_207" data-name="Pfad 207" d="M112.268,80.236a4.868,4.868,0,0,1-8.312,3.444l0,0v0a4.871,4.871,0,1,1,6.889-6.889l.087.095a4.847,4.847,0,0,1,1.341,3.349Zm-3.44,1.432a2.027,2.027,0,0,0,.593-1.432,2,2,0,0,0-.534-1.372l-.059-.059a2.024,2.024,0,1,0-2.863,2.863l0,0a2.043,2.043,0,0,0,1.435.589A2.018,2.018,0,0,0,108.827,81.667Z" transform="translate(260.286 66.085)" fill="#333" fill-rule="evenodd"/>
      <path id="Pfad_208" data-name="Pfad 208" d="M96.066,66.578a1.424,1.424,0,1,1,0,2.847H85.192a1.424,1.424,0,1,1,0-2.847Z" transform="translate(204.873 40.127)" fill="#333" fill-rule="evenodd"/>
      <path id="Pfad_209" data-name="Pfad 209" d="M83.256,69.518A3.448,3.448,0,1,0,86.7,66.066,3.445,3.445,0,0,0,83.256,69.518Z" transform="translate(203.36 38.615)" fill="#fff" fill-rule="evenodd"/>
      <path id="Pfad_210" data-name="Pfad 210" d="M85.743,70.579a2.025,2.025,0,0,0,.593,1.428l.059.063a2.028,2.028,0,0,0,3.4-1.491,2.043,2.043,0,0,0-.589-1.435l0,0a2.025,2.025,0,0,0-3.456,1.431Zm-1.42,3.444a4.872,4.872,0,0,1,6.889-6.893l0,0,0,0a4.866,4.866,0,0,1-6.794,6.968Z" transform="translate(202.296 37.554)" fill="#333" fill-rule="evenodd"/>
      <path id="Pfad_211" data-name="Pfad 211" d="M96.066,69.8a1.424,1.424,0,1,1,0,2.847H85.192a1.424,1.424,0,1,1,0-2.847Z" transform="translate(204.873 49.638)" fill="#333" fill-rule="evenodd"/>
      <path id="Pfad_212" data-name="Pfad 212" d="M83.256,72.734A3.448,3.448,0,1,0,86.7,69.286,3.445,3.445,0,0,0,83.256,72.734Z" transform="translate(203.36 48.128)" fill="#fff" fill-rule="evenodd"/>
      <path id="Pfad_213" data-name="Pfad 213" d="M85.743,73.8a2.041,2.041,0,0,0,.593,1.431l.059.059a2.037,2.037,0,0,0,2.8-.059,2.041,2.041,0,0,0,.593-1.431,2.01,2.01,0,0,0-.589-1.431v0l0,0a2.024,2.024,0,0,0-2.863,0l-.059.055a2.018,2.018,0,0,0-.534,1.376Zm-1.42,3.444a4.867,4.867,0,0,1-.087-6.8l.087-.091a4.869,4.869,0,0,1,6.889,0h0a4.866,4.866,0,0,1-6.79,6.972Z" transform="translate(202.296 47.064)" fill="#333" fill-rule="evenodd"/>
      <path id="Pfad_214" data-name="Pfad 214" d="M96.066,73.017a1.424,1.424,0,0,1,0,2.847H85.192a1.424,1.424,0,0,1,0-2.847Z" transform="translate(204.873 59.151)" fill="#333" fill-rule="evenodd"/>
      <path id="Pfad_215" data-name="Pfad 215" d="M83.256,75.953A3.448,3.448,0,1,0,86.7,72.505,3.449,3.449,0,0,0,83.256,75.953Z" transform="translate(203.36 57.638)" fill="#fff" fill-rule="evenodd"/>
      <path id="Pfad_216" data-name="Pfad 216" d="M85.743,77.017a2.034,2.034,0,0,0,.593,1.432l.059.059a2,2,0,0,0,1.372.534A2.027,2.027,0,0,0,89.2,75.585v0l0,0a2.024,2.024,0,0,0-2.863,0l-.059.059a2,2,0,0,0-.534,1.372Zm-1.42,3.444a4.862,4.862,0,0,1-.087-6.794l.087-.095a4.869,4.869,0,0,1,6.889,0l0,0a4.865,4.865,0,0,1-6.79,6.968Z" transform="translate(202.296 56.575)" fill="#333" fill-rule="evenodd"/>
      <path id="Pfad_217" data-name="Pfad 217" d="M96.066,76.236a1.424,1.424,0,1,1,0,2.847H85.192a1.424,1.424,0,1,1,0-2.847Z" transform="translate(204.873 68.661)" fill="#333" fill-rule="evenodd"/>
      <path id="Pfad_218" data-name="Pfad 218" d="M83.256,79.172A3.448,3.448,0,1,0,86.7,75.724,3.449,3.449,0,0,0,83.256,79.172Z" transform="translate(203.36 67.149)" fill="#fff" fill-rule="evenodd"/>
      <path id="Pfad_219" data-name="Pfad 219" d="M85.743,80.236A2.027,2.027,0,0,0,89.2,81.671l0,0,.012-.012A2.027,2.027,0,0,0,86.336,78.8l0,0-.02.016a2.02,2.02,0,0,0-.569,1.416Zm-1.42,3.444a4.864,4.864,0,0,1-.028-6.857l.028-.028,0,0a4.868,4.868,0,0,1,6.9,6.865l-.02.02,0,0a4.864,4.864,0,0,1-6.885,0Z" transform="translate(202.296 66.085)" fill="#333" fill-rule="evenodd"/>
      <rect id="Rechteck_58" data-name="Rechteck 58" width="41.109" height="41.11" rx="1.252" transform="translate(308.319 106.671)" fill="#fff"/>
      <path id="Pfad_220" data-name="Pfad 220" d="M94.759,107.319h31.208a3.529,3.529,0,0,0,2.491-1.032l0,0,.024-.024a3.533,3.533,0,0,0,1.008-2.468V72.584a3.516,3.516,0,0,0-1.036-2.487l-.063-.067a3.515,3.515,0,0,0-2.428-.973H94.759a3.551,3.551,0,0,0-3.527,3.527v31.208a3.5,3.5,0,0,0,1.036,2.491h0a3.516,3.516,0,0,0,2.487,1.036Zm31.208,2.847H94.759a6.355,6.355,0,0,1-4.5-1.87l0,0h0a6.369,6.369,0,0,1-1.87-4.5V72.584a6.386,6.386,0,0,1,6.375-6.375h31.208A6.343,6.343,0,0,1,130.38,68l.091.079a6.371,6.371,0,0,1,1.87,4.5v31.208a6.361,6.361,0,0,1-1.847,4.473l-.024.028-.008,0A6.336,6.336,0,0,1,125.967,110.167Z" transform="translate(218.51 39.037)" fill="#333" fill-rule="evenodd"/>
      <path id="Pfad_221" data-name="Pfad 221" d="M212.824,53.295a1.4,1.4,0,1,1,0,2.8H177.57a1.4,1.4,0,1,1,0-2.8Zm-51.938,0a1.4,1.4,0,1,1,0,2.8h-6.968a1.4,1.4,0,0,1,0-2.8Zm-12.654,0a1.4,1.4,0,0,1,0,2.8H138.3a1.4,1.4,0,1,1,0-2.8Z" transform="translate(361.833 0.883)" fill="#e8f1f2" fill-rule="evenodd"/>
      <path id="Pfad_222" data-name="Pfad 222" d="M147.027,58.295a2.649,2.649,0,1,0-2.649-2.649A2.655,2.655,0,0,0,147.027,58.295Z" transform="translate(383.941)" fill="none" stroke="#b8c6d7" stroke-linecap="round" stroke-miterlimit="22.926" stroke-width="0.709" fill-rule="evenodd"/>
      <path id="Pfad_223" data-name="Pfad 223" d="M168.547,137.064l-18.325-12.429v24.858l18.325-12.429Z" transform="translate(401.207 211.653)" fill="#f8951d" fill-rule="evenodd"/>
      <circle id="Ellipse_2" data-name="Ellipse 2" cx="23.131" cy="23.131" r="23.131" transform="translate(137.562 312.981)" fill="#f8951d"/>
      <path id="Pfad_224" data-name="Pfad 224" d="M55.38,122.139a7.538,7.538,0,0,0-1.613,5.117,14.741,14.741,0,0,0,2.1,7.5c1.072,1.708,2.436,2.875,3.852,2.875s2.776-1.167,3.848-2.875a14.741,14.741,0,0,0,2.1-7.5,7.538,7.538,0,0,0-1.613-5.117,6.115,6.115,0,0,0-8.672,0Zm9.506,22.509-4.354,3.081a1.414,1.414,0,0,1-1.633,0l-4.354-3.081H53.521a4.884,4.884,0,0,0-3.409,1.38l-.063.067a4.89,4.89,0,0,0-1.447,3.472v6.24a21.715,21.715,0,0,0,22.232,0v-6.24a4.942,4.942,0,0,0-4.923-4.919Z" transform="translate(100.977 198.952)" fill="#f4f6f8" fill-rule="evenodd"/>
      <path id="Pfad_225" data-name="Pfad 225" d="M69.76,164.644a21.71,21.71,0,1,0-15.351-6.359,21.644,21.644,0,0,0,15.351,6.359ZM87.12,160.3a24.55,24.55,0,1,1,7.193-17.364A24.484,24.484,0,0,1,87.12,160.3Z" transform="translate(90.935 193.176)" fill="#333" fill-rule="evenodd"/>
      <path id="Pfad_226" data-name="Pfad 226" d="M57.987,119.616a8.4,8.4,0,0,1,6.458,2.772,10.267,10.267,0,0,1,2.337,7,17.643,17.643,0,0,1-2.535,9c-1.57,2.511-3.765,4.227-6.26,4.227s-4.694-1.716-6.264-4.227a17.643,17.643,0,0,1-2.535-9,10.267,10.267,0,0,1,2.337-7,8.412,8.412,0,0,1,6.462-2.772Zm4.334,4.65a6.115,6.115,0,0,0-8.672,0,7.539,7.539,0,0,0-1.613,5.117,14.741,14.741,0,0,0,2.1,7.5c1.072,1.708,2.436,2.875,3.852,2.875s2.776-1.167,3.848-2.875a14.741,14.741,0,0,0,2.1-7.5A7.539,7.539,0,0,0,62.321,124.266Z" transform="translate(102.708 196.825)" fill="#333" fill-rule="evenodd"/>
      <g id="Gruppe_140" data-name="Gruppe 140" transform="translate(146.732 340.753)">
        <path id="Pfad_227" data-name="Pfad 227" d="M50.729,139.877a1.424,1.424,0,1,1-2.847,0v-6.347a7.752,7.752,0,0,1,2.282-5.489l.075-.067a7.733,7.733,0,0,1,5.41-2.211h1.463a1.408,1.408,0,0,1,.933.348l3.8,2.689,3.911-2.772a1.422,1.422,0,0,1,.819-.257v-.008h1.463a7.783,7.783,0,0,1,7.77,7.767v6.347a1.424,1.424,0,1,1-2.847,0v-6.347a4.942,4.942,0,0,0-4.923-4.919H67.014l-4.354,3.081a1.414,1.414,0,0,1-1.633,0l-4.354-3.081H55.649a4.884,4.884,0,0,0-3.409,1.38l-.063.067a4.89,4.89,0,0,0-1.447,3.472v6.347Zm-.49-11.9,1.938.067A1.427,1.427,0,0,0,50.239,127.975Z" transform="translate(-47.882 -125.764)" fill="#333" fill-rule="evenodd"/>
      </g>
      <path id="Pfad_228" data-name="Pfad 228" d="M52.624,134.868H97.463a9.235,9.235,0,0,1,9.206,9.21h0a9.228,9.228,0,0,1-9.206,9.206H52.624a9.228,9.228,0,0,1-9.21-9.206h0a9.235,9.235,0,0,1,9.21-9.21Zm44.839,2.847H52.624a6.386,6.386,0,0,0-6.363,6.363h0a6.386,6.386,0,0,0,6.363,6.363H97.463a6.386,6.386,0,0,0,6.359-6.363h0a6.386,6.386,0,0,0-6.359-6.363Z" transform="translate(85.649 241.886)" fill="#333" fill-rule="evenodd"/>
      <path id="Pfad_229" data-name="Pfad 229" d="M63.306,143.929a3.854,3.854,0,0,0,0-7.707H48.624a3.854,3.854,0,1,0,0,7.707Z" transform="translate(89.65 245.886)" fill="#f8951d" fill-rule="evenodd"/>
      <path id="Pfad_230" data-name="Pfad 230" d="M64.37,143.569a2.43,2.43,0,0,0,0-4.86H49.687a2.43,2.43,0,1,0,0,4.86Zm3.729,1.3a5.247,5.247,0,0,1-3.729,1.546H49.687a5.277,5.277,0,1,1,0-10.554H64.37A5.276,5.276,0,0,1,68.1,144.87Z" transform="translate(88.586 244.823)" fill="#333" fill-rule="evenodd"/>
      <path id="Pfad_231" data-name="Pfad 231" d="M41.155,117.265a1.424,1.424,0,1,1,0-2.847H130.7a1.424,1.424,0,1,1,0,2.847Z" transform="translate(74.768 181.468)" fill="#333" fill-rule="evenodd"/>
    </g>
  </g>
</svg>
