<svg id="cloud" xmlns="http://www.w3.org/2000/svg" width="77.08" height="54.708" viewBox="0 0 77.08 54.708">
  <g id="Calque_1" data-name="Calque 1">
    <path id="Pfad_12" data-name="Pfad 12" d="M64.408,25.906a22.1,22.1,0,0,0,.749-4.718C65.824,10.223,58.282.749,48.351.045c-8.066-.584-15.233,4.8-17.929,12.732a12.125,12.125,0,0,0-7.677-2.794c-7.1,0-12.859,6.284-12.859,14.042a15.428,15.428,0,0,0,.4,3.5C4.494,28.512,0,34.182,0,41.049c0,7.542,5.415,13.66,12.05,13.66H63.906c7.272,0,13.174-6.448,13.174-14.409C77.095,32.549,71.463,26.213,64.408,25.906ZM30.991,44.936a3,3,0,1,1,3.116-3,3.041,3.041,0,0,1-3.116,3Zm6.973-.457a9.407,9.407,0,0,0-9.437-9.369V29.666A14.836,14.836,0,0,1,43.438,44.442Zm9.833,0V44.03A18.524,18.524,0,0,0,29.073,25.7h-.711V19.473A25.178,25.178,0,0,1,53.728,44.457Z" transform="translate(0 -0.002)" fill="#c2c2ca"/>
  </g>
</svg>
