<svg id="crm" xmlns="http://www.w3.org/2000/svg" width="74.15" height="53.73" viewBox="0 0 74.15 53.73">
  <g id="Calque_1" data-name="Calque 1">
    <path id="Pfad_23" data-name="Pfad 23" d="M60,38.47a5,5,0,0,1-.62-2,17.4,17.4,0,0,1,1.36-5.3,3.91,3.91,0,0,0,1.34-1.34,3.91,3.91,0,0,0,.29-2.24.8.8,0,0,1-.32-.73,22.57,22.57,0,0,0,.63-6c-.31-3.88-4.17-5.6-5.82-6a11.35,11.35,0,0,0-7.29.74A6.44,6.44,0,0,0,46,21.31a32.16,32.16,0,0,0,.67,5.85s-.78.16-.62,1.63a3.43,3.43,0,0,0,1.52,2.3s2.18,4.74,1.68,6.43-5.41,3.55-8.88,6.2c-4.5,2.36-5.4,10-5.4,10H74.15s-.59-6.71-3.28-9.54S60.67,40.41,60,38.47Z" transform="translate(0 0.01)" fill="#f8951d"/>
    <path id="Pfad_24" data-name="Pfad 24" d="M35,53.26H54.56s-.82-9.14-4.55-13a10.55,10.55,0,0,0-1.84-1.43c-1.75,1.38-5.18,2.91-7.79,4.91C36.51,45.75,35.32,51.63,35,53.26Z" transform="translate(0 0.01)" fill="#f8951d"/>
    <path id="Pfad_25" data-name="Pfad 25" d="M38.67,41.07a48.679,48.679,0,0,1,4.71-3c.47-.27,1-.58,1.52-.89-4.35-1.76-9.41-2.9-10-4.7a7.08,7.08,0,0,1-.9-2.71,24,24,0,0,1,1.89-7.22,5.34,5.34,0,0,0,1.87-1.83,5.24,5.24,0,0,0,.41-3,1.1,1.1,0,0,1-.45-1,29.21,29.21,0,0,0,.87-8.16C38.17,3.23,32.78.89,30.5.39a16.22,16.22,0,0,0-10.17,1c-3.94,1.82-4.76,5.38-5,7.72s1,8,1,8-1.1.23-.88,2.23a4.67,4.67,0,0,0,2.11,3.13s3.05,6.47,2.34,8.78-7.54,4.83-12.36,8.44C1.24,42.89,0,53.27,0,53.27H31.86C32,52.1,33.18,44.17,38.67,41.07Z" transform="translate(0 0.01)" fill="#f8951d"/>
  </g>
</svg>
