<svg id="db" xmlns="http://www.w3.org/2000/svg" width="183" height="45" viewBox="0 0 183 45">
  <path id="Pfad_4" data-name="Pfad 4" d="M0,0H183V45H0Z" fill="#fff" fill-rule="evenodd"/>
  <path id="Pfad_5" data-name="Pfad 5" d="M155.02,78.927h33.135v33.136H155.02Zm4.629,4.566v23.939h23.873V83.493Z" transform="translate(-7.846 -74.341)" fill="#c1c1c9" fill-rule="evenodd"/>
  <path id="Pfad_6" data-name="Pfad 6" d="M154.753,104.365l11.936-17.613,6.459-.13-12.33,17.743h-6.065ZM2.834,112.256V98.821h5.74a4.919,4.919,0,0,1,4.239,2.151,7.862,7.862,0,0,1,1.305,4.567,7.515,7.515,0,0,1-1.435,4.63,4.952,4.952,0,0,1-4.109,2.088H2.834Zm2.805-11.023v8.611H8.248a2.5,2.5,0,0,0,2.283-1.305,5.835,5.835,0,0,0,.653-3,5.562,5.562,0,0,0-.653-2.805,2.419,2.419,0,0,0-2.283-1.5H5.639Zm16.568,7.893h2.609a3.826,3.826,0,0,1-1.7,2.544,5.185,5.185,0,0,1-2.935.782,4.223,4.223,0,0,1-3.327-1.5,5.287,5.287,0,0,1-1.37-3.784,4.944,4.944,0,0,1,1.3-3.457,4.625,4.625,0,0,1,3.392-1.435,4.079,4.079,0,0,1,3.979,2.088,5.981,5.981,0,0,1,.587,1.63,10.172,10.172,0,0,1,.2,2.023H18.163a2.425,2.425,0,0,0,.522,1.434,1.916,1.916,0,0,0,1.5.784,3.51,3.51,0,0,0,1.239-.261,1.425,1.425,0,0,0,.782-.848Zm-4.044-2.805h4.044a1.605,1.605,0,0,0-.587-1.239,2.142,2.142,0,0,0-1.435-.588,1.878,1.878,0,0,0-1.37.588,1.491,1.491,0,0,0-.653,1.239Zm8.415-3.848h2.609v6.457a1.372,1.372,0,0,0,.457.914,1.781,1.781,0,0,0,1.109.391,2.056,2.056,0,0,0,1.369-.456,1.713,1.713,0,0,0,.588-1.241v-6.066h2.544v9.783H32.709v-1.239a3.586,3.586,0,0,1-2.935,1.435,3.819,3.819,0,0,1-2.153-.653,2.268,2.268,0,0,1-1.043-1.891v-7.436Zm13.828-2.805v2.805h1.5V104.3h-1.5v5.021a.807.807,0,0,0,.261.523.8.8,0,0,0,.587.195h.392a.5.5,0,0,1,.261-.065v2.282a5.329,5.329,0,0,1-.849.132,4.682,4.682,0,0,1-1.043.065,2.023,2.023,0,0,1-1.566-.653,1.918,1.918,0,0,1-.587-1.435V104.3H36.557v-1.827h1.305v-1.305l2.543-1.5Zm2.61,9.262h2.609a1.228,1.228,0,0,0,.521,1.109,2.072,2.072,0,0,0,1.305.391,2.607,2.607,0,0,0,1.109-.195.875.875,0,0,0,.522-.85c0-.521-.457-.912-1.5-1.173a16.918,16.918,0,0,1-2.8-.848,2.169,2.169,0,0,1-1.566-2.021,2.752,2.752,0,0,1,1.109-2.22,4.432,4.432,0,0,1,2.87-.848,4.966,4.966,0,0,1,2.87.782,2.817,2.817,0,0,1,1.3,2.479H48.951a1.265,1.265,0,0,0-.588-.912,2.247,2.247,0,0,0-1.174-.327,2.185,2.185,0,0,0-.979.259.821.821,0,0,0-.391.718c0,.391.522.718,1.5.914a12.376,12.376,0,0,1,2.8.651,2.391,2.391,0,0,1,1.566,2.35,2.672,2.672,0,0,1-1.369,2.479,4.968,4.968,0,0,1-2.87.782,5.045,5.045,0,0,1-3.2-.979A2.874,2.874,0,0,1,43.016,108.93Zm14.741,3.523a4.452,4.452,0,0,1-3.391-1.5,5.549,5.549,0,0,1-1.3-3.784,4.94,4.94,0,0,1,1.369-3.457,4.587,4.587,0,0,1,3.327-1.435,4.653,4.653,0,0,1,3.066,1.109,3.109,3.109,0,0,1,1.37,2.609h-2.61a1.271,1.271,0,0,0-.522-1.044,1.885,1.885,0,0,0-1.3-.456,1.746,1.746,0,0,0-1.5.782,3.246,3.246,0,0,0-.522,1.891,4.447,4.447,0,0,0,.522,2.218,1.806,1.806,0,0,0,1.5.85,1.779,1.779,0,0,0,1.239-.523,1.362,1.362,0,0,0,.588-1.109h2.61a3.46,3.46,0,0,1-1.37,2.805,5.106,5.106,0,0,1-3.066,1.044Zm6.132-13.632H66.5v4.695a2.771,2.771,0,0,1,1.3-.977,7.012,7.012,0,0,1,1.7-.261,3.592,3.592,0,0,1,2.283.782,2.322,2.322,0,0,1,.978,1.957v7.241H70.217v-6.132a1.621,1.621,0,0,0-.457-1.173,1.539,1.539,0,0,0-1.108-.391,2.556,2.556,0,0,0-1.5.456,1.582,1.582,0,0,0-.652,1.241v6h-2.61Zm17.285,10.306h2.544a3.824,3.824,0,0,1-1.7,2.544,5.111,5.111,0,0,1-2.87.782,4.457,4.457,0,0,1-3.392-1.5,5.252,5.252,0,0,1-1.3-3.784,4.673,4.673,0,0,1,1.3-3.457,4.519,4.519,0,0,1,3.392-1.435,4.041,4.041,0,0,1,3.914,2.088,4.514,4.514,0,0,1,.652,1.63,10.249,10.249,0,0,1,.13,2.023H77.066a2.139,2.139,0,0,0,.587,1.434,1.826,1.826,0,0,0,1.5.784,3.857,3.857,0,0,0,1.24-.261,1.979,1.979,0,0,0,.782-.848Zm-4.11-2.805h4.109a1.679,1.679,0,0,0-.652-1.239,1.878,1.878,0,0,0-1.37-.588,2.028,2.028,0,0,0-1.435.588,1.681,1.681,0,0,0-.651,1.239Zm13.241,5.936V98.821h6.849a3.212,3.212,0,0,1,2.479,1.042,3.615,3.615,0,0,1,.718,4.241,3.209,3.209,0,0,1-1.305,1.173,4.354,4.354,0,0,1,1.632,1.241,3.193,3.193,0,0,1,.586,1.827,3.738,3.738,0,0,1-1.109,2.739,3.248,3.248,0,0,1-2.544,1.173h-7.3Zm2.74-11.023v2.87h3.327a1.819,1.819,0,0,0,1.173-.391,1.175,1.175,0,0,0,.456-.979,1.433,1.433,0,0,0-.456-1.109,1.657,1.657,0,0,0-1.109-.391Zm0,5.284v3.327h3.521a1.677,1.677,0,0,0,1.305-.523,1.578,1.578,0,0,0,0-2.347,1.877,1.877,0,0,0-1.305-.456H93.046Zm12.785-1.111H103.22a2.785,2.785,0,0,1,1.305-2.412,5.434,5.434,0,0,1,2.805-.718,6.3,6.3,0,0,1,3.327.718,2.047,2.047,0,0,1,.912,1.7v6a2.334,2.334,0,0,0,.588,1.565h-2.675a2.3,2.3,0,0,1-.325-.521,2.938,2.938,0,0,1-.2-.588,2.789,2.789,0,0,1-1.305.979,4.44,4.44,0,0,1-1.76.327,3.013,3.013,0,0,1-3.067-2.936,3.053,3.053,0,0,1,.72-2.023,3.115,3.115,0,0,1,1.957-.977c1.5-.261,2.218-.393,2.282-.393.782-.195,1.173-.456,1.173-.718a.829.829,0,0,0-.456-.848,1.971,1.971,0,0,0-1.173-.259,2.8,2.8,0,0,0-1.109.259.973.973,0,0,0-.391.849Zm3.13,3.523v-1.5a19.929,19.929,0,0,0-2.021.456c-.979.261-1.435.718-1.435,1.305,0,.456.065.718.327.912a1.645,1.645,0,0,0,1.044.261,2.349,2.349,0,0,0,1.3-.391A1.613,1.613,0,0,0,108.961,108.93Zm4.893-6.457h2.609v1.107a3.769,3.769,0,0,1,1.239-.977,5.147,5.147,0,0,1,1.565-.327,4.254,4.254,0,0,1,2.282.653,2.474,2.474,0,0,1,1.044,1.957v7.371h-2.609V105.8a1.1,1.1,0,0,0-.391-.914,1.547,1.547,0,0,0-1.044-.327,2.343,2.343,0,0,0-1.239.261,3.168,3.168,0,0,0-.848.979v6.457h-2.609v-9.783h0Zm10.828-3.652h2.609V106l3-3.521h3.132l-3.2,3.718,3.523,6.066h-3.067l-2.218-4.174-1.173,1.239v2.936h-2.609V98.821h0Z" transform="translate(-0.143 -78.665)" fill="#c1c1c9" fill-rule="evenodd"/>
</svg>
