<svg id="design" xmlns="http://www.w3.org/2000/svg" width="77" height="59.176" viewBox="0 0 77 59.176">
  <g id="Calque_1" data-name="Calque 1">
    <path id="Pfad_38" data-name="Pfad 38" d="M76.255,21.431C72.29,5.321,52.409-3.646,31.9,1.413S-3.316,24.837.649,41.016C3.441,52.329,15.233,58.345,29.133,59.177a6.244,6.244,0,0,1-3.669-4.489c-.684-3.976,3.5-7.975,9.331-9.012s11.12,1.413,11.8,5.389c.49,2.791-1.447,5.617-4.671,7.394a53.2,53.2,0,0,0,5.5-1.139C67.984,52.329,80.232,37.6,76.255,21.431ZM21.784,40c-2.677,2.017-7.075.695-9.832-2.951S9.16,28.814,11.837,26.8s7.075-.695,9.821,2.951S24.461,37.985,21.784,40ZM30.9,28.324c-3.019.82-6.369-1.823-7.5-5.925s.41-8.078,3.418-8.91,6.369,1.823,7.485,5.925-.353,8.078-3.361,8.91Zm19.665-9.992c-.8,3.543-3.828,5.879-6.768,5.218s-4.671-4.067-3.874-7.611,3.874-5.879,6.79-5.218,4.694,4.09,3.9,7.611Zm5.264,8.932c-2.188-1.413-2.586-4.705-.877-7.349S59.815,16.27,62,17.637s2.586,4.694.889,7.337S58.026,28.677,55.827,27.264ZM65.42,38.657c-2.279,1.287-5,.8-6.073-1.082s-.1-4.455,2.176-5.754,4.99-.8,6.061,1.139.114,4.409-2.165,5.708Z" transform="translate(-0.002 -0.001)" fill="#f8951d"/>
  </g>
</svg>
