<svg id="ideaFull" xmlns="http://www.w3.org/2000/svg" width="58.094" height="61.432" viewBox="0 0 58.094 61.432">
  <g id="Gruppe_146" data-name="Gruppe 146" transform="translate(13.282 13.82)">
    <path id="Pfad_238" data-name="Pfad 238" d="M1056.907,1546.1h-16.263v4.889a2.772,2.772,0,0,0,.187.994h0l0,0a2.836,2.836,0,0,0,.2.419c.008.014.015.029.024.043.034.056.07.11.107.163.017.025.034.05.052.073.037.051.075.1.115.148.021.025.043.051.065.075.041.047.082.093.125.138.021.021.044.041.066.062a3.23,3.23,0,0,0,.249.219c.035.028.07.057.106.085s.085.06.128.089.085.057.128.083.085.051.128.076.1.055.154.082.079.041.119.059c.081.037.164.073.248.1l.083.03c.084.03.17.058.257.083l.109.027c.071.018.143.034.215.048l.119.021c.075.012.152.022.228.031l.107.011c.113.009.226.015.342.015h8.933c.115,0,.229-.006.342-.015l.107-.011c.077-.008.154-.018.229-.031l.119-.021c.073-.014.144-.031.215-.048l.109-.027c.088-.025.173-.053.258-.083l.081-.03c.085-.032.168-.066.249-.1.041-.018.079-.039.119-.059s.1-.053.154-.082.086-.05.128-.076.086-.055.129-.083.086-.058.128-.089.072-.057.107-.085c.087-.069.17-.142.248-.219.022-.021.044-.04.066-.062.044-.045.085-.091.125-.138.022-.025.044-.05.065-.076.04-.048.078-.1.115-.147.018-.024.035-.05.052-.074.037-.054.073-.108.107-.163.008-.014.015-.028.023-.042a2.913,2.913,0,0,0,.2-.419v0h0a2.77,2.77,0,0,0,.187-.994Z" transform="translate(-1033.333 -1506.559)" fill="#f8951d"/>
    <g id="Gruppe_145" data-name="Gruppe 145">
      <g id="Gruppe_144" data-name="Gruppe 144">
        <path id="Pfad_239" data-name="Pfad 239" d="M1046.883,1497.461a12.673,12.673,0,0,1,10.9,19.172l-1.55,2.6h.018c-2.725,4.758-3.607,8.023-3.87,9.921h-10.992c-.263-1.9-1.146-5.163-3.872-9.921h.021l-1.551-2.6a12.675,12.675,0,0,1,10.9-19.172m0-1.72a14.395,14.395,0,0,0-12.376,21.774h-.055c5.912,9.162,5.3,13.361,5.3,13.361h14.266s-.616-4.2,5.3-13.361h-.053a14.395,14.395,0,0,0-12.377-21.774Z" transform="translate(-1031.405 -1494.673)" fill="#f8951d"/>
        <path id="Pfad_240" data-name="Pfad 240" d="M1053.687,1531.612h-15.5l.179-1.222c0-.024.393-4.055-5.139-12.629l-1.063-1.646h.26a15.479,15.479,0,1,1,28.263,0h.2l-1.009,1.646c-5.531,8.573-5.139,12.605-5.134,12.644l.138,1.191Zm-11.729-3.855h9.192a29.587,29.587,0,0,1,2.967-7.785h-.075l2.494-4.215a11.623,11.623,0,1,0-19.963,0l2.513,4.215h-.1A29.545,29.545,0,0,1,1041.957,1527.757Z" transform="translate(-1031.075 -1494.343)" fill="#f8951d"/>
      </g>
    </g>
  </g>
  <g id="Gruppe_147" data-name="Gruppe 147">
    <path id="Pfad_241" data-name="Pfad 241" d="M1028.3,1494.6a2.642,2.642,0,1,0,3.733-3.738l-3.693-3.7a2.642,2.642,0,1,0-3.734,3.738Z" transform="translate(-1016.08 -1478.644)" fill="#f8951d"/>
    <path id="Pfad_242" data-name="Pfad 242" d="M1024.25,1513.458a2.639,2.639,0,0,0-2.666-2.64h-5.231a2.64,2.64,0,1,0,0,5.28h5.231A2.645,2.645,0,0,0,1024.25,1513.458Z" transform="translate(-1013.69 -1484.412)" fill="#f8951d"/>
    <path id="Pfad_243" data-name="Pfad 243" d="M1083.8,1510.818h-5.228a2.64,2.64,0,1,0,0,5.28h5.228a2.64,2.64,0,1,0,0-5.28Z" transform="translate(-1028.374 -1484.412)" fill="#f8951d"/>
    <path id="Pfad_244" data-name="Pfad 244" d="M1028.336,1538.6l3.7-3.7a2.64,2.64,0,1,0-3.734-3.733l-3.7,3.7a2.64,2.64,0,1,0,3.734,3.734Z" transform="translate(-1016.08 -1489.027)" fill="#f8951d"/>
    <path id="Pfad_245" data-name="Pfad 245" d="M1050.826,1486.807c.024,0,.045.007.069.007a2.638,2.638,0,0,0,2.64-2.666v-5.228a2.646,2.646,0,0,0-2.64-2.666c-.024,0-.045.006-.069.007a2.633,2.633,0,0,0-2.571,2.659v5.228A2.644,2.644,0,0,0,1050.826,1486.807Z" transform="translate(-1021.848 -1476.254)" fill="#f8951d"/>
    <path id="Pfad_246" data-name="Pfad 246" d="M1072.335,1494.6l3.7-3.7a2.639,2.639,0,1,0-3.732-3.733l-3.7,3.695a2.641,2.641,0,1,0,3.734,3.735Z" transform="translate(-1026.464 -1478.644)" fill="#f8951d"/>
    <path id="Pfad_247" data-name="Pfad 247" d="M1072.334,1531.166a2.64,2.64,0,1,0-3.734,3.733l3.7,3.7a2.64,2.64,0,1,0,3.732-3.734Z" transform="translate(-1026.463 -1489.027)" fill="#f8951d"/>
  </g>
</svg>
