<svg xmlns="http://www.w3.org/2000/svg" width="12.427" height="12.427" viewBox="0 0 12.427 12.427">
  <path id="instagram" d="M6.213,0c-1.688,0-1.9.008-2.561.037A4.582,4.582,0,0,0,2.144.326a3.043,3.043,0,0,0-1.1.717,3.032,3.032,0,0,0-.717,1.1A4.568,4.568,0,0,0,.037,3.652C.006,4.315,0,4.525,0,6.213s.008,1.9.037,2.561a4.584,4.584,0,0,0,.289,1.508,3.047,3.047,0,0,0,.717,1.1,3.038,3.038,0,0,0,1.1.717,4.587,4.587,0,0,0,1.508.289c.663.031.874.037,2.561.037s1.9-.008,2.561-.037a4.6,4.6,0,0,0,1.508-.289A3.175,3.175,0,0,0,12.1,10.283a4.584,4.584,0,0,0,.289-1.508c.031-.663.037-.874.037-2.561s-.008-1.9-.037-2.561A4.6,4.6,0,0,0,12.1,2.144a3.05,3.05,0,0,0-.717-1.1,3.027,3.027,0,0,0-1.1-.717A4.571,4.571,0,0,0,8.775.037C8.112.006,7.9,0,6.213,0Zm0,1.118c1.658,0,1.856.008,2.511.037a3.423,3.423,0,0,1,1.153.215,2.045,2.045,0,0,1,1.18,1.179A3.431,3.431,0,0,1,11.271,3.7c.03.656.036.852.036,2.511S11.3,8.07,11.269,8.725a3.5,3.5,0,0,1-.218,1.153,1.973,1.973,0,0,1-.465.716,1.938,1.938,0,0,1-.715.464,3.456,3.456,0,0,1-1.157.214c-.66.03-.854.036-2.516.036s-1.857-.008-2.516-.038a3.523,3.523,0,0,1-1.158-.218,1.924,1.924,0,0,1-.714-.465,1.887,1.887,0,0,1-.466-.715,3.526,3.526,0,0,1-.217-1.157C1.1,8.061,1.1,7.86,1.1,6.206s.008-1.857.032-2.517a3.522,3.522,0,0,1,.217-1.157,1.842,1.842,0,0,1,.466-.715,1.838,1.838,0,0,1,.714-.465,3.439,3.439,0,0,1,1.15-.218c.66-.023.854-.031,2.516-.031l.023.016Zm0,1.9A3.191,3.191,0,1,0,9.4,6.213,3.19,3.19,0,0,0,6.213,3.023Zm0,5.262A2.071,2.071,0,1,1,8.285,6.213,2.071,2.071,0,0,1,6.213,8.285ZM10.276,2.9a.746.746,0,1,1-.746-.745A.746.746,0,0,1,10.276,2.9Z" fill="#333"/>
</svg>
