<svg id="Calque_1" data-name="Calque 1" xmlns="http://www.w3.org/2000/svg" viewBox="0 0 555.33333 153.33333"><defs><style>.cls-1{fill:#ffffff;}.cls-2{fill:#000000;}</style></defs><title>ID_Logo</title><path class="cls-1" d="M533.00477,131.59925,279.02171,147.92553a17.44591,17.44591,0,0,1-2.2385,0L22.80008,131.59925A17.44782,17.44782,0,0,1,6.47151,114.18737V37.97029A17.44784,17.44784,0,0,1,22.80009,20.5584L276.78321,4.23216a17.44591,17.44591,0,0,1,2.2385,0L533.00476,20.5584a17.44783,17.44783,0,0,1,16.32857,17.41189v76.21708A17.44782,17.44782,0,0,1,533.00477,131.59925Z"/><path class="cls-2" d="M45.30294,88.935V55.79126h9.485V88.935Z"/><path class="cls-2" d="M94.45116,88.935l-20.8555-21.88h-.16218v21.88h-9.485V55.79126H74.94217l20.964,21.88052h.10849V55.79126h9.485V88.935Z"/><path class="cls-2" d="M135.89149,63.28273V88.935h-9.485V63.28273H110.61614V55.79126h41.01091v7.49147Z"/><path class="cls-2" d="M156.31414,88.935V55.79126H192.3136v7.49147H165.7991v5.38889h18.00031v7.4909H165.7991v5.28154h27.80848V88.935Z"/><path class="cls-2" d="M232.40742,88.935l-7.8141-10.72469H210.09577V88.935h-9.485V55.79126H228.473c7.97628,0,13.20357,4.58088,13.20357,11.15583a10.11538,10.11538,0,0,1-6.95183,10.132L243.18636,88.935Zm-.10736-22.14948c0-2.102-1.72453-3.50275-4.74305-3.50275H210.09577v7.43664h17.51492C230.52185,70.71937,232.30006,69.10276,232.30006,66.78548Z"/><path class="cls-2" d="M299.92082,72.79932a17.39,17.39,0,0,1-6.9762,14.16958A24.926,24.926,0,0,1,277.531,91.94405H249.94935V52.7893H276.2336C290.78082,52.7893,299.92082,60.79354,299.92082,72.79932Zm-12.43843,6.598a11.02813,11.02813,0,0,0,2.43313-6.76016c0-7.13837-5.40836-12.33013-13.08711-12.33013H259.46756V84.42689h17.41472A13.75386,13.75386,0,0,0,287.48239,79.39731Z"/><path class="cls-2" d="M339.64862,88.9618l-7.81525-10.72469H317.337V88.9618h-9.485V55.8181h27.86215c7.97628,0,13.20358,4.58088,13.20358,11.15582a10.11539,10.11539,0,0,1-6.95184,10.132l8.46052,11.85592Zm-.1085-22.14948c0-2.102-1.72454-3.50276-4.74191-3.50276H317.337v7.43665h17.51492C337.7619,70.74621,339.54012,69.1296,339.54012,66.81232Z"/><path class="cls-2" d="M356.35266,88.9618V55.8181h9.485V88.9618Z"/><path class="cls-2" d="M405.50088,88.9618l-20.8555-21.87995h-.16218V88.9618h-9.485V55.8181h10.99365l20.964,21.88051h.10849V55.8181h9.485V88.9618Z"/><path class="cls-2" d="M458.20553,88.9618l-15.35982-15.036-7.65307,5.17361V88.9618h-9.485V55.8181h9.485V69.99187L456.103,55.8181h13.52678l-19.509,13.20357L470.76154,88.9618Z"/><path class="cls-2" d="M490.54577,62.33937c-6.46759,0-9.863,1.2934-9.863,3.17955,0,2.74841,4.58088,2.4252,13.25725,3.17954,12.18027,1.02388,17.94663,3.71861,17.94663,9.70025,0,7.06033-6.95184,11.587-19.8322,11.587a40.522,40.522,0,0,1-23.2276-6.73655l4.90409-5.928c5.22729,3.44908,11.10214,4.90408,18.26983,4.90408,6.46645,0,9.80817-1.23972,9.80817-3.12587,0-2.20935-5.33579-2.47888-15.09028-3.23322-10.50827-.80859-15.79038-4.25767-15.79038-10.0777,0-6.62863,6.84447-11.0479,18.80889-11.0479,8.62269,0,15.305,1.455,20.74815,5.11994l-4.47353,5.928A37.59513,37.59513,0,0,0,490.54577,62.33937Z"/><path class="cls-2" d="M151.06206,108.41309h-3.026v5.24717h-1.53184V101.02154h4.78729c2.5661,0,4.27063,1.41734,4.27063,3.69577a3.49791,3.49791,0,0,1-2.796,3.52356l3.56172,5.41939h-1.819Zm-3.026-1.43595h3.23636c1.8,0,2.68107-.74707,2.68107-2.25983s-.88112-2.25935-2.68107-2.25935h-3.23636Z"/><path class="cls-2" d="M174.13692,112.22383v1.43643h-9.15333V101.02154h8.86614V102.458h-7.3343v4.07886H172.222v1.43594h-5.70657v4.25107Z"/><path class="cls-2" d="M190.04969,110.15578H184.324l-1.34053,3.50448h-1.60817l4.92134-12.63872h1.819l4.90225,12.63872h-1.62772Zm-.55529-1.43594-1.70406-4.481-.59394-1.76177h-.03816l-.5553,1.704-1.72361,4.53874Z"/><path class="cls-2" d="M206.00158,113.85156c-3.60036,0-5.85971-2.50838-5.85971-6.51042,0-4.00253,2.29752-6.5109,5.82107-6.5109,2.45113,0,4.09794,1.03379,4.90226,2.9487l-1.51276.70891a3.18193,3.18193,0,0,0-3.27453-2.22166c-2.58518,0-4.32787,1.87675-4.32787,5.075,0,3.17864,1.62772,5.07447,4.25154,5.07447a3.52633,3.52633,0,0,0,3.56172-2.5661l1.53184.57438A5.203,5.203,0,0,1,206.00158,113.85156Z"/><path class="cls-2" d="M229.70854,101.02154v12.63872h-1.53183v-5.6875H221.3209v5.6875h-1.53184V101.02154h1.53184v5.51528h6.85581v-5.51528Z"/><path class="cls-2" d="M260.2322,102.458H255.828v11.2023h-1.53184V102.458h-4.40468v-1.43642H260.2322Z"/><path class="cls-2" d="M278.57773,101.02154v12.63872h-1.53207v-5.6875h-6.85582v5.6875H268.658V101.02154h1.53183v5.51528h6.85582v-5.51528Z"/><path class="cls-2" d="M297.61142,112.22383v1.43643h-9.15285V101.02154h8.86566V102.458h-7.3343v4.07886h5.70658v1.43594h-5.70658v4.25107Z"/><path class="cls-2" d="M320.22687,102.458v4.07886h5.70658v1.43594h-5.70658v5.6875h-1.53136V101.02154h8.84658V102.458Z"/><path class="cls-2" d="M337.65288,113.66026h-1.53232V101.02154h1.53232Z"/><path class="cls-2" d="M357.45368,113.66026h-1.89583l-5.28581-8.464L348.9315,102.707h-.01908l.07728,2.02941v8.92386h-1.456V101.02154h1.89584l5.26673,8.42581,1.35962,2.52794h.01908l-.07728-2.02989v-8.92386h1.456Z"/><path class="cls-2" d="M376.48737,112.22383v1.43643h-9.15285V101.02154h8.86566V102.458h-7.3343v4.07886h5.70658v1.43594h-5.70658v4.25107Z"/><path class="cls-2" d="M394.23873,103.51083l-1.32145,1.07243a3.37182,3.37182,0,0,0-3.54264-2.31707c-2.01033,0-3.12092.93837-3.12092,2.14485,0,1.1874.84248,1.78086,3.50447,2.24075,3.389.57438,4.596,1.6468,4.596,3.59988,0,2.16394-1.93495,3.59989-4.88318,3.59989a5.74169,5.74169,0,0,1-5.324-2.73832l1.32145-1.07243a4.08008,4.08008,0,0,0,4.04069,2.3748c1.95308,0,3.25545-.72751,3.25545-2.08713,0-1.09151-.82341-1.72361-3.48539-2.183-3.40907-.59394-4.63415-1.62773-4.63415-3.5622,0-2.02988,1.78038-3.753,4.71047-3.753A5.127,5.127,0,0,1,394.23873,103.51083Z"/><path class="cls-2" d="M411.62657,102.458h-4.40421v11.2023h-1.53231V102.458h-4.40421v-1.43642h10.34073Z"/></svg>