<svg id="internet" xmlns="http://www.w3.org/2000/svg" width="75.21" height="58.597" viewBox="0 0 75.21 58.597">
  <g id="Calque_1" data-name="Calque 1">
    <rect id="Rechteck_22" data-name="Rechteck 22" width="31.346" height="24.16" transform="translate(21.629)" fill="#ededed"/>
    <path id="Pfad_16" data-name="Pfad 16" d="M18.981,47.764V59.216H3.615V47.764H18.981m.723-3.615H2.9A2.91,2.91,0,0,0,0,47.041v12.9a2.91,2.91,0,0,0,2.9,2.9H19.74a2.919,2.919,0,0,0,2.9-2.9v-12.9a2.919,2.919,0,0,0-2.9-2.9Z" transform="translate(0 -4.244)" fill="#ededed"/>
    <path id="Pfad_17" data-name="Pfad 17" d="M48.387,47.764V59.216H33.022V47.764H48.387m.723-3.615H32.271a2.919,2.919,0,0,0-2.9,2.9V59.939a2.919,2.919,0,0,0,2.9,2.9H49.11a2.919,2.919,0,0,0,2.9-2.9v-12.9a2.919,2.919,0,0,0-2.9-2.9Z" transform="translate(-2.824 -4.244)" fill="#ededed"/>
    <path id="Pfad_18" data-name="Pfad 18" d="M77.187,47.764V59.216H61.822V47.764H77.187m.723-3.615H61.071a2.91,2.91,0,0,0-2.9,2.9V59.939a2.91,2.91,0,0,0,2.9,2.9H77.9a2.919,2.919,0,0,0,2.9-2.9v-12.9a2.919,2.919,0,0,0-2.9-2.9Z" transform="translate(-5.593 -4.244)" fill="#ededed"/>
    <path id="Pfad_19" data-name="Pfad 19" d="M66.619,34.009a1.609,1.609,0,0,0-1.6-1.6h-24.5V30.6a1.654,1.654,0,1,0-3.3,0v1.808H11.98a1.6,1.6,0,0,0-1.591,1.6v5.143a1.654,1.654,0,1,0,3.3,0V36.738h23.5v1.708a1.654,1.654,0,0,0,3.3,0V36.738H63.247v2.413a1.654,1.654,0,1,0,3.3,0V35.536a1.808,1.808,0,0,0,.072-.443Z" transform="translate(-0.998 -2.771)" fill="#ededed"/>
  </g>
</svg>
