<svg id="licence" xmlns="http://www.w3.org/2000/svg" width="74.724" height="77.302" viewBox="0 0 74.724 77.302">
  <g id="Calque_1" data-name="Calque 1">
    <path id="Pfad_35" data-name="Pfad 35" d="M51.325,13.077,46.066,8.21,33.846,22.042l-6.8-6L22.5,20.882,34.1,29.14l-.015.06Z" transform="translate(11.403 4.161)" fill="#ededed"/>
    <path id="Pfad_36" data-name="Pfad 36" d="M69.629,0H14.058A5.3,5.3,0,0,0,8.89,5.409V9.568L8.77,56.46h6.3V9.628A3.677,3.677,0,0,1,18.7,6.344a1.205,1.205,0,0,0,.5-.09l45.882.09a3.677,3.677,0,0,1,3.646,3.707c0,.256,0,27.755-.121,43.547h0V64.446h0a8.061,8.061,0,0,1-8.016,7.534c-4.325,0-7.805-3.737-9.041-7.76l-.377-3.511H0v3.722A13.139,13.139,0,0,0,13.411,77.3H61.779A13.124,13.124,0,0,0,74.722,64.461V5.409A5.289,5.289,0,0,0,69.629,0Z" fill="#ededed"/>
    <path id="Pfad_37" data-name="Pfad 37" d="M34.1,42.3l-.015.06L51.325,26.242,46.066,21.39,33.846,35.207l-6.8-6L22.5,34.047Z" transform="translate(11.403 10.841)" fill="#ededed"/>
  </g>
</svg>
