<svg id="logo_menu" xmlns="http://www.w3.org/2000/svg" width="59.454" height="58.187" viewBox="0 0 59.454 58.187">
  <g id="Layer_7" data-name="Layer 7">
    <path id="Pfad_1" data-name="Pfad 1" d="M289.86,130.51l-21.142,21.169a8.42,8.42,0,0,0-1.252,7.326c.027-.081,24.112-24.111,24.112-24.111A35.911,35.911,0,0,0,289.86,130.51Z" transform="translate(-233.931 -114.525)" fill="#f8951d"/>
    <path id="Pfad_2" data-name="Pfad 2" d="M124.115,26.076c-3.749,3.709-26.473,26.2-26.423,26.294C87.574,44.119,96.255,33.7,96.255,33.7l22.313-21.893h0A29.354,29.354,0,0,0,97.2,0L78.52,18.551c-3.793,3.767-.919,7.444-.919,7.444S97.984,5.806,97.964,5.78c9.12,9.055,2.05,17.879,2.05,17.879L74,49.476a29.288,29.288,0,0,0,50.115-23.4Z" transform="translate(-64.812 0)" fill="#f8951d"/>
    <path id="Pfad_3" data-name="Pfad 3" d="M29.236,31.777a7.1,7.1,0,0,0,1.8-7.841S10.225,44.851,10.172,44.8c-9-9-2.65-18.068-2.65-18.068L23.873,10.38a29.339,29.339,0,0,0-18.7,45.464Z" transform="translate(0 -9.091)" fill="#f8951d"/>
  </g>
</svg>
