<svg id="media" xmlns="http://www.w3.org/2000/svg" width="77" height="77" viewBox="0 0 77 77">
  <g id="Calque_1" data-name="Calque 1">
    <path id="Pfad_39" data-name="Pfad 39" d="M38.5,0A38.5,38.5,0,1,0,77,38.5,38.5,38.5,0,0,0,38.5,0Zm4.675,38.5A4.675,4.675,0,1,1,38.5,33.825,4.675,4.675,0,0,1,43.175,38.5Zm5.57-7.634L62.526,20.448a29.885,29.885,0,0,1,4.748,9.365l-16.609,4.82a13.1,13.1,0,0,0-1.919-3.766ZM38.5,68.558A30.058,30.058,0,1,1,46.278,9.466l-4.084,16.8a12.511,12.511,0,0,0-3.694-.548A12.785,12.785,0,1,0,51.285,38.5v-.794L68.6,37.129V38.5A30.073,30.073,0,0,1,38.5,68.558Z" transform="translate(0 0)" fill="#c2c2ca"/>
  </g>
</svg>
