<svg id="musicians" xmlns="http://www.w3.org/2000/svg" width="56.74" height="73.773" viewBox="0 0 56.74 73.773">
  <g id="Calque_1" data-name="Calque 1">
    <path id="Pfad_41" data-name="Pfad 41" d="M40.623,23.644c0,13.007-6.988,23.644-15.538,23.644S9.56,36.637,9.56,23.644,16.548,0,25.085,0,40.623,10.637,40.623,23.644Z" transform="translate(3.312)" fill="#ededed"/>
    <path id="Pfad_42" data-name="Pfad 42" d="M28.68,51.306C13.465,51.306,2.154,41.5,0,26.154l7.029-.983C8.685,36.913,16.979,44.2,28.68,44.2c11.23,0,19.47-7.944,21.018-20.2l7.042.889C54.748,40.683,43.478,51.306,28.68,51.306Z" transform="translate(0 8.315)" fill="#ededed"/>
    <rect id="Rechteck_35" data-name="Rechteck 35" width="9.331" height="10.57" transform="translate(24.048 57.966)" fill="#ededed"/>
    <path id="Pfad_43" data-name="Pfad 43" d="M36.713,53.441c0,1.535-2.612,2.787-5.8,2.787H17.633c-3.2,0-5.8-1.252-5.8-2.787s2.612-2.8,5.8-2.8H30.909C34.1,50.64,36.713,51.892,36.713,53.441Z" transform="translate(4.099 17.545)" fill="#ededed"/>
  </g>
</svg>
