<svg id="people" xmlns="http://www.w3.org/2000/svg" width="105.523" height="58.076" viewBox="0 0 105.523 58.076">
  <g id="Gruppe_165" data-name="Gruppe 165" transform="translate(25.277)">
    <path id="Pfad_258" data-name="Pfad 258" d="M1112.395,1619.082c0,7.962-6.461,16.1-12.352,16.1s-11.931-7.717-11.931-15.68,6.04-11.89,11.931-11.89S1112.395,1611.119,1112.395,1619.082Z" transform="translate(-1073.444 -1607.612)" fill="#f8951d"/>
    <path id="Pfad_259" data-name="Pfad 259" d="M1104.156,1641.108l-10.826-12.952s-.775.3-1.155.459c-8.792,3.709-14.828,11.371-14.828,20.222a19.209,19.209,0,0,0,.5,4.342c6.788,3.138,15.948,5.062,26.029,5.062,10.392,0,19.806-2.045,26.653-5.357a19.244,19.244,0,0,0,.437-4.047c0-8.814-5.987-16.449-14.718-20.176-.289-.123-.876-.357-.876-.357Z" transform="translate(-1077.346 -1600.165)" fill="#f8951d"/>
  </g>
  <g id="Gruppe_166" data-name="Gruppe 166" transform="translate(68.972 6.081)">
    <path id="Pfad_260" data-name="Pfad 260" d="M1133.309,1619.893c0,5.428-4.405,10.976-8.422,10.976s-8.133-5.26-8.133-10.689a7.813,7.813,0,0,1,8.133-8.105C1128.9,1612.075,1133.309,1614.466,1133.309,1619.893Z" transform="translate(-1106.756 -1612.075)" fill="#f8951d"/>
    <path id="Pfad_261" data-name="Pfad 261" d="M1127.692,1634.909l-7.381-8.829s-.527.2-.787.312c-5.994,2.529-10.108,7.753-10.108,13.786a13.172,13.172,0,0,0,.341,2.961,43.326,43.326,0,0,0,17.744,3.45,42.824,42.824,0,0,0,18.17-3.651,13.133,13.133,0,0,0,.3-2.759c0-6.009-4.079-11.213-10.032-13.753-.2-.084-.6-.244-.6-.244Z" transform="translate(-1109.416 -1606.998)" fill="#f8951d"/>
  </g>
  <g id="Gruppe_167" data-name="Gruppe 167" transform="translate(0 5.688)">
    <path id="Pfad_262" data-name="Pfad 262" d="M1082.686,1619.605c0,5.428-4.4,10.976-8.42,10.976s-8.133-5.262-8.133-10.689a7.813,7.813,0,0,1,8.133-8.105C1078.282,1611.787,1082.686,1614.177,1082.686,1619.605Z" transform="translate(-1056.134 -1611.787)" fill="#f8951d"/>
    <path id="Pfad_263" data-name="Pfad 263" d="M1077.071,1634.621l-7.381-8.829s-.529.2-.787.312c-5.994,2.527-10.109,7.751-10.109,13.786a13.09,13.09,0,0,0,.341,2.959,43.327,43.327,0,0,0,17.744,3.451,42.809,42.809,0,0,0,18.169-3.651,13.063,13.063,0,0,0,.3-2.759c0-6.009-4.081-11.213-10.032-13.753-.2-.084-.6-.244-.6-.244Z" transform="translate(-1058.794 -1606.71)" fill="#f8951d"/>
  </g>
</svg>
