<svg xmlns="http://www.w3.org/2000/svg" width="52.347" height="55.384" viewBox="0 0 52.347 55.384">
  <g id="phone" transform="translate(-1095 -1615)">
    <g id="iphone" transform="translate(592.046 -477.135)">
      <g id="body" transform="translate(502.954 2110.697)">
        <path id="Pfad_251" data-name="Pfad 251" d="M531,2116.661l-11.44-5.565a4.421,4.421,0,0,0-3.992.142l-11.744,24.17c-1.571,3.238-.841,5.364.905,6.22l11.44,5.565c1.75.848,3.874.116,5.442-3.119l11.745-24.175A4.461,4.461,0,0,0,531,2116.661Zm-23.815,18.29,10-20.565,12.7,6.186-9.994,20.574-12.7-6.195Z" transform="translate(-502.954 -2110.697)" fill="#fff"/>
      </g>
    </g>
    <g id="Gruppe_152" data-name="Gruppe 152" transform="translate(658.478 365.728)">
      <path id="Pfad_248" data-name="Pfad 248" d="M470.139,1249.3a3.078,3.078,0,0,0-.562-.026h-.016v0a2.657,2.657,0,0,0-1.646.606,1.991,1.991,0,0,0,1.683,3.421,14.753,14.753,0,0,1,15.234,16.333,1.991,1.991,0,0,0,3.3,1.916,2.661,2.661,0,0,0,.719-1.6h0v-.016a3.027,3.027,0,0,0,.013-.562,18.97,18.97,0,0,0-18.723-20.073Z" fill="#fff"/>
      <path id="Pfad_249" data-name="Pfad 249" d="M467.653,1256.391a2.239,2.239,0,0,0-.419-.02h-.012a1.985,1.985,0,0,0-1.228.452,1.485,1.485,0,0,0,1.255,2.551,11,11,0,0,1,11.362,12.181,1.486,1.486,0,0,0,2.458,1.43,1.989,1.989,0,0,0,.537-1.194h0v-.012a2.266,2.266,0,0,0,.01-.419,14.147,14.147,0,0,0-13.964-14.97Z" fill="#fff"/>
      <path id="Pfad_250" data-name="Pfad 250" d="M467,1263.028a1.338,1.338,0,0,0-.238-.012h-.007a1.129,1.129,0,0,0-.7.257.845.845,0,0,0,.714,1.453,6.265,6.265,0,0,1,6.469,6.935.846.846,0,0,0,1.4.814,1.127,1.127,0,0,0,.3-.68h0v-.006a1.368,1.368,0,0,0,.006-.239,8.055,8.055,0,0,0-7.951-8.523Z" fill="#fff"/>
    </g>
  </g>
</svg>
