<svg xmlns="http://www.w3.org/2000/svg" width="137.417" height="206" viewBox="0 0 137.417 206">
  <g id="plan" transform="translate(-357.291 -2427.5)">
    <g id="Gruppe_161" data-name="Gruppe 161" transform="translate(465.291 2505.278)">
      <path id="Pfad_252" data-name="Pfad 252" d="M103.674,2025.012h-29v-19.336l14.5,9.755,14.5-9.755Z" transform="translate(-74.674 -2003.183)" fill="#f8951d"/>
      <path id="Pfad_253" data-name="Pfad 253" d="M103.674,2003.836h-29v.079l14.5,9.348Z" transform="translate(-74.674 -2003.836)" fill="#f8951d"/>
    </g>
    <g id="Gruppe_3909" data-name="Gruppe 3909" transform="translate(465.291 2572.278)">
      <path id="Pfad_252-2" data-name="Pfad 252" d="M103.674,2025.012h-29v-19.336l14.5,9.755,14.5-9.755Z" transform="translate(-74.674 -2003.183)" fill="#f8951d"/>
      <path id="Pfad_253-2" data-name="Pfad 253" d="M103.674,2003.836h-29v.079l14.5,9.348Z" transform="translate(-74.674 -2003.836)" fill="#f8951d"/>
    </g>
    <g id="Gruppe_3910" data-name="Gruppe 3910" transform="translate(357.291 2526.278)">
      <path id="Pfad_252-3" data-name="Pfad 252" d="M103.674,2025.012h-29v-19.336l14.5,9.755,14.5-9.755Z" transform="translate(-74.674 -2003.183)" fill="#f8951d"/>
      <path id="Pfad_253-3" data-name="Pfad 253" d="M103.674,2003.836h-29v.079l14.5,9.348Z" transform="translate(-74.674 -2003.836)" fill="#f8951d"/>
    </g>
    <line id="Linie_23" data-name="Linie 23" x1="20" y2="20" transform="translate(444.721 2537.5)" fill="none" stroke="#f8951d" stroke-width="1"/>
    <line id="Linie_24" data-name="Linie 24" x1="20" y2="20" transform="translate(445.451 2601.5)" fill="none" stroke="#f8951d" stroke-width="1"/>
    <line id="Linie_25" data-name="Linie 25" x2="31" y2="31" transform="translate(388.697 2556.5)" fill="none" stroke="#f8951d" stroke-width="1"/>
    <line id="Linie_22" data-name="Linie 22" y2="206" transform="translate(432.291 2427.5)" fill="none" stroke="#f8951d" stroke-width="1"/>
    <g id="note" transform="translate(481.468 2544)">
      <path id="Pfad_254" data-name="Pfad 254" d="M1117,1756.151c-.678.271-.143-.272-.143-.272s1.14-1.677.327-3.037c-.637-1.059-2.741-.862-3.541-1.338v11.347a.6.6,0,0,1-.02.085,4.005,4.005,0,0,1-2.962,2.977c-2.053.663-4.092.049-4.552-1.372s.828-3.115,2.881-3.782a3.62,3.62,0,0,1,2.27-.01l.008-13.359a.488.488,0,0,1,.486-.487h1.4a.489.489,0,0,1,.489.487v.44c1.6.8,4.953,1.567,5.491,3.719A4.188,4.188,0,0,1,1117,1756.151Z" transform="translate(-1106.016 -1746.903)" fill="#f8951d"/>
    </g>
    <g id="Gruppe_163" data-name="Gruppe 163" transform="translate(357.687 2502)">
      <path id="Pfad_255" data-name="Pfad 255" d="M476.484,1173.361h-6.172a2.969,2.969,0,0,0-2.263,2.674v8.572a1.238,1.238,0,0,0,1.234,1.234h7.2a1.238,1.238,0,0,0,1.234-1.234V1174.6A1.238,1.238,0,0,0,476.484,1173.361Zm.256,4.937v5.949c0,.581-.2.579-.705.579h-6.3c-.5,0-.706,0-.706-.579v-6.566h-.018v-1.133a.58.58,0,0,1,.019-.134h1.7v-2.038h5.311c.5,0,.705,0,.705.579Z" transform="translate(-468.049 -1173.361)" fill="#f8951d"/>
      <rect id="Rechteck_69" data-name="Rechteck 69" width="5.349" height="0.681" rx="0.341" transform="translate(2.04 5.154)" fill="#f8951d"/>
      <rect id="Rechteck_70" data-name="Rechteck 70" width="5.349" height="0.681" rx="0.341" transform="translate(2.04 6.945)" fill="#f8951d"/>
      <rect id="Rechteck_71" data-name="Rechteck 71" width="3.335" height="0.681" rx="0.341" transform="translate(2.04 8.728)" fill="#f8951d"/>
    </g>
    <g id="Gruppe_164" data-name="Gruppe 164" transform="translate(476.977 2485.15)">
      <path id="Pfad_256" data-name="Pfad 256" d="M274.033,1218.528v4.269l4.422,2.849v-9.967Z" transform="translate(-261.698 -1215.679)" fill="#f8951d"/>
      <path id="Pfad_257" data-name="Pfad 257" d="M266.773,1215.679h-9.949a1.181,1.181,0,0,0-1.106,1.246v7.475a1.181,1.181,0,0,0,1.106,1.246h9.949a1.181,1.181,0,0,0,1.105-1.246v-7.475A1.183,1.183,0,0,0,266.773,1215.679Zm-6.309,7.316.012-1.446.015-1.772.012-1.446,3.056,2.387Z" transform="translate(-255.718 -1215.679)" fill="#f8951d"/>
    </g>
    <text id="_6_years" data-name="6 years" transform="translate(440.359 2457.5) rotate(90)" fill="#2d3032" font-size="16" font-family="Roboto-Bold, Roboto" font-weight="700" letter-spacing="0.025em"><tspan x="-27.391" y="0">6 years</tspan></text>
  </g>
</svg>
