<svg id="saboconFull" xmlns="http://www.w3.org/2000/svg" width="68.674" height="67.683" viewBox="0 0 68.674 67.683">
  <g id="Layer_7" data-name="Layer 7">
    <path id="Pfad_1" data-name="Pfad 1" d="M293.39,130.51l-24.421,24.452a9.726,9.726,0,0,0-1.446,8.462c.032-.093,27.851-27.85,27.851-27.85A41.481,41.481,0,0,0,293.39,130.51Z" transform="translate(-228.788 -111.792)" fill="#f8951d"/>
    <path id="Pfad_2" data-name="Pfad 2" d="M131.887,30.331c-4.33,4.314-30.578,30.472-30.52,30.585C89.679,51.32,99.706,39.2,99.706,39.2l25.773-25.466h0A33.848,33.848,0,0,0,100.8,0L79.221,21.578c-4.382,4.382-1.061,8.658-1.061,8.658S101.7,6.754,101.681,6.724c10.534,10.533,2.368,20.8,2.368,20.8L74,57.55a33.891,33.891,0,0,0,58.061-23.761,34.46,34.46,0,0,0-.174-3.463Z" transform="translate(-63.387 0)" fill="#f8951d"/>
    <path id="Pfad_3" data-name="Pfad 3" d="M33.77,35.095a8.2,8.2,0,0,0,2.077-9.057s-24.036,24.16-24.1,24.1c-10.4-10.4-3.061-20.87-3.061-20.87L27.576,10.38a33.889,33.889,0,0,0-21.6,52.514Z" transform="translate(0 -8.891)" fill="#f8951d"/>
  </g>
</svg>
