<svg id="sabocon" xmlns="http://www.w3.org/2000/svg" width="109.145" height="106.819" viewBox="0 0 109.145 106.819">
  <g id="Layer_7" data-name="Layer 7">
    <path id="Pfad_1" data-name="Pfad 1" d="M308.886,130.51l-38.812,38.863a15.457,15.457,0,0,0-2.3,13.449c.05-.148,44.265-44.263,44.265-44.263A65.921,65.921,0,0,0,308.886,130.51Z" transform="translate(-206.212 -101.165)" fill="#fff"/>
    <path id="Pfad_2" data-name="Pfad 2" d="M166,47.869c-6.882,6.809-48.6,48.091-48.507,48.27-18.575-15.145-2.64-34.27-2.64-34.27l40.962-40.192h0A53.888,53.888,0,0,0,116.594,0L82.3,34.055C75.333,40.97,80.61,47.72,80.61,47.72s37.42-37.061,37.383-37.109c16.743,16.623,3.763,32.821,3.763,32.821L74,90.827a53.766,53.766,0,0,0,92-42.966Z" transform="translate(-57.132 0)" fill="#fff"/>
    <path id="Pfad_3" data-name="Pfad 3" d="M53.672,49.66c6.838-6.838,3.3-14.395,3.3-14.395s-38.2,38.4-38.3,38.3C2.152,57.041,13.809,40.4,13.809,40.4L43.827,10.38A53.861,53.861,0,0,0,9.5,93.842Z" transform="translate(0 -8.014)" fill="#fff"/>
  </g>
</svg>
