<svg id="social" xmlns="http://www.w3.org/2000/svg" width="77" height="65.753" viewBox="0 0 77 65.753">
  <g id="Calque_1" data-name="Calque 1">
    <path id="Pfad_33" data-name="Pfad 33" d="M41.835,40.152a8.541,8.541,0,0,1-1.023-3.393,29.993,29.993,0,0,1,2.324-8.913,6.554,6.554,0,0,0,2.185-2.278,6.717,6.717,0,0,0,.5-3.754,1.348,1.348,0,0,1-.5-1.22,37.047,37.047,0,0,0,1.034-10.075C45.856,4,39.383,1.106,36.641.478A18.989,18.989,0,0,0,24.4,1.733c-4.741,2.254-5.729,6.659-5.973,9.541s1.162,9.843,1.162,9.843-1.313.267-1.034,2.743a5.81,5.81,0,0,0,2.545,3.87s3.649,7.972,2.812,10.819S14.851,44.521,9.064,49.007C1.487,52.935,0,65.741,0,65.741H65.507s-.988-11.3-5.473-16.06S43,43.406,41.835,40.152Z" transform="translate(0 0.012)" fill="#c2c2ca"/>
    <path id="Pfad_34" data-name="Pfad 34" d="M57.973.25A11.481,11.481,0,1,0,66.1,3.613,11.493,11.493,0,0,0,57.973.25Zm4.962,11.621c-.523.569-.988,1.162-1.453,1.639,0,1.522.372,2.777.453,4.276-1.395-.488-2.533-1.22-3.916-1.732-1.348.535-2.51,1.255-3.9,1.732.2-1.336.279-2.812.546-4.091-.837-1.29-2.08-2.115-2.928-3.4,1.418-.2,2.673-.546,4.091-.732.825-1.162,1.429-2.58,2.185-3.823.79,1.162,1.406,2.6,2.185,3.823,1.395.186,2.65.511,4,.732.081.511-.779,1.034-1.255,1.546Z" transform="translate(7.534 0.054)" fill="#c2c2ca"/>
  </g>
</svg>
