<svg id="sound" xmlns="http://www.w3.org/2000/svg" width="74.228" height="77.467" viewBox="0 0 74.228 77.467">
  <g id="Calque_1" data-name="Calque 1">
    <path id="Pfad_40" data-name="Pfad 40" d="M74.114,11.437a12.039,12.039,0,0,0,0-3.275L72.949,2.835C72.541,1.029,71.1-.206,69.79,0L23.17,8.593c-1.352.233-2.121,1.9-1.737,3.683l.245,1.037V51.378A18.007,18.007,0,0,0,8.613,52.6c-7.669,3.846-10.8,12.086-6.993,18.4S14.7,79.339,22.366,75.5c6.422-3.217,9.65-9.534,8.3-15.151a2.506,2.506,0,0,0,.664-1.678V30.9l33.228-5.827V45.1A18.007,18.007,0,0,0,51.445,46.32c-7.669,3.846-10.792,12.086-6.993,18.4s13.077,8.345,20.734,4.5c6.434-3.228,9.662-9.522,8.31-15.151a2.448,2.448,0,0,0,.653-1.667ZM64.557,21.926,31.329,27.754V17.346l33.228-6.131Z" transform="translate(0.002 0.02)" fill="#c2c2ca"/>
  </g>
</svg>
