<svg xmlns="http://www.w3.org/2000/svg" width="15.327" height="12.457" viewBox="0 0 15.327 12.457">
  <path id="twitter" d="M15.3,3.729a6.386,6.386,0,0,1-1.8.495,3.166,3.166,0,0,0,1.381-1.739,6.49,6.49,0,0,1-2,.756A3.141,3.141,0,0,0,7.442,5.386a3.215,3.215,0,0,0,.081.718A8.9,8.9,0,0,1,1.047,2.83,3.079,3.079,0,0,0,.622,4.411a3.142,3.142,0,0,0,1.4,2.616A3.132,3.132,0,0,1,.6,6.633v.039a3.144,3.144,0,0,0,2.52,3.083A3.171,3.171,0,0,1,1.7,9.809a3.153,3.153,0,0,0,2.94,2.182,6.3,6.3,0,0,1-3.9,1.344A6.669,6.669,0,0,1,0,13.293,8.938,8.938,0,0,0,4.826,14.7a8.875,8.875,0,0,0,8.94-8.932c0-.133,0-.268-.01-.4a6.345,6.345,0,0,0,1.571-1.627l-.03-.013Z" transform="translate(0 -2.246)" fill="#333"/>
</svg>
