<svg xmlns="http://www.w3.org/2000/svg" width="929" height="389.832" viewBox="0 0 929 389.832">
  <g id="whatwedo" transform="translate(-14.424 -52.642)">
    <path id="Pfad_45" data-name="Pfad 45" d="M136.8,113.7v-5.614a5.03,5.03,0,0,0-5.005-5.005H92.2v-1.343a5.154,5.154,0,0,0-5.124-5.124H65.645a5.167,5.167,0,0,0-5.128,5.124v59.9a5.022,5.022,0,0,0,5.005,5.005H131.8a5.019,5.019,0,0,0,5.005-5.005Z" transform="translate(136.004 128.704)" fill="#f8951d" fill-rule="evenodd"/>
    <path id="Pfad_46" data-name="Pfad 46" d="M141.746,116.048v-6.455a4.321,4.321,0,0,0-1.272-3.062l0,0-.02-.02a4.325,4.325,0,0,0-3.038-1.252H103.859a1.423,1.423,0,0,1-1.422-1.418v-1.545a4.455,4.455,0,0,0-1.308-3.157l0,0,0,0a4.446,4.446,0,0,0-3.157-1.32H65.677a4.458,4.458,0,0,0-3.157,1.312l-.008.008-.02.02a4.455,4.455,0,0,0-1.288,3.137v63.451a4.35,4.35,0,0,0,4.334,4.334h71.874a4.318,4.318,0,0,0,3.058-1.272l0,0,.02-.02a4.325,4.325,0,0,0,1.252-3.038v-49.7Zm2.84-6.455v56.15a7.17,7.17,0,0,1-2.07,5.029l-.036.036h0v0a7.16,7.16,0,0,1-5.065,2.11H65.538a7.2,7.2,0,0,1-7.178-7.178V102.292a7.28,7.28,0,0,1,2.114-5.128l.036-.036v0l0,0a7.3,7.3,0,0,1,5.163-2.149H97.965a7.3,7.3,0,0,1,5.167,2.149v0a7.293,7.293,0,0,1,2.149,5.167v.122h32.131a7.153,7.153,0,0,1,5.029,2.07l.036.036v0h0a7.159,7.159,0,0,1,2.106,5.069ZM67.363,117.47a1.422,1.422,0,1,1,0-2.844h68.781a1.422,1.422,0,0,1,0,2.844Z" transform="translate(129.639 123.853)" fill="#333" fill-rule="evenodd"/>
    <path id="Pfad_47" data-name="Pfad 47" d="M368.823,371.1H151.791A6.775,6.775,0,0,1,147,369.113v0l0,0a6.77,6.77,0,0,1-1.991-4.8v-284A6.768,6.768,0,0,1,147,75.525l0,0,.028-.028a6.776,6.776,0,0,1,4.764-1.967H368.823a6.769,6.769,0,0,1,4.788,2l0,0h0l.032.036a6.774,6.774,0,0,1,1.96,4.757v284a6.765,6.765,0,0,1-1.991,4.788l0,0h0l-.036.036a6.758,6.758,0,0,1-4.753,1.96Zm-217.032-2.844H368.823a3.923,3.923,0,0,0,2.761-1.134l.02-.02.008-.008a3.923,3.923,0,0,0,1.154-2.781v-284a3.933,3.933,0,0,0-1.134-2.765l-.02-.02-.008,0a3.907,3.907,0,0,0-2.781-1.154H151.791a3.938,3.938,0,0,0-2.758,1.126l-.028.024,0,.008a3.947,3.947,0,0,0-1.154,2.785v284a3.95,3.95,0,0,0,1.158,2.785h0A3.92,3.92,0,0,0,151.791,368.259Z" transform="translate(385.294 60.577)" fill="#333" fill-rule="evenodd"/>
    <path id="Pfad_48" data-name="Pfad 48" d="M196.122,82.211h44.03v3.33q6.039-.569,11.8-1.64v38.349q-5.76-1.061-11.8-1.64v3.334h-10.7a20.838,20.838,0,0,0,7.4,13.634q.255.225.521.45c-1.96,2.441-3.864,3.9-7.182,4.283a7.731,7.731,0,0,0,3.753,1.679c-5.092,5.1,5.961,21.227,6.684,26.489.34,2.524-19.635,6.661-23.976,6.692-12.721-5.807-3.947-32.123-12.231-48.648a23.163,23.163,0,0,0-2.991-4.579h-5.306v-3.014a2.282,2.282,0,0,1-.367,0,6.886,6.886,0,0,1-1.561-.126l-.016,0a9.838,9.838,0,0,1-8.229-9.679V95.035a9.833,9.833,0,0,1,9.805-9.809h.367Z" transform="translate(506.108 86.203)" fill="#e8f1f2" fill-rule="evenodd"/>
    <path id="Pfad_49" data-name="Pfad 49" d="M146.8,92.125H249.663a18.666,18.666,0,0,1,18.611,18.611V305.23H146.8Z" transform="translate(390.605 115.455)" fill="#e8f1f2" fill-rule="evenodd"/>
    <path id="Pfad_50" data-name="Pfad 50" d="M151.7,95a1.422,1.422,0,1,1,0-2.844h178.9a1.422,1.422,0,1,1,0,2.844Z" transform="translate(400.841 115.544)" fill="#333" fill-rule="evenodd"/>
    <path id="Pfad_51" data-name="Pfad 51" d="M151.7,100.017a1.422,1.422,0,1,1,0-2.844H306.1a1.422,1.422,0,1,1,0,2.844Z" transform="translate(400.841 130.35)" fill="#333" fill-rule="evenodd"/>
    <path id="Pfad_52" data-name="Pfad 52" d="M151.7,105.036a1.422,1.422,0,1,1,0-2.844h171a1.422,1.422,0,1,1,0,2.844Z" transform="translate(400.841 145.159)" fill="#333" fill-rule="evenodd"/>
    <path id="Pfad_53" data-name="Pfad 53" d="M151.7,110.055a1.422,1.422,0,1,1,0-2.844h157.22a1.422,1.422,0,0,1,0,2.844Z" transform="translate(400.841 159.969)" fill="#333" fill-rule="evenodd"/>
    <path id="Pfad_54" data-name="Pfad 54" d="M151.7,115.074a1.422,1.422,0,1,1,0-2.844h187.88a1.422,1.422,0,0,1,0,2.844Z" transform="translate(400.841 174.778)" fill="#333" fill-rule="evenodd"/>
    <path id="Pfad_55" data-name="Pfad 55" d="M151.7,120.093a1.422,1.422,0,0,1,0-2.844H324.95a1.422,1.422,0,0,1,0,2.844Z" transform="translate(400.841 189.587)" fill="#333" fill-rule="evenodd"/>
    <path id="Pfad_56" data-name="Pfad 56" d="M151.7,125.112a1.422,1.422,0,1,1,0-2.844h187.88a1.422,1.422,0,0,1,0,2.844Z" transform="translate(400.841 204.396)" fill="#333" fill-rule="evenodd"/>
    <path id="Pfad_57" data-name="Pfad 57" d="M151.7,130.131a1.422,1.422,0,0,1,0-2.844H324.666a1.422,1.422,0,0,1,0,2.844Z" transform="translate(400.841 219.206)" fill="#333" fill-rule="evenodd"/>
    <path id="Pfad_58" data-name="Pfad 58" d="M151.7,135.15a1.422,1.422,0,0,1,0-2.844h178.9a1.422,1.422,0,0,1,0,2.844Z" transform="translate(400.841 234.015)" fill="#333" fill-rule="evenodd"/>
    <path id="Pfad_59" data-name="Pfad 59" d="M151.7,140.17a1.422,1.422,0,1,1,0-2.844h168.19a1.422,1.422,0,0,1,0,2.844Z" transform="translate(400.841 248.827)" fill="#333" fill-rule="evenodd"/>
    <path id="Pfad_60" data-name="Pfad 60" d="M129.545,128.917v-9.1a8.914,8.914,0,0,0-8.893-8.893H48.984a8.914,8.914,0,0,0-8.893,8.893V250.435a8.911,8.911,0,0,0,8.893,8.889h71.669a8.908,8.908,0,0,0,8.893-8.889Z" transform="translate(75.734 170.93)" fill="#f4f6f8" fill-rule="evenodd"/>
    <rect id="Rechteck_45" data-name="Rechteck 45" width="89.455" height="117.961" transform="translate(115.825 297.076)" fill="#f4f6f8"/>
    <path id="Pfad_61" data-name="Pfad 61" d="M129.545,128.917v-9.1a8.914,8.914,0,0,0-8.893-8.893H48.984a8.914,8.914,0,0,0-8.893,8.893V250.435a8.911,8.911,0,0,0,8.893,8.889h71.669a8.908,8.908,0,0,0,8.893-8.889Z" transform="translate(75.734 170.93)" fill="#f4f6f8" fill-rule="evenodd"/>
    <path id="Pfad_62" data-name="Pfad 62" d="M129.185,129.979v-9.1A7.431,7.431,0,0,0,127,115.607l0,0v0a7.452,7.452,0,0,0-5.278-2.2H50.046a7.452,7.452,0,0,0-5.278,2.2l-.067.059a7.46,7.46,0,0,0-2.125,5.215V251.5a7.431,7.431,0,0,0,2.189,5.274l0,.008a7.46,7.46,0,0,0,5.278,2.185h71.669a7.473,7.473,0,0,0,7.471-7.467V129.979Zm2.844-9.1V251.5a10.277,10.277,0,0,1-3,7.257l-.024.024,0,.008a10.292,10.292,0,0,1-7.285,3.026H50.046a10.278,10.278,0,0,1-7.249-3l-.032-.032h0l0,0a10.28,10.28,0,0,1-3.026-7.281V120.881a10.273,10.273,0,0,1,2.955-7.206l.071-.083a10.3,10.3,0,0,1,7.289-3.026h71.669A10.3,10.3,0,0,1,129,113.592l0,0A10.293,10.293,0,0,1,132.03,120.881Z" transform="translate(74.672 169.868)" fill="#333" fill-rule="evenodd"/>
    <path id="Pfad_63" data-name="Pfad 63" d="M41.153,147.121a1.422,1.422,0,1,1,0-2.844h89.454a1.422,1.422,0,0,1,0,2.844Z" transform="translate(74.672 269.337)" fill="#333" fill-rule="evenodd"/>
    <path id="Pfad_64" data-name="Pfad 64" d="M51.1,115.408a1.422,1.422,0,1,1,0-2.844h10.88a1.422,1.422,0,1,1,0,2.844Z" transform="translate(104.016 175.763)" fill="#333" fill-rule="evenodd"/>
    <path id="Pfad_65" data-name="Pfad 65" d="M51.917,149.053a1.422,1.422,0,0,1,0-2.844h4.409a1.422,1.422,0,0,1,0,2.844Z" transform="translate(106.432 275.038)" fill="#333" fill-rule="evenodd"/>
    <path id="Pfad_66" data-name="Pfad 66" d="M154.9,125.759v16.012l26.6,23.471v74.631H60.667V165.242l25.525-22.523v-16.96h19.224l4.543-4.01a16.741,16.741,0,0,1,22.25,0l4.547,4.01Z" transform="translate(136.446 190.381)" fill="#fff" fill-rule="evenodd"/>
    <path id="Pfad_67" data-name="Pfad 67" d="M69.053,121.684h61.1v48.044l-24.447,14.752c-6.609-3.721-12.836-3.52-18.742,0L69.053,173.414Z" transform="translate(161.19 202.673)" fill="#f8951d" fill-rule="evenodd"/>
    <path id="Pfad_68" data-name="Pfad 68" d="M183.5,165.241a1.418,1.418,0,0,1-1.877,2.125l-26.6-23.471a1.418,1.418,0,1,1,1.877-2.125l26.6,23.471Zm-44.749-39.483a1.416,1.416,0,0,1-1.877,2.122l-4.543-4.006a15.337,15.337,0,0,0-20.373,0l-4.547,4.006a1.416,1.416,0,1,1-1.877-2.122l4.547-4.01a18.145,18.145,0,0,1,24.127,0l4.543,4.01ZM86.31,142.723a1.416,1.416,0,1,1,1.877,2.122L62.666,167.367a1.418,1.418,0,1,1-1.877-2.125Z" transform="translate(135.388 189.319)" fill="#333" fill-rule="evenodd"/>
    <path id="Pfad_69" data-name="Pfad 69" d="M63.151,205.3a1.422,1.422,0,1,1-2.844,0V130.66a1.423,1.423,0,0,1,2.272-1.142l50.943,31.467a1.418,1.418,0,1,1-1.489,2.414L63.151,133.2Z" transform="translate(135.384 224.962)" fill="#333" fill-rule="evenodd"/>
    <path id="Pfad_70" data-name="Pfad 70" d="M61.729,206.718a1.422,1.422,0,0,1,0-2.844H181.145V133.2L132.26,163.4a1.418,1.418,0,1,1-1.489-2.414l50.947-31.467a1.4,1.4,0,0,1,.845-.281,1.425,1.425,0,0,1,1.426,1.422V205.3a1.425,1.425,0,0,1-1.426,1.422Z" transform="translate(135.384 224.962)" fill="#333" fill-rule="evenodd"/>
    <path id="Pfad_71" data-name="Pfad 71" d="M183.481,182.977a1.42,1.42,0,1,1-1.837,2.165l-49.292-41.758a14.747,14.747,0,0,0-20.417,0L62.642,185.142a1.418,1.418,0,0,1-1.833-2.165L110.1,141.219a17.551,17.551,0,0,1,24.087,0Z" transform="translate(135.387 246.198)" fill="#333" fill-rule="evenodd"/>
    <path id="Pfad_72" data-name="Pfad 72" d="M138.322,175.916a1.422,1.422,0,1,1-2.844,0V122.088H69.612v53.827a1.422,1.422,0,1,1-2.844,0v-55.25a1.421,1.421,0,0,1,1.422-1.422H136.9a1.421,1.421,0,0,1,1.422,1.422Z" transform="translate(154.448 195.474)" fill="#333" fill-rule="evenodd"/>
    <path id="Pfad_73" data-name="Pfad 73" d="M70.12,155.975h25.9v2.844H70.12v-2.844Zm0-32.372h20.4v2.844H70.12V123.6Zm28.579,0h17.569v2.844H98.7V123.6ZM70.12,139.789H80.483v2.844H70.12v-2.844Zm19.267,0h26.88v2.844H89.387v-2.844Zm14.736,16.186h12.144v2.844H104.123Z" transform="translate(164.339 208.336)" fill="#333" fill-rule="evenodd"/>
    <path id="Pfad_74" data-name="Pfad 74" d="M15.846,150.974a1.422,1.422,0,0,1,0-2.844H942a1.422,1.422,0,0,1,0,2.844Z" transform="translate(0 280.706)" fill="#333" fill-rule="evenodd"/>
    <path id="Pfad_75" data-name="Pfad 75" d="M101.117,89.45H411.909a11.346,11.346,0,0,1,11.311,11.315V296.048H89.8V100.765A11.349,11.349,0,0,1,101.117,89.45Z" transform="translate(222.413 107.562)" fill="#fff" fill-rule="evenodd"/>
    <path id="Pfad_76" data-name="Pfad 76" d="M102.179,89.09H412.971A12.767,12.767,0,0,1,425.7,101.827V297.111a1.421,1.421,0,0,1-1.422,1.422H90.864a1.424,1.424,0,0,1-1.422-1.422V101.827A12.774,12.774,0,0,1,102.179,89.09Zm310.793,2.844H102.179a9.928,9.928,0,0,0-9.892,9.892V295.688H422.86V101.827a9.928,9.928,0,0,0-9.888-9.892Z" transform="translate(221.351 106.5)" fill="#333" fill-rule="evenodd"/>
    <rect id="Rechteck_46" data-name="Rechteck 46" width="302.935" height="176.116" transform="translate(327.459 212.255)" fill="#f8951d"/>
    <path id="Pfad_77" data-name="Pfad 77" d="M474.183,141.745H82.418v10.872a15.819,15.819,0,0,0,15.775,15.775H458.4a15.82,15.82,0,0,0,15.779-15.775Z" transform="translate(200.626 261.866)" fill="#fff" fill-rule="evenodd"/>
    <path id="Pfad_78" data-name="Pfad 78" d="M473.823,144.229H84.9v9.45a14.3,14.3,0,0,0,4.211,10.137l0,0a14.311,14.311,0,0,0,10.137,4.211H459.466a14.3,14.3,0,0,0,10.137-4.211l.008,0a14.3,14.3,0,0,0,4.211-10.137v-9.45ZM83.48,141.385H475.245a1.421,1.421,0,0,1,1.422,1.422v10.872a17.159,17.159,0,0,1-5.021,12.113l-.032.028v0l0,0a17.14,17.14,0,0,1-12.144,5.049H99.255a17.142,17.142,0,0,1-12.113-5.021l-.028-.028,0,0,0,0a17.147,17.147,0,0,1-5.049-12.14V142.807A1.421,1.421,0,0,1,83.48,141.385Z" transform="translate(199.563 260.804)" fill="#333" fill-rule="evenodd"/>
    <rect id="Rechteck_47" data-name="Rechteck 47" width="391.765" height="10.872" transform="translate(283.043 403.611)" fill="#e8f1f2"/>
    <path id="Pfad_79" data-name="Pfad 79" d="M473.823,144.229H84.9v8.028h388.92v-8.028ZM83.48,141.385H475.245a1.421,1.421,0,0,1,1.422,1.422v10.872a1.421,1.421,0,0,1-1.422,1.422H83.48a1.421,1.421,0,0,1-1.422-1.422V142.807A1.421,1.421,0,0,1,83.48,141.385Z" transform="translate(199.563 260.804)" fill="#333" fill-rule="evenodd"/>
    <path id="Pfad_80" data-name="Pfad 80" d="M124.043,141.745h62.874a5.159,5.159,0,0,1-5.144,5.144H129.187A5.157,5.157,0,0,1,124.043,141.745Z" transform="translate(323.446 261.866)" fill="#b8c6d7" fill-rule="evenodd"/>
    <path id="Pfad_81" data-name="Pfad 81" d="M125.105,141.385H187.98a1.424,1.424,0,0,1,1.422,1.422v.036a6.551,6.551,0,0,1-1.928,4.595l-.008.008-.024.024a6.556,6.556,0,0,1-4.606,1.9H130.249a6.544,6.544,0,0,1-4.638-1.932l0,0a6.563,6.563,0,0,1-1.924-4.638,1.421,1.421,0,0,1,1.422-1.422Zm61.168,2.844H126.812a3.742,3.742,0,0,0,.81,1.2l0,0h0a3.7,3.7,0,0,0,2.627,1.09h52.587a3.713,3.713,0,0,0,2.607-1.071l.02-.02,0,0A3.731,3.731,0,0,0,186.273,144.229Z" transform="translate(322.384 260.804)" fill="#333" fill-rule="evenodd"/>
    <path id="Pfad_82" data-name="Pfad 82" d="M96.145,95.792V269.063h300.09V95.792ZM93.3,270.486V94.37a1.424,1.424,0,0,1,1.422-1.422H397.658a1.426,1.426,0,0,1,1.422,1.422V270.486a1.424,1.424,0,0,1-1.422,1.422H94.723A1.421,1.421,0,0,1,93.3,270.486Z" transform="translate(232.737 117.884)" fill="#333" fill-rule="evenodd"/>
    <rect id="Rechteck_48" data-name="Rechteck 48" width="106.114" height="56.376" transform="translate(504.839 250.65)" fill="#fff"/>
    <path id="Pfad_83" data-name="Pfad 83" d="M46.095,150.862a1.422,1.422,0,0,0,0,2.844H63.161a1.425,1.425,0,0,0,1.015-2.418,1.393,1.393,0,0,0-1.015-.427Zm687.174,2.844a1.426,1.426,0,0,0,1.019-2.418,1.409,1.409,0,0,0-1.019-.427h-44.33a1.422,1.422,0,0,0,0,2.844Zm-55.708,0a1.426,1.426,0,0,0,1.019-2.418,1.409,1.409,0,0,0-1.019-.427H660.494a1.422,1.422,0,0,0,0,2.844Zm-31.289,0a1.426,1.426,0,0,0,1.019-2.418,1.409,1.409,0,0,0-1.019-.427H535.337a1.422,1.422,0,0,0,0,2.844Zm-122.312,0a1.426,1.426,0,0,0,1.019-2.418,1.409,1.409,0,0,0-1.019-.427H506.893a1.422,1.422,0,0,0,0,2.844Zm-31.289,0a1.426,1.426,0,0,0,1.019-2.418,1.409,1.409,0,0,0-1.019-.427H381.737a1.422,1.422,0,0,0,0,2.844Zm-122.312,0a1.426,1.426,0,0,0,1.019-2.418,1.409,1.409,0,0,0-1.019-.427H353.292a1.422,1.422,0,0,0,0,2.844Zm-31.289,0a1.426,1.426,0,0,0,1.019-2.418,1.409,1.409,0,0,0-1.019-.427H228.136a1.422,1.422,0,0,0,0,2.844Zm-122.308,0a1.425,1.425,0,0,0,1.015-2.418,1.407,1.407,0,0,0-1.015-.427H199.7a1.422,1.422,0,0,0,0,2.844Zm-31.289,0a1.425,1.425,0,0,0,1.015-2.418,1.393,1.393,0,0,0-1.015-.427H74.539a1.422,1.422,0,0,0,0,2.844Z" transform="translate(89.243 288.767)" fill="#333" fill-rule="evenodd"/>
    <path id="Pfad_84" data-name="Pfad 84" d="M216.365,113.288a10.071,10.071,0,0,1,7.143,2.963h0a10.091,10.091,0,0,1,0,14.285l0,0v0l-.032.032a10.1,10.1,0,0,1-14.25-.032l0,0,0,0-.032-.032a10.1,10.1,0,0,1,.032-14.25l0,0h0l.032-.032a10.07,10.07,0,0,1,7.107-2.931Zm5.136,4.966a7.278,7.278,0,0,0-10.252-.02l-.02.02,0,.008a7.273,7.273,0,0,0-.02,10.248l.02.024,0,0a7.278,7.278,0,0,0,10.252.02l.02-.02.008,0a7.268,7.268,0,0,0-.008-10.272l0,0Z" transform="translate(566.035 177.9)" fill="#333" fill-rule="evenodd"/>
    <path id="Pfad_85" data-name="Pfad 85" d="M208.457,115.9a1.422,1.422,0,0,1,2.844,0v7.953a1.422,1.422,0,0,1-2.844,0Z" transform="translate(572.521 181.417)" fill="#333" fill-rule="evenodd"/>
    <path id="Pfad_86" data-name="Pfad 86" d="M216.826,115.487a1.422,1.422,0,1,1,0,2.844h-7.953a1.422,1.422,0,0,1,0-2.844Z" transform="translate(569.552 184.388)" fill="#333" fill-rule="evenodd"/>
    <path id="Pfad_87" data-name="Pfad 87" d="M77.242,155.109,37.111,123.689,77.242,92.266v62.843Zm37.235-8.838-28.84-22.582,28.84-22.586Z" transform="translate(66.941 115.871)" fill="#e8f1f2" fill-rule="evenodd"/>
    <path id="Pfad_88" data-name="Pfad 88" d="M59.408,138.883l24.04-18.825-24.04-18.821v37.646Zm-31.984-5.294L44.7,120.058l-17.28-13.527Z" transform="translate(38.358 142.342)" fill="#e8f1f2" fill-rule="evenodd"/>
    <path id="Pfad_89" data-name="Pfad 89" d="M241.976,167.514,277.3,132.188,241.976,96.861v70.653Zm-32.782-9.932,25.391-25.395L209.194,106.8Z" transform="translate(574.695 129.43)" fill="#e8f1f2" fill-rule="evenodd"/>
    <path id="Pfad_90" data-name="Pfad 90" d="M243.642,149.274l-21.164-21.164,21.164-21.164v42.327Zm28.156-5.954-15.21-15.21L271.8,112.9Z" transform="translate(613.892 159.19)" fill="#e8f1f2" fill-rule="evenodd"/>
    <path id="Pfad_91" data-name="Pfad 91" d="M253.049,66.582a1.4,1.4,0,1,1,0,2.8h-35.22a1.4,1.4,0,0,1,0-2.8Zm-51.884,0a1.4,1.4,0,0,1,0,2.8H194.2a1.4,1.4,0,0,1,0-2.8Zm-12.646,0a1.4,1.4,0,0,1,0,2.8H178.6a1.4,1.4,0,0,1,0-2.8Z" transform="translate(480.284 40.087)" fill="#e8f1f2" fill-rule="evenodd"/>
    <path id="Pfad_92" data-name="Pfad 92" d="M187.326,71.577a2.647,2.647,0,1,0-2.647-2.647A2.652,2.652,0,0,0,187.326,71.577Z" transform="translate(502.361 39.205)" fill="none" stroke="#b8c6d7" stroke-linecap="round" stroke-miterlimit="22.926" stroke-width="0.709" fill-rule="evenodd"/>
    <path id="Pfad_93" data-name="Pfad 93" d="M220.879,111.278a1.422,1.422,0,1,1,0-2.844c1.466,0,3.24-1.466,5.017-2.931l.079-.063c2.149-1.77,4.3-3.524,6.748-3.524,2.477,0,4.65,1.794,6.823,3.587h.008c1.774,1.466,3.552,2.931,5.017,2.931s3.24-1.466,5.017-2.931l.079-.063c2.149-1.77,4.3-3.524,6.748-3.524,2.477,0,4.65,1.794,6.823,3.587h.008c1.774,1.466,3.552,2.931,5.017,2.931s3.239-1.466,5.017-2.931l.079-.063c2.149-1.77,4.3-3.524,6.748-3.524a1.422,1.422,0,1,1,0,2.844c-1.45,0-3.2,1.422-4.942,2.864l-.075.067c-2.169,1.794-4.346,3.587-6.827,3.587s-4.658-1.794-6.831-3.587l0,0c-1.778-1.466-3.552-2.927-5.021-2.927-1.45,0-3.2,1.422-4.942,2.864l-.075.067c-2.169,1.794-4.346,3.587-6.827,3.587s-4.658-1.794-6.831-3.587l0,0c-1.778-1.466-3.552-2.927-5.021-2.927-1.45,0-3.2,1.422-4.942,2.864l-.075.067C225.537,109.484,223.36,111.278,220.879,111.278Z" transform="translate(604.978 144.342)" fill="#b8c6d7" fill-rule="evenodd"/>
    <path id="Pfad_94" data-name="Pfad 94" d="M39.937,95.56a2.131,2.131,0,0,1,0-4.263H44.8V86.442a2.129,2.129,0,1,1,4.259,0V91.3h4.859a2.131,2.131,0,0,1,0,4.263H49.055v4.855a2.129,2.129,0,1,1-4.259,0V95.56Z" transform="translate(68.998 92.405)" fill="#f8951d" fill-rule="evenodd"/>
    <path id="Pfad_95" data-name="Pfad 95" d="M176.041,85.239a19.52,19.52,0,0,1,13.843-13.847,19.5,19.5,0,0,1-13.843-13.843A19.5,19.5,0,0,1,162.2,71.392,19.519,19.519,0,0,1,176.041,85.239Z" transform="translate(436.027 13.434)" fill="#f8951d" fill-rule="evenodd"/>
    <path id="Pfad_96" data-name="Pfad 96" d="M108.564,109.2a22.252,22.252,0,0,1-.652,34.051A12.872,12.872,0,0,1,103.9,145.6a17.341,17.341,0,0,1-5.1,1.244l-33.225,1.114a8.022,8.022,0,0,1-5.582-1.9,8.9,8.9,0,0,1-2.307-3.081,9.495,9.495,0,0,1-.865-3.635,7.955,7.955,0,0,1,.66-3.524c-.166-.118-.332-.245-.494-.379l0,0v0a8.638,8.638,0,0,1-2.41-3.457,7.9,7.9,0,0,1-.34-4.681,7.307,7.307,0,0,1,.6-1.636,7.562,7.562,0,0,1-.707-.47,7.944,7.944,0,0,1-2.461-3.137,7.4,7.4,0,0,1-.458-4.456,8.589,8.589,0,0,1,.976-2.54,8.63,8.63,0,0,1-2.667-4.294,7.488,7.488,0,0,1,.186-4.247,7.583,7.583,0,0,1,2.24-3.311,6.188,6.188,0,0,1,4.279-1.529l23.423,1.059a49.971,49.971,0,0,1-1.509-6.748h0a80.613,80.613,0,0,1-.818-9.58,1.72,1.72,0,0,1,.008-.2c.446-4.788,1.533-8.138,2.947-10.41a8.941,8.941,0,0,1,4.954-4.049h0a8.654,8.654,0,0,1,5.286.146,10.154,10.154,0,0,1,4.211,2.7,1.4,1.4,0,0,1,.356,1.043h0c-.063.845-.119,1.991-.166,3.279-.047,1.379-.095,2.9-.138,4.425a26.823,26.823,0,0,0,3.587,14.25,42.551,42.551,0,0,0,10.1,11.512l.1.091Zm3.085,8.842a19.356,19.356,0,0,0-4.95-6.7l-.051-.04a45.309,45.309,0,0,1-10.75-12.3,29.572,29.572,0,0,1-3.955-15.727c.043-1.576.091-3.125.138-4.444.04-1.067.079-2.007.122-2.738a7.487,7.487,0,0,0-2.6-1.493,5.822,5.822,0,0,0-3.552-.126v0l0,0a6.161,6.161,0,0,0-3.37,2.841c-1.2,1.924-2.129,4.847-2.532,9.106a77.05,77.05,0,0,0,.79,9.154h0a46.066,46.066,0,0,0,2.027,8.217h0a1.472,1.472,0,0,1,.079.529,1.417,1.417,0,0,1-1.478,1.355l-25.47-1.15a3.394,3.394,0,0,0-2.319.865,4.745,4.745,0,0,0-1.5,4.709,6.241,6.241,0,0,0,2.556,3.481l.1.071a1.418,1.418,0,0,1,.277,1.987,6.464,6.464,0,0,0-1.221,2.544,4.6,4.6,0,0,0,.28,2.762,5.023,5.023,0,0,0,1.572,2,3.675,3.675,0,0,0,1.355.672,1.422,1.422,0,0,1,.857,2.319,4.908,4.908,0,0,0-1.063,2.039,5.1,5.1,0,0,0,.245,3.018,5.675,5.675,0,0,0,1.584,2.3l0,0a2.878,2.878,0,0,0,.968.565,1.414,1.414,0,0,1,.818,2.307,4.554,4.554,0,0,0-.944,3.109,6.668,6.668,0,0,0,.608,2.54,6.065,6.065,0,0,0,1.564,2.1,5.261,5.261,0,0,0,3.662,1.233l33.221-1.114a14.557,14.557,0,0,0,4.14-1.055,10.13,10.13,0,0,0,3.117-1.778q.053-.053.119-.107a19.4,19.4,0,0,0,5.563-23.036Z" transform="translate(102.894 54.316)" fill="#333" fill-rule="evenodd"/>
    <rect id="Rechteck_49" data-name="Rechteck 49" width="10.503" height="42.998" rx="0.218" transform="translate(207.85 157.721)" fill="#f8951d"/>
    <path id="Pfad_97" data-name="Pfad 97" d="M65.308,79.144h8.778a2.267,2.267,0,0,1,1.612.676l0,0a2.279,2.279,0,0,1,.668,1.612V122.7a2.283,2.283,0,0,1-.668,1.608l0,0,0,0a2.288,2.288,0,0,1-1.616.668H65.308a2.288,2.288,0,0,1-1.616-.668c-.043-.047-.083-.091-.122-.142a2.273,2.273,0,0,1-.545-1.474V81.427a2.279,2.279,0,0,1,.668-1.612,1.17,1.17,0,0,1,.13-.115,2.257,2.257,0,0,1,1.485-.557Zm8.217,2.844H65.869v40.154h7.656Z" transform="translate(143.404 77.153)" fill="#333" fill-rule="evenodd"/>
    <rect id="Rechteck_50" data-name="Rechteck 50" width="12.781" height="42.014" transform="translate(218.353 158.213)" fill="#f8951d"/>
    <path id="Pfad_98" data-name="Pfad 98" d="M67.105,79.269H79.889a1.424,1.424,0,0,1,1.422,1.422v42.015a1.426,1.426,0,0,1-1.422,1.422H67.105a1.426,1.426,0,0,1-1.422-1.422V80.691a1.424,1.424,0,0,1,1.422-1.422Zm11.358,2.844H68.527v39.171h9.936Z" transform="translate(151.247 77.522)" fill="#333" fill-rule="evenodd"/>
    <path id="Pfad_99" data-name="Pfad 99" d="M62.623,76.646A1.42,1.42,0,0,1,61.386,79.2l-8.1-3.911a1.419,1.419,0,0,1,1.233-2.556Z" transform="translate(112.308 57.828)" fill="#333" fill-rule="evenodd"/>
    <path id="Pfad_100" data-name="Pfad 100" d="M61.746,76.441a1.417,1.417,0,1,1-2.73.759l-2.035-7.3a1.418,1.418,0,1,1,2.734-.755Z" transform="translate(125.419 44.569)" fill="#333" fill-rule="evenodd"/>
    <path id="Pfad_101" data-name="Pfad 101" d="M64.088,77.2a1.419,1.419,0,1,1-1.722-2.256l6.305-4.836a1.419,1.419,0,0,1,1.722,2.256Z" transform="translate(139.809 49.628)" fill="#333" fill-rule="evenodd"/>
    <path id="Pfad_102" data-name="Pfad 102" d="M102.859,107.871a1.422,1.422,0,0,1,0-2.844H215.82a1.422,1.422,0,0,1,0,2.844Zm0,110.831a1.422,1.422,0,1,1,0-2.844h106.2a1.422,1.422,0,1,1,0,2.844Zm0-12.314a1.422,1.422,0,1,1,0-2.844H215.82a1.422,1.422,0,1,1,0,2.844Zm0-12.314a1.422,1.422,0,1,1,0-2.844H212.078a1.422,1.422,0,1,1,0,2.844Zm0-12.318a1.422,1.422,0,1,1,0-2.844H221.493a1.422,1.422,0,0,1,0,2.844Zm0-12.314a1.422,1.422,0,1,1,0-2.844h109.4a1.422,1.422,0,1,1,0,2.844Zm0-12.314a1.422,1.422,0,1,1,0-2.844H221.493a1.422,1.422,0,0,1,0,2.844Zm0-12.31a1.422,1.422,0,1,1,0-2.844h99.276a1.422,1.422,0,1,1,0,2.844Zm0-12.318a1.422,1.422,0,0,1,0-2.844H210.838a1.422,1.422,0,0,1,0,2.844Zm0-12.314a1.422,1.422,0,0,1,0-2.844h97.5a1.422,1.422,0,0,1,0,2.844Z" transform="translate(256.744 153.525)" fill="#333" fill-rule="evenodd"/>
    <path id="Pfad_103" data-name="Pfad 103" d="M145.9,153.79H196.18l-1.991-9.568a6.419,6.419,0,0,0-5.622-5.148l-6.977-.818-10.548,7.3-10.548-7.3-6.977.818a6.431,6.431,0,0,0-5.622,5.148L145.9,153.79Zm25.138-48.861c6.748,0,12.215,5.314,12.215,13.606s-5.468,16.423-12.215,16.423-12.215-8.13-12.215-16.423S164.294,104.929,171.042,104.929Z" transform="translate(387.95 153.235)" fill="#f8951d" fill-rule="evenodd"/>
    <path id="Pfad_104" data-name="Pfad 104" d="M244.314,105.511H141.044v53.531h103.27V105.511Zm-104.692-2.844H245.736a1.424,1.424,0,0,1,1.422,1.422v56.376a1.424,1.424,0,0,1-1.422,1.422H139.622a1.421,1.421,0,0,1-1.422-1.422V104.089A1.421,1.421,0,0,1,139.622,102.667Z" transform="translate(365.218 146.561)" fill="#333" fill-rule="evenodd"/>
    <rect id="Rechteck_51" data-name="Rechteck 51" width="106.114" height="56.375" transform="translate(504.839 320.246)" fill="#fff"/>
    <path id="Pfad_105" data-name="Pfad 105" d="M244.314,123.127H141.044v53.531h103.27V123.127Zm-104.692-2.844H245.736a1.426,1.426,0,0,1,1.422,1.422v56.376a1.424,1.424,0,0,1-1.422,1.422H139.622a1.421,1.421,0,0,1-1.422-1.422V121.705A1.424,1.424,0,0,1,139.622,120.283Z" transform="translate(365.218 198.539)" fill="#333" fill-rule="evenodd"/>
    <g id="Gruppe_135" data-name="Gruppe 135" transform="translate(383.591 246.719)">
      <path id="Pfad_106" data-name="Pfad 106" d="M171.435,104.876H109.291a1.422,1.422,0,0,1,0-2.844h62.144a1.422,1.422,0,0,1,0,2.844Z" transform="translate(-107.869 -102.032)" fill="#fff"/>
    </g>
    <path id="Pfad_107" data-name="Pfad 107" d="M256.172,135.894h-19.6a26.188,26.188,0,0,1-11.382,21.661,20.308,20.308,0,0,0,22.866-.281C254.9,152.491,257.092,147.173,256.172,135.894Z" transform="translate(621.885 244.602)" fill="#e8f1f2" fill-rule="evenodd"/>
    <path id="Pfad_108" data-name="Pfad 108" d="M247.671,167.086h-19.6V130a4.664,4.664,0,0,1,6.131-4.425,19.678,19.678,0,0,1,13.472,18.611Z" transform="translate(630.386 213.41)" fill="#e8f1f2" fill-rule="evenodd"/>
    <rect id="Rechteck_52" data-name="Rechteck 52" width="22.976" height="5.181" transform="translate(854.747 425.079)" fill="#b8c6d7"/>
    <g id="Gruppe_136" data-name="Gruppe 136" transform="translate(831.676 374.396)">
      <path id="Pfad_109" data-name="Pfad 109" d="M272,135.772a1.422,1.422,0,1,1,2.844,0v10.406a26.745,26.745,0,0,1-45.689,18.912l-.071-.075a26.7,26.7,0,0,1-7.795-18.837V135.772a1.422,1.422,0,1,1,2.844,0v10.406a23.856,23.856,0,0,0,6.965,16.838l.067.063A23.931,23.931,0,0,0,272,146.178V135.772Zm-42.916,29.243.071-1.936A1.426,1.426,0,0,0,229.085,165.015Z" transform="translate(-221.29 -134.35)" fill="#333" fill-rule="evenodd"/>
    </g>
    <path id="Pfad_110" data-name="Pfad 110" d="M243.768,124.776h0A21.076,21.076,0,0,1,264.794,145.8v28.63a21.076,21.076,0,0,1-21.025,21.021h0a21.076,21.076,0,0,1-21.021-21.021V145.8a21.076,21.076,0,0,1,21.021-21.021Zm0,2.844h0A18.237,18.237,0,0,0,225.591,145.8v28.63A18.23,18.23,0,0,0,243.768,192.6h0a18.23,18.23,0,0,0,18.181-18.177V145.8a18.237,18.237,0,0,0-18.181-18.177Z" transform="translate(614.685 211.797)" fill="#333" fill-rule="evenodd"/>
    <path id="Pfad_111" data-name="Pfad 111" d="M222.237,138.381a1.424,1.424,0,0,1,0-2.848H276.7a1.424,1.424,0,0,1,0,2.848Z" transform="translate(608.985 243.537)" fill="#333" fill-rule="evenodd"/>
    <path id="Pfad_112" data-name="Pfad 112" d="M225.827,152h34.489v-2.339H225.827V152Zm35.911,2.844H224.405a1.426,1.426,0,0,1-1.422-1.422v-5.183a1.424,1.424,0,0,1,1.422-1.422h37.333a1.421,1.421,0,0,1,1.422,1.422v5.183A1.424,1.424,0,0,1,261.739,154.847Z" transform="translate(615.382 276.837)" fill="#333" fill-rule="evenodd"/>
    <path id="Pfad_113" data-name="Pfad 113" d="M241.265,129.786a3.174,3.174,0,0,1-6.349,0c0-4.176,6.349-4.176,6.349,0Zm7.068,19.113a3.174,3.174,0,1,1-3.172,3.176,3.176,3.176,0,0,1,3.172-3.176Zm0-8.9a3.174,3.174,0,1,1-3.172,3.176A3.176,3.176,0,0,1,248.332,140Zm0-8.9a3.174,3.174,0,1,1-3.172,3.172,3.176,3.176,0,0,1,3.172-3.172Zm-20.488,17.8a3.174,3.174,0,1,1-3.172,3.176,3.177,3.177,0,0,1,3.172-3.176Zm0-8.9a3.174,3.174,0,1,1-3.172,3.176A3.176,3.176,0,0,1,227.844,140Zm0-8.9a3.174,3.174,0,1,1-3.172,3.172,3.176,3.176,0,0,1,3.172-3.172Zm10.244,22.218a3.174,3.174,0,1,1-3.172,3.172,3.176,3.176,0,0,1,3.172-3.172Zm0-8.9a3.174,3.174,0,1,1-3.172,3.172,3.176,3.176,0,0,1,3.172-3.172Zm0-8.9a3.172,3.172,0,1,1-3.172,3.172A3.173,3.173,0,0,1,238.088,135.515Z" transform="translate(620.365 217.339)" fill="#333" fill-rule="evenodd"/>
    <path id="Pfad_114" data-name="Pfad 114" d="M226.981,144.824a1.422,1.422,0,1,1,2.844,0v13.5a1.422,1.422,0,1,1-2.844,0Z" transform="translate(627.178 266.755)" fill="#333" fill-rule="evenodd"/>
    <path id="Pfad_115" data-name="Pfad 115" d="M228.436,144.824a1.422,1.422,0,0,1,2.844,0v13.5a1.422,1.422,0,0,1-2.844,0Z" transform="translate(631.471 266.755)" fill="#333" fill-rule="evenodd"/>
    <rect id="Rechteck_53" data-name="Rechteck 53" width="121.147" height="98.859" transform="translate(392.839 79.457)" fill="#fff"/>
    <path id="Pfad_116" data-name="Pfad 116" d="M111.272,59.334H232.418a1.421,1.421,0,0,1,1.422,1.422v98.861a1.424,1.424,0,0,1-1.422,1.422H111.272a1.424,1.424,0,0,1-1.422-1.422V60.756a1.421,1.421,0,0,1,1.422-1.422ZM231,62.178h-118.3v96.016H231Z" transform="translate(281.567 18.701)" fill="#333" fill-rule="evenodd"/>
    <path id="Pfad_117" data-name="Pfad 117" d="M112.77,142.366h9.2l28.7-6.142,51.536,6.142h11.482V62.04H112.77Z" transform="translate(290.182 26.684)" fill="#f8951d" fill-rule="evenodd"/>
    <path id="Pfad_118" data-name="Pfad 118" d="M146.686,68.411l-22.839,55.155h45.677L146.686,68.411Z" transform="translate(322.867 45.484)" fill="#fff" fill-rule="evenodd"/>
    <path id="Pfad_119" data-name="Pfad 119" d="M146.687,68.411l-22.84,55.154h22.84Z" transform="translate(322.867 45.485)" fill="#e8f1f2" fill-rule="evenodd"/>
    <path id="Pfad_120" data-name="Pfad 120" d="M143.8,64.829l-28.7,69.306h57.4L143.8,64.829Z" transform="translate(297.055 34.915)" fill="#fff" fill-rule="evenodd"/>
    <path id="Pfad_121" data-name="Pfad 121" d="M143.8,64.829l-28.7,69.305h28.7Z" transform="translate(297.056 34.915)" fill="#e8f1f2" fill-rule="evenodd"/>
    <path id="Pfad_122" data-name="Pfad 122" d="M150.454,83.428h-36a9.277,9.277,0,0,1,11.579-9.086,6.934,6.934,0,1,1,13.859-.253,9.117,9.117,0,0,1,10.564,9.339Z" transform="translate(295.143 41.462)" fill="#fff" fill-rule="evenodd"/>
    <path id="Pfad_123" data-name="Pfad 123" d="M157.234,84.613H128.355a7.443,7.443,0,0,1,9.288-7.289,5.563,5.563,0,1,1,11.117-.2,7.316,7.316,0,0,1,8.474,7.49Z" transform="translate(336.169 54.523)" fill="#fff" fill-rule="evenodd"/>
    <rect id="Rechteck_54" data-name="Rechteck 54" width="189.631" height="31.406" transform="translate(550.785 156.229)" fill="#f8951d"/>
    <path id="Pfad_124" data-name="Pfad 124" d="M193.276,98.766h44.03v3.33a126.5,126.5,0,0,0,68.555-27.769v31.787h5.744l4.452,4.452V128.7l-4.452,4.452h-5.744v31.787c-15.313-10.224-31.313-20.14-51.342-25.019l-.02,0a132.756,132.756,0,0,0-17.193-2.75v3.33H226.6a20.83,20.83,0,0,0,7.4,13.634q.255.231.522.45c-1.96,2.441-3.864,3.9-7.182,4.282a7.71,7.71,0,0,0,3.753,1.679c-5.092,5.108,5.961,21.227,6.684,26.489.34,2.528-19.635,6.661-23.976,6.692-12.721-5.8-3.947-32.123-12.231-48.648a23.28,23.28,0,0,0-2.991-4.579h-5.306v-3.014a2.279,2.279,0,0,1-.367,0,7.115,7.115,0,0,1-1.56-.122l-.016,0a9.841,9.841,0,0,1-8.229-9.679V111.589a9.832,9.832,0,0,1,9.805-9.806h.367Z" transform="translate(497.71 62.94)" fill="#f4f6f8" fill-rule="evenodd"/>
    <path id="Pfad_125" data-name="Pfad 125" d="M219.685,86.979a1.419,1.419,0,1,1-1.28-2.532l21.231-10.773a1.419,1.419,0,0,1,1.28,2.532Z" transform="translate(599.574 60.556)" fill="#333" fill-rule="evenodd"/>
    <path id="Pfad_126" data-name="Pfad 126" d="M222.656,88.233a1.422,1.422,0,1,1,0-2.844H248.64a1.422,1.422,0,0,1,0,2.844Z" transform="translate(610.221 95.58)" fill="#333" fill-rule="evenodd"/>
    <path id="Pfad_127" data-name="Pfad 127" d="M219.624,96.141a1.42,1.42,0,0,1,1.09-2.623l20.595,8.557a1.42,1.42,0,0,1-1.086,2.623Z" transform="translate(602.887 119.246)" fill="#333" fill-rule="evenodd"/>
    <path id="Pfad_128" data-name="Pfad 128" d="M224.375,85.8h-10.2V99.319h5.3l4.9-4.9Z" transform="translate(589.394 96.779)" fill="#f8951d" fill-rule="evenodd"/>
    <path id="Pfad_129" data-name="Pfad 129" d="M237.306,87.369H183.1v1.612c0,5.254,5,10.343,10.173,10.023l.443,2.817a9.242,9.242,0,0,0,2.422.2h41.166Z" transform="translate(497.71 101.422)" fill="#f8951d" fill-rule="evenodd"/>
    <path id="Pfad_130" data-name="Pfad 130" d="M196.823,86.53c26.4-.375,51.915,4.606,68.555,15.822v26.639c-19.453-12.99-40.016-25.482-68.555-27.769Z" transform="translate(538.193 98.888)" fill="#f8951d" fill-rule="evenodd"/>
    <path id="Pfad_131" data-name="Pfad 131" d="M198.016,104.565a1.417,1.417,0,1,1-.269-2.821,127.339,127.339,0,0,0,36.022-8.7A125.824,125.824,0,0,0,265.548,74.28a1.418,1.418,0,0,1,1.991.217,1.4,1.4,0,0,1,.312.889h.008V166h-.008a1.4,1.4,0,0,1-.312.889,1.414,1.414,0,0,1-1.991.217,126.057,126.057,0,0,0-31.779-18.766,127.339,127.339,0,0,0-36.022-8.7,1.417,1.417,0,0,1,.269-2.821,130.319,130.319,0,0,1,36.82,8.885,128.368,128.368,0,0,1,30.179,17.367V78.313A128.316,128.316,0,0,1,234.832,95.68,130.122,130.122,0,0,1,198.016,104.565Z" transform="translate(537.135 61.881)" fill="#333" fill-rule="evenodd"/>
    <path id="Pfad_132" data-name="Pfad 132" d="M215.238,82.012h5.744a1.428,1.428,0,0,1,1.007.419l4.452,4.452a1.424,1.424,0,0,1,.415,1.007h0v18.137a1.432,1.432,0,0,1-.415,1.007l-4.452,4.452a1.424,1.424,0,0,1-1.007.415h-5.744a1.421,1.421,0,0,1-1.422-1.422V83.438a1.425,1.425,0,0,1,1.422-1.426Zm5.156,2.848H216.66v24.2h3.733l3.619-3.623V88.479Z" transform="translate(588.333 85.616)" fill="#333" fill-rule="evenodd"/>
    <path id="Pfad_133" data-name="Pfad 133" d="M198.272,91.077a20.887,20.887,0,0,0,7.4,13.642c-1.959,2.441-3.864,3.9-7.186,4.282-3.67-3.287-6.321-10-5.681-17.924Z" transform="translate(526.042 112.363)" fill="#f8951d" fill-rule="evenodd"/>
    <path id="Pfad_134" data-name="Pfad 134" d="M187.778,92.236q22.157,16.243,12.235,48.648C187.292,135.081,196.063,108.762,187.778,92.236Z" transform="translate(511.505 115.783)" fill="#f8951d" fill-rule="evenodd"/>
    <path id="Pfad_135" data-name="Pfad 135" d="M186.995,93.049a1.415,1.415,0,1,1,2.165-1.821c6.783,8.059,7.23,19.7,7.637,30.3.391,10.2.739,19.37,6.807,22.412.549-.024,1.312-.1,2.228-.229a113.954,113.954,0,0,0,13.025-2.69c3.765-1.019,6.827-1.948,7-2.252-.245-1.509-1.5-4.215-2.927-7.293-2.884-6.222-6.408-13.827-4.559-18.434-2.623-1.079-5.013-3.536-6.7-6.933a27.058,27.058,0,0,1-2.457-14.08,1.421,1.421,0,0,1,2.833.221,24.226,24.226,0,0,0,2.169,12.6c1.683,3.382,4.081,5.586,6.5,5.918a1.386,1.386,0,0,1,.873.407,1.421,1.421,0,0,1,.008,2.007c-2.742,2.75.96,10.738,3.911,17.1,1.517,3.283,2.86,6.171,3.157,8.095a1.528,1.528,0,0,1,.028.194l0,.059h0l0,.095c.012,1.888-4.057,3.67-9.1,5.037a117.414,117.414,0,0,1-13.389,2.758,25.216,25.216,0,0,1-2.884.257h-.02a1.331,1.331,0,0,1-.6-.126c-7.929-3.619-8.316-13.748-8.751-25.023C193.573,111.491,193.146,100.362,186.995,93.049Z" transform="translate(508.215 111.303)" fill="#333" fill-rule="evenodd"/>
    <path id="Pfad_136" data-name="Pfad 136" d="M193.9,92.436a1.417,1.417,0,0,1,2.809-.379,20.669,20.669,0,0,0,2.276,7.127l.036.075a19.272,19.272,0,0,0,4.591,5.543,1.421,1.421,0,0,1,.178,2l-.028.028a13.885,13.885,0,0,1-3.39,3.172,10.9,10.9,0,0,1-4.7,1.58,1.421,1.421,0,0,1-.32-2.825,8.107,8.107,0,0,0,3.508-1.158,9.587,9.587,0,0,0,1.853-1.576,21.816,21.816,0,0,1-4.188-5.408l-.043-.075A23.55,23.55,0,0,1,193.9,92.436Z" transform="translate(529.535 111.636)" fill="#333" fill-rule="evenodd"/>
    <path id="Pfad_137" data-name="Pfad 137" d="M188,94.441a1.42,1.42,0,0,1,1.679-2.291q11.49,8.427,14.677,21.085,3.153,12.533-1.928,29.12a1.414,1.414,0,1,1-2.706-.822q4.842-15.822,1.877-27.607Q198.668,102.258,188,94.441Z" transform="translate(510.444 114.723)" fill="#333" fill-rule="evenodd"/>
    <path id="Pfad_138" data-name="Pfad 138" d="M225.391,78.3a1.42,1.42,0,0,1,1.533,2.39,76.5,76.5,0,0,1-8.352,4.61,97.852,97.852,0,0,1-9.588,3.919,1.419,1.419,0,0,1-.936-2.678,94.064,94.064,0,0,0,9.312-3.808A73.208,73.208,0,0,0,225.391,78.3Z" transform="translate(568.509 73.993)" fill="#333" fill-rule="evenodd"/>
    <path id="Pfad_139" data-name="Pfad 139" d="M194.338,80.917a1.422,1.422,0,1,1,0,2.844h-.367a8.4,8.4,0,0,0-8.383,8.383v16.091a8.342,8.342,0,0,0,2.457,5.918l0,0v0a8.363,8.363,0,0,0,5.922,2.465h.367a1.422,1.422,0,1,1,0,2.844h-.367a11.2,11.2,0,0,1-7.933-3.3l0,0a11.188,11.188,0,0,1-3.3-7.925V92.145a11.249,11.249,0,0,1,11.228-11.228Z" transform="translate(496.648 82.385)" fill="#333" fill-rule="evenodd"/>
    <path id="Pfad_140" data-name="Pfad 140" d="M229.348,83H188.162v38.89h41.185V83ZM186.74,80.153h44.03a1.424,1.424,0,0,1,1.422,1.422V123.31a1.421,1.421,0,0,1-1.422,1.422H186.74a1.421,1.421,0,0,1-1.422-1.422V81.575A1.424,1.424,0,0,1,186.74,80.153Z" transform="translate(504.246 80.13)" fill="#333" fill-rule="evenodd"/>
    <path id="Pfad_141" data-name="Pfad 141" d="M63.8,68.787a1.422,1.422,0,1,1,0-2.844c1.624,0,3.556-1.592,5.487-3.184,2.327-1.92,4.654-3.844,7.285-3.844s4.958,1.924,7.285,3.844c1.928,1.592,3.86,3.184,5.487,3.184s3.552-1.592,5.476-3.184l.083-.063c2.3-1.9,4.606-3.781,7.21-3.781,2.631,0,4.962,1.924,7.285,3.844,1.932,1.592,3.864,3.184,5.487,3.184s3.556-1.592,5.483-3.184c2.327-1.92,4.654-3.844,7.289-3.844a1.422,1.422,0,0,1,0,2.844c-1.628,0-3.556,1.6-5.487,3.188-2.327,1.92-4.654,3.84-7.285,3.84s-4.962-1.92-7.289-3.84c-1.928-1.592-3.86-3.188-5.483-3.188-1.6,0-3.5,1.549-5.4,3.121l-.075.067c-2.323,1.92-4.654,3.84-7.289,3.84s-4.962-1.92-7.289-3.84c-1.928-1.592-3.86-3.188-5.483-3.188s-3.556,1.6-5.487,3.188C68.758,66.867,66.427,68.787,63.8,68.787Z" transform="translate(141.483 17.462)" fill="#e8f1f2" fill-rule="evenodd"/>
    <path id="Pfad_142" data-name="Pfad 142" d="M203.481,126.759h10.912v-6.175a1.462,1.462,0,0,1,1.458-1.458h13.519a1.462,1.462,0,0,1,1.458,1.458v6.175h67.742a17.428,17.428,0,0,1,17.383,17.379V217.75a17.431,17.431,0,0,1-17.383,17.383H203.481A17.431,17.431,0,0,1,186.1,217.75V144.137A17.427,17.427,0,0,1,203.481,126.759Z" transform="translate(506.559 195.126)" fill="#f4f6f8" fill-rule="evenodd"/>
    <path id="Pfad_143" data-name="Pfad 143" d="M192.221,141.2h11.8a4.508,4.508,0,0,1,4.492,4.5h0a4.508,4.508,0,0,1-4.492,4.5H187.729v-4.5A4.508,4.508,0,0,1,192.221,141.2Z" transform="translate(511.36 260.252)" fill="#e8f1f2" fill-rule="evenodd"/>
    <rect id="Rechteck_55" data-name="Rechteck 55" width="21.019" height="6.759" rx="0.436" transform="translate(750.222 332.411)" fill="#e8f1f2"/>
    <path id="Pfad_144" data-name="Pfad 144" d="M251.139,122.928a16.917,16.917,0,0,1,3.026,9.667v23.032H216.543a33.553,33.553,0,0,0-9.5-9.047V135.317a12.414,12.414,0,0,1,12.389-12.389Zm3.026,40.087v43.84a17.105,17.105,0,0,1-17.055,17.059H219.431a12.414,12.414,0,0,1-12.389-12.389v-8.518a33.388,33.388,0,0,0,13.416-39.992Z" transform="translate(568.346 206.344)" fill="#f8951d" fill-rule="evenodd"/>
    <path id="Pfad_145" data-name="Pfad 145" d="M204.543,120.7h95.088a18.85,18.85,0,0,1,18.8,18.8v73.612a18.857,18.857,0,0,1-18.8,18.805H204.543a18.85,18.85,0,0,1-18.8-18.805V139.5a18.843,18.843,0,0,1,18.8-18.8Zm95.088,2.841H204.543A16,16,0,0,0,188.586,139.5v73.612a16,16,0,0,0,15.957,15.961h95.088a16.011,16.011,0,0,0,15.961-15.961V139.5a16.011,16.011,0,0,0-15.961-15.961Z" transform="translate(505.497 199.764)" fill="#333" fill-rule="evenodd"/>
    <rect id="Rechteck_56" data-name="Rechteck 56" width="8.217" height="7.631" transform="translate(729.169 314.252)" fill="#e8f1f2"/>
    <path id="Pfad_146" data-name="Pfad 146" d="M195.747,126.4h13.59v-4.753l-.012-.024-.024-.012H195.783l-.024.012-.012.024V126.4Zm15.012,2.841H194.325a1.423,1.423,0,0,1-1.422-1.418v-6.175a2.887,2.887,0,0,1,2.88-2.88H209.3a2.887,2.887,0,0,1,2.88,2.88v6.175A1.421,1.421,0,0,1,210.76,129.239Z" transform="translate(526.627 194.063)" fill="#333" fill-rule="evenodd"/>
    <path id="Pfad_147" data-name="Pfad 147" d="M202.769,122.463h22.052a4.032,4.032,0,0,1,2.856,1.189l0,0,.032.032a4.041,4.041,0,0,1,1.158,2.825v5.057a4.032,4.032,0,0,1-1.189,2.856l0,.008-.028.024a4.034,4.034,0,0,1-2.829,1.165H202.769a4.055,4.055,0,0,1-2.856-1.189l0-.008-.028-.024a4.04,4.04,0,0,1-1.161-2.833v-5.057a4.045,4.045,0,0,1,1.185-2.856l.008,0,.032-.032a4.034,4.034,0,0,1,2.825-1.158Zm22.052,2.844H202.769a1.222,1.222,0,0,0-.845.344l0,0-.008.008a1.218,1.218,0,0,0-.348.849v5.057a1.205,1.205,0,0,0,.328.83l.02.024.008,0a1.207,1.207,0,0,0,.849.352h22.052a1.191,1.191,0,0,0,.83-.332l.02-.02.008,0a1.213,1.213,0,0,0,.348-.853v-5.057a1.2,1.2,0,0,0-.344-.845l0,0-.008-.008A1.211,1.211,0,0,0,224.822,125.307Z" transform="translate(543.79 204.972)" fill="#333" fill-rule="evenodd"/>
    <path id="Pfad_148" data-name="Pfad 148" d="M228.513,127.253a34.78,34.78,0,1,1-24.593,10.185,34.67,34.67,0,0,1,24.593-10.185Zm22.582,12.2a31.932,31.932,0,1,0,9.355,22.586A31.85,31.85,0,0,0,251.1,139.449Z" transform="translate(529.073 219.105)" fill="#333" fill-rule="evenodd"/>
    <path id="Pfad_149" data-name="Pfad 149" d="M218.588,130.617A21.49,21.49,0,1,1,197.1,152.108,21.491,21.491,0,0,1,218.588,130.617Z" transform="translate(538.999 229.031)" fill="#e8f1f2" fill-rule="evenodd"/>
    <g id="Gruppe_137" data-name="Gruppe 137" transform="translate(734.672 358.222)">
      <path id="Pfad_150" data-name="Pfad 150" d="M219.65,130.256a22.843,22.843,0,0,1,16.2,6.716l0,0a22.914,22.914,0,0,1,0,32.407l-.079.071a22.911,22.911,0,1,1-16.123-39.19Zm14.191,8.719a20.067,20.067,0,1,0-.063,28.456l.063-.071a20.067,20.067,0,0,0,0-28.381h0l0,0Zm1.932,30.471-1.932-.071A1.425,1.425,0,0,0,235.772,169.446Z" transform="translate(-196.736 -130.256)" fill="#333" fill-rule="evenodd"/>
    </g>
    <path id="Pfad_151" data-name="Pfad 151" d="M187.164,139.694h20.994a8.156,8.156,0,0,1,5.776,2.4l.071.075a8.147,8.147,0,0,1,2.331,5.7v0a8.155,8.155,0,0,1-2.4,5.776l-.075.071a8.15,8.15,0,0,1-5.7,2.331H187.164a1.421,1.421,0,0,1-1.422-1.422V141.116a1.421,1.421,0,0,1,1.422-1.422Zm20.994,2.844H188.586v10.667h19.571a5.318,5.318,0,0,0,3.706-1.5l.059-.067a5.306,5.306,0,0,0,1.568-3.765v0a5.3,5.3,0,0,0-1.5-3.7l-.067-.063A5.319,5.319,0,0,0,208.158,142.538Z" transform="translate(505.497 255.814)" fill="#333" fill-rule="evenodd"/>
    <path id="Pfad_152" data-name="Pfad 152" d="M187.164,133.689a1.422,1.422,0,0,1,0-2.844h37.618a1.422,1.422,0,0,1,0,2.844Zm92.228,0a1.422,1.422,0,0,1,0-2.844h37.622a1.422,1.422,0,0,1,0,2.844Z" transform="translate(505.497 229.704)" fill="#333" fill-rule="evenodd"/>
    <path id="Pfad_153" data-name="Pfad 153" d="M204.626,152.764a1.421,1.421,0,1,1-2.133,1.877,13.192,13.192,0,0,1,.569-18.058l.083-.079a13.173,13.173,0,0,1,9.252-3.789,1.422,1.422,0,1,1,0,2.844,10.339,10.339,0,0,0-7.261,2.967l-.063.067a10.357,10.357,0,0,0-2.366,10.983A10.44,10.44,0,0,0,204.626,152.764Z" transform="translate(545.189 235.222)" fill="#333" fill-rule="evenodd"/>
    <path id="Pfad_154" data-name="Pfad 154" d="M210.871,136.736a1.418,1.418,0,0,1,2.754-.676,13.2,13.2,0,0,1-8.644,15.692,1.417,1.417,0,0,1-.889-2.69,10.361,10.361,0,0,0,6.779-12.326Z" transform="translate(556.77 241.907)" fill="#333" fill-rule="evenodd"/>
    <rect id="Rechteck_57" data-name="Rechteck 57" width="302.627" height="19.604" transform="translate(327.766 212.476)" fill="#e8f1f2"/>
    <path id="Pfad_155" data-name="Pfad 155" d="M94.8,93H397.427a1.421,1.421,0,0,1,1.422,1.422v19.607a1.42,1.42,0,0,1-1.422,1.418H94.8a1.423,1.423,0,0,1-1.422-1.418V94.426A1.424,1.424,0,0,1,94.8,93ZM396,95.848H96.222v16.763H396Z" transform="translate(232.965 118.049)" fill="#333" fill-rule="evenodd"/>
    <path id="Pfad_156" data-name="Pfad 156" d="M167.63,94.648a5.052,5.052,0,0,1,3.587,1.489l.008,0,.028.032a5.065,5.065,0,0,1-.028,7.147l-.008.008-.028.028a5.079,5.079,0,0,1-7.151-.028l0-.008-.028-.028a5.07,5.07,0,0,1,.028-7.151l0,0,.032-.028a5.073,5.073,0,0,1,3.56-1.462Zm1.588,3.5,0,0a2.251,2.251,0,0,0-3.153-.016l-.016.016,0,0a2.251,2.251,0,0,0-.016,3.153l.016.016,0,0a2.251,2.251,0,0,0,3.153.016l.016-.016,0,0a2.251,2.251,0,0,0,.016-3.153l-.016-.016Zm13.187-3.5A5.061,5.061,0,0,1,186,96.137l0,0,.028.032A5.065,5.065,0,0,1,186,103.32l0,.008-.032.028a5.074,5.074,0,0,1-7.147-.028l-.008-.008-.028-.028a5.079,5.079,0,0,1,.028-7.151l.008,0,.028-.028a5.073,5.073,0,0,1,3.56-1.462Zm1.592,3.5-.008,0a2.251,2.251,0,0,0-3.153-.016l-.016.016,0,0a2.256,2.256,0,0,0-.012,3.153l.012.016,0,0a2.256,2.256,0,0,0,3.157.016l.012-.016.008,0a2.256,2.256,0,0,0,.012-3.153Z" transform="translate(437.051 122.9)" fill="#333" fill-rule="evenodd"/>
    <path id="Pfad_157" data-name="Pfad 157" d="M35.906,200.2,35.7,136.52c2.434-3.706,5.487-5.559,8.324-5.566v69.231Z" transform="translate(62.781 230.026)" fill="#e8f1f2" fill-rule="evenodd"/>
    <path id="Pfad_158" data-name="Pfad 158" d="M48.5,136.491l.205,63.68-17.134.039-.209-63.684C36.234,129.123,43.586,129.108,48.5,136.491Z" transform="translate(49.981 230.055)" fill="#f8951d" fill-rule="evenodd"/>
    <path id="Pfad_159" data-name="Pfad 159" d="M65.715,132.013v69.231a1.421,1.421,0,0,1-1.422,1.422l-.119-.008-33.7.075a1.415,1.415,0,0,1-1.414-1.414l-.225-69.231a1.419,1.419,0,0,1,1.414-1.418h.04a9.841,9.841,0,0,1,5.318,1.643,14.385,14.385,0,0,1,3.224,2.916,14.274,14.274,0,0,1,3.1-2.86,9.5,9.5,0,0,1,10.908-.028,14.328,14.328,0,0,1,3.125,2.852,14.557,14.557,0,0,1,3.129-2.9,9.416,9.416,0,0,1,5.2-1.7,1.42,1.42,0,0,1,1.418,1.418ZM62.871,199.83v-66.2a7.627,7.627,0,0,0-2.2,1.027,12.973,12.973,0,0,0-3.473,3.643,1.382,1.382,0,0,1-.442.466,1.42,1.42,0,0,1-1.967-.4,12.661,12.661,0,0,0-3.5-3.65,6.655,6.655,0,0,0-7.783.024,12.636,12.636,0,0,0-3.437,3.591,1.405,1.405,0,0,1-.442.474,1.423,1.423,0,0,1-1.967-.4,12.681,12.681,0,0,0-3.579-3.694,7.571,7.571,0,0,0-2.4-1.035l.217,66.228Z" transform="translate(42.513 228.966)" fill="#333" fill-rule="evenodd"/>
    <path id="Pfad_160" data-name="Pfad 160" d="M31.005,133.431a1.416,1.416,0,1,1,2.833,0l.205,63.684a1.416,1.416,0,0,1-2.833,0Z" transform="translate(48.924 233.15)" fill="#333" fill-rule="evenodd"/>
    <path id="Pfad_161" data-name="Pfad 161" d="M35.342,133.422a1.418,1.418,0,0,1,2.837,0l.205,63.68a1.416,1.416,0,1,1-2.833,0Z" transform="translate(61.721 233.124)" fill="#333" fill-rule="evenodd"/>
    <path id="Pfad_162" data-name="Pfad 162" d="M31.547,161.472a1.416,1.416,0,0,1-2.6-1.122l16.786-38.669a1.415,1.415,0,0,1,2.592-.016h0l17.26,38.594A1.418,1.418,0,0,1,63,161.413L47.053,125.758Z" transform="translate(42.512 200.144)" fill="#333" fill-rule="evenodd"/>
    <path id="Pfad_163" data-name="Pfad 163" d="M40.643,121.681l6.629,14.91a1.413,1.413,0,0,1-.723,1.865,1.4,1.4,0,0,1-.573.122h0l-13.12.032a1.417,1.417,0,0,1-1.288-2.011l6.475-14.918a1.416,1.416,0,0,1,2.6,0ZM43.8,135.749l-4.441-9.987-4.342,10.007Z" transform="translate(50.202 200.144)" fill="#333" fill-rule="evenodd"/>
    <path id="Pfad_164" data-name="Pfad 164" stroke="#f4f6f8" d="M82.72,92.605a9.363,9.363,0,1,0-9.367-9.363A9.38,9.38,0,0,0,82.72,92.605Z" fill="none" transform="translate(173.878 61.618)" stroke-linecap="round" stroke-linejoin="round" stroke-width="0.72" fill-rule="evenodd"/>
    <g id="Gruppe_138" data-name="Gruppe 138" transform="translate(255.172 139.151)">
      <path id="Pfad_165" data-name="Pfad 165" d="M76.785,86.221A1.421,1.421,0,0,1,75.363,84.8V76.226a1.422,1.422,0,1,1,2.844,0V84.8A1.421,1.421,0,0,1,76.785,86.221Z" transform="translate(-75.363 -74.804)" fill="#f8951d"/>
    </g>
    <g id="Gruppe_139" data-name="Gruppe 139" transform="translate(250.889 143.438)">
      <path id="Pfad_166" data-name="Pfad 166" d="M84.274,78.733H75.7a1.422,1.422,0,1,1,0-2.844h8.573a1.422,1.422,0,0,1,0,2.844Z" transform="translate(-74.279 -75.889)" fill="#fff"/>
    </g>
    <path id="Pfad_167" data-name="Pfad 167" d="M156.711,115.661a29.089,29.089,0,0,0-3.338.19,24.365,24.365,0,0,0-44.484-19.184A14.694,14.694,0,0,0,94.8,121.433a26.777,26.777,0,0,0,5.333,53.018h56.581a29.395,29.395,0,1,0,0-58.789Z" transform="translate(173.878 92.405)" fill="#fff" fill-rule="evenodd"/>
    <path id="Pfad_168" data-name="Pfad 168" d="M157.774,118.146c-.581,0-1.114.016-1.6.039-.51.032-1.035.075-1.572.138a1.421,1.421,0,0,1-1.572-1.248,1.384,1.384,0,0,1,.079-.652,22.858,22.858,0,0,0-3.484-20.283A22.817,22.817,0,0,0,137.953,87.8a22.971,22.971,0,0,0-26.77,10.623,1.417,1.417,0,0,1-1.636.66A13.243,13.243,0,0,0,98,101.328l-.087.059a13.215,13.215,0,0,0-4.685,6.937,13.274,13.274,0,0,0,3.611,13.148,1.42,1.42,0,0,1-.762,2.426,25.366,25.366,0,0,0-12.824,42.77h.008a25.27,25.27,0,0,0,17.928,7.423h56.581a27.972,27.972,0,1,0,0-55.945Zm-1.454-2.809c.51-.024.992-.036,1.454-.036a30.817,30.817,0,0,1,0,61.634H101.193a28.13,28.13,0,0,1-19.943-8.257l0,0a28.2,28.2,0,0,1,11.982-46.989,16.087,16.087,0,0,1,2.955-22.546l.1-.079a15.985,15.985,0,0,1,12.974-2.955,25.773,25.773,0,0,1,47.052,19.232Z" transform="translate(172.816 91.343)" fill="#333" fill-rule="evenodd"/>
    <path id="Pfad_169" data-name="Pfad 169" d="M163.271,90.483a1.418,1.418,0,1,1,2.453-1.422l15.234,26.382.039.079a4.717,4.717,0,0,0,4.666,2.58,4.8,4.8,0,0,0,1.869-.624l.067-.036a5,5,0,0,0,1.414-1.276,4.742,4.742,0,0,0,.055-5.4l-.044-.083-20.3-35.161-.02-.028a9.917,9.917,0,0,0-13.523-3.6h0a9.929,9.929,0,0,0-3.631,13.551L158.167,96.9a1.415,1.415,0,0,1-2.453,1.41L149.1,86.857a12.744,12.744,0,0,1,4.575-17.363,1.267,1.267,0,0,1,.225-.126,12.74,12.74,0,0,1,17.213,4.614,1.554,1.554,0,0,1,.142.249l20.227,35.034.047.075a7.477,7.477,0,0,1-.237,8.529,7.622,7.622,0,0,1-2.26,2.015l-.075.047a7.729,7.729,0,0,1-2.959,1,7.446,7.446,0,0,1-7.439-3.974l-.055-.087-15.23-26.382ZM198.9,96.9,181.377,66.558a1.415,1.415,0,0,0-2.453,1.41l17.517,30.345A1.417,1.417,0,0,0,198.9,96.9Z" transform="translate(392.323 37.919)" fill="#333" fill-rule="evenodd"/>
    <path id="Pfad_170" data-name="Pfad 170" d="M93.942,64.7h27.907v55.819H93.942v-7.376h15.589a4.959,4.959,0,0,0,4.946-4.946V77.021a4.961,4.961,0,0,0-4.946-4.946H93.942Z" transform="translate(234.629 34.543)" fill="#f8951d" fill-rule="evenodd"/>
    <path id="Pfad_171" data-name="Pfad 171" d="M89.362,120.158h52.97V67.187H89.362v52.97ZM143.755,123H87.94a1.421,1.421,0,0,1-1.422-1.418V65.765a1.421,1.421,0,0,1,1.422-1.422h55.815a1.421,1.421,0,0,1,1.422,1.422v55.819A1.42,1.42,0,0,1,143.755,123Z" transform="translate(212.723 33.481)" fill="#333" fill-rule="evenodd"/>
    <path id="Pfad_172" data-name="Pfad 172" d="M91.6,73.88a1.422,1.422,0,0,1-2.844,0V63.015a1.422,1.422,0,0,1,2.844,0Z" transform="translate(219.318 25.367)" fill="#333" fill-rule="evenodd"/>
    <path id="Pfad_173" data-name="Pfad 173" d="M91.686,61.081a3.445,3.445,0,1,1-3.445,3.445A3.445,3.445,0,0,1,91.686,61.081Z" transform="translate(217.807 23.856)" fill="#fff" fill-rule="evenodd"/>
    <path id="Pfad_174" data-name="Pfad 174" d="M92.748,60.721a4.845,4.845,0,0,1,3.441,1.426l.083.091a4.861,4.861,0,0,1-6.961,6.787l0,0a4.867,4.867,0,0,1,3.441-8.308Zm1.43,3.437a2.023,2.023,0,1,0-2.86,2.86v.008a2.026,2.026,0,0,0,2.916-2.813Z" transform="translate(216.745 22.794)" fill="#333" fill-rule="evenodd"/>
    <path id="Pfad_175" data-name="Pfad 175" d="M94.816,73.88a1.422,1.422,0,1,1-2.844,0V63.015a1.422,1.422,0,1,1,2.844,0Z" transform="translate(228.816 25.367)" fill="#333" fill-rule="evenodd"/>
    <path id="Pfad_176" data-name="Pfad 176" d="M94.9,61.081a3.445,3.445,0,1,1-3.441,3.445A3.445,3.445,0,0,1,94.9,61.081Z" transform="translate(227.308 23.856)" fill="#fff" fill-rule="evenodd"/>
    <path id="Pfad_177" data-name="Pfad 177" d="M95.964,60.721a4.867,4.867,0,1,1-3.437,8.3v0a4.864,4.864,0,0,1,0-6.882l.091-.087a4.857,4.857,0,0,1,3.346-1.339Zm1.43,3.437a2.025,2.025,0,0,0-2.8-.059l-.055.059a2.022,2.022,0,0,0,0,2.86l0,0,0,0a2.024,2.024,0,0,0,2.856-2.868Z" transform="translate(226.246 22.794)" fill="#333" fill-rule="evenodd"/>
    <path id="Pfad_178" data-name="Pfad 178" d="M98.036,73.88a1.422,1.422,0,1,1-2.844,0V63.015a1.422,1.422,0,1,1,2.844,0Z" transform="translate(238.317 25.367)" fill="#333" fill-rule="evenodd"/>
    <path id="Pfad_179" data-name="Pfad 179" d="M98.125,61.081a3.445,3.445,0,1,1-3.445,3.445A3.448,3.448,0,0,1,98.125,61.081Z" transform="translate(236.806 23.856)" fill="#fff" fill-rule="evenodd"/>
    <path id="Pfad_180" data-name="Pfad 180" d="M99.187,60.721a4.869,4.869,0,1,1-3.441,1.426,4.859,4.859,0,0,1,3.441-1.426Zm1.43,3.437a2.023,2.023,0,0,0-3.453,1.43,2.023,2.023,0,0,0,4.045,0A2.032,2.032,0,0,0,100.617,64.158Z" transform="translate(235.744 22.794)" fill="#333" fill-rule="evenodd"/>
    <path id="Pfad_181" data-name="Pfad 181" d="M101.255,73.88a1.422,1.422,0,1,1-2.844,0V63.015a1.422,1.422,0,1,1,2.844,0Z" transform="translate(247.815 25.367)" fill="#333" fill-rule="evenodd"/>
    <path id="Pfad_182" data-name="Pfad 182" d="M101.344,61.081A3.445,3.445,0,1,1,97.9,64.526,3.448,3.448,0,0,1,101.344,61.081Z" transform="translate(246.304 23.856)" fill="#fff" fill-rule="evenodd"/>
    <path id="Pfad_183" data-name="Pfad 183" d="M102.406,60.721a4.852,4.852,0,0,1,3.441,1.426l.083.091a4.863,4.863,0,0,1-6.965,6.787v0a4.867,4.867,0,0,1,3.441-8.308Zm1.43,3.437a2.023,2.023,0,1,0-2.86,2.86l0,0,0,0a2.026,2.026,0,0,0,2.916-2.813Z" transform="translate(245.242 22.794)" fill="#333" fill-rule="evenodd"/>
    <path id="Pfad_184" data-name="Pfad 184" d="M88.753,79.9a1.422,1.422,0,1,1,2.844,0v10.86a1.422,1.422,0,0,1-2.844,0Z" transform="translate(219.318 75.167)" fill="#333" fill-rule="evenodd"/>
    <path id="Pfad_185" data-name="Pfad 185" d="M91.686,87.6a3.445,3.445,0,1,0-3.445-3.445A3.443,3.443,0,0,0,91.686,87.6Z" transform="translate(217.807 81.771)" fill="#fff" fill-rule="evenodd"/>
    <path id="Pfad_186" data-name="Pfad 186" d="M92.748,87.239a2.028,2.028,0,0,0,1.434-3.457l0,0a2.023,2.023,0,1,0-2.86,2.86l.059.063a2.014,2.014,0,0,0,1.371.529Zm3.441,1.418a4.857,4.857,0,0,1-6.787.087l-.095-.087a4.866,4.866,0,1,1,6.882-6.882v0h0a4.859,4.859,0,0,1,0,6.878Z" transform="translate(216.745 80.709)" fill="#333" fill-rule="evenodd"/>
    <path id="Pfad_187" data-name="Pfad 187" d="M91.972,79.9a1.422,1.422,0,1,1,2.844,0v10.86a1.422,1.422,0,0,1-2.844,0Z" transform="translate(228.816 75.167)" fill="#333" fill-rule="evenodd"/>
    <path id="Pfad_188" data-name="Pfad 188" d="M94.9,87.6a3.445,3.445,0,1,0-3.441-3.445A3.443,3.443,0,0,0,94.9,87.6Z" transform="translate(227.308 81.771)" fill="#fff" fill-rule="evenodd"/>
    <path id="Pfad_189" data-name="Pfad 189" d="M95.964,87.239a2.023,2.023,0,0,0,0-4.045,2,2,0,0,0-1.426.589h0l0,0a2.022,2.022,0,0,0,0,2.86l.055.063a2.021,2.021,0,0,0,1.371.529Zm3.441,1.418a4.857,4.857,0,0,1-6.787.087l-.091-.087a4.864,4.864,0,0,1,0-6.882v0a4.864,4.864,0,1,1,6.878,6.878Z" transform="translate(226.246 80.709)" fill="#333" fill-rule="evenodd"/>
    <path id="Pfad_190" data-name="Pfad 190" d="M95.192,79.9a1.422,1.422,0,1,1,2.844,0v10.86a1.422,1.422,0,0,1-2.844,0Z" transform="translate(238.317 75.167)" fill="#333" fill-rule="evenodd"/>
    <path id="Pfad_191" data-name="Pfad 191" d="M98.125,87.6a3.445,3.445,0,1,0-3.445-3.445A3.445,3.445,0,0,0,98.125,87.6Z" transform="translate(236.806 81.771)" fill="#fff" fill-rule="evenodd"/>
    <path id="Pfad_192" data-name="Pfad 192" d="M99.187,87.239a2.023,2.023,0,1,0-1.43-3.453,2.023,2.023,0,0,0,1.43,3.453Zm3.441,1.418a4.864,4.864,0,1,1,1.426-3.441A4.859,4.859,0,0,1,102.628,88.657Z" transform="translate(235.744 80.709)" fill="#333" fill-rule="evenodd"/>
    <path id="Pfad_193" data-name="Pfad 193" d="M98.411,79.9a1.422,1.422,0,1,1,2.844,0v10.86a1.422,1.422,0,1,1-2.844,0Z" transform="translate(247.815 75.167)" fill="#333" fill-rule="evenodd"/>
    <path id="Pfad_194" data-name="Pfad 194" d="M101.344,87.6A3.445,3.445,0,1,0,97.9,84.154,3.445,3.445,0,0,0,101.344,87.6Z" transform="translate(246.304 81.771)" fill="#fff" fill-rule="evenodd"/>
    <path id="Pfad_195" data-name="Pfad 195" d="M102.406,87.239a2.025,2.025,0,0,0,1.43-3.457v0a2.023,2.023,0,1,0-2.86,2.86l.059.063a2.014,2.014,0,0,0,1.371.529Zm3.441,1.418a4.857,4.857,0,0,1-6.787.087l-.095-.087a4.866,4.866,0,1,1,6.882-6.882l0,0h0a4.859,4.859,0,0,1,0,6.878Z" transform="translate(245.242 80.709)" fill="#333" fill-rule="evenodd"/>
    <path id="Pfad_196" data-name="Pfad 196" d="M102.068,69.422a1.422,1.422,0,0,1,0-2.844h10.864a1.422,1.422,0,1,1,0,2.844Z" transform="translate(254.41 40.076)" fill="#333" fill-rule="evenodd"/>
    <path id="Pfad_197" data-name="Pfad 197" d="M109.774,69.515a3.445,3.445,0,1,1-3.445-3.449A3.442,3.442,0,0,1,109.774,69.515Z" transform="translate(261.013 38.565)" fill="#fff" fill-rule="evenodd"/>
    <path id="Pfad_198" data-name="Pfad 198" d="M112.258,70.574a4.863,4.863,0,1,1-1.426-3.445,4.859,4.859,0,0,1,1.426,3.445ZM108.821,72a2.022,2.022,0,1,0-1.43.593A2.023,2.023,0,0,0,108.821,72Z" transform="translate(259.951 37.506)" fill="#333" fill-rule="evenodd"/>
    <path id="Pfad_199" data-name="Pfad 199" d="M102.068,72.641a1.422,1.422,0,0,1,0-2.844h10.864a1.422,1.422,0,1,1,0,2.844Z" transform="translate(254.41 49.574)" fill="#333" fill-rule="evenodd"/>
    <path id="Pfad_200" data-name="Pfad 200" d="M109.774,72.731a3.445,3.445,0,1,1-3.445-3.445A3.442,3.442,0,0,1,109.774,72.731Z" transform="translate(261.013 48.066)" fill="#fff" fill-rule="evenodd"/>
    <path id="Pfad_201" data-name="Pfad 201" d="M112.258,73.793a4.867,4.867,0,1,1-8.308-3.441h0a4.864,4.864,0,0,1,6.882,0l.087.091a4.859,4.859,0,0,1,1.339,3.35Zm-3.437,1.43a2.039,2.039,0,0,0,.593-1.43,2.016,2.016,0,0,0-.533-1.375l-.059-.055a2.022,2.022,0,0,0-2.86,0l0,0v0a2.008,2.008,0,0,0-.589,1.43,2.025,2.025,0,0,0,3.453,1.43Z" transform="translate(259.951 47.004)" fill="#333" fill-rule="evenodd"/>
    <path id="Pfad_202" data-name="Pfad 202" d="M102.068,75.861a1.422,1.422,0,0,1,0-2.844h10.864a1.422,1.422,0,0,1,0,2.844Z" transform="translate(254.41 59.075)" fill="#333" fill-rule="evenodd"/>
    <path id="Pfad_203" data-name="Pfad 203" d="M109.774,75.95a3.445,3.445,0,1,1-3.445-3.445A3.445,3.445,0,0,1,109.774,75.95Z" transform="translate(261.013 57.564)" fill="#fff" fill-rule="evenodd"/>
    <path id="Pfad_204" data-name="Pfad 204" d="M112.258,77.012a4.867,4.867,0,1,1-8.308-3.437v0a4.864,4.864,0,0,1,6.882,0l.087.095a4.842,4.842,0,0,1,1.339,3.346Zm-3.437,1.43a2.032,2.032,0,0,0,.593-1.43,2,2,0,0,0-.533-1.371l-.059-.059a2.022,2.022,0,0,0-2.86,0l0,0v0a2.008,2.008,0,0,0-.589,1.43,2.023,2.023,0,0,0,3.453,1.43Z" transform="translate(259.951 56.502)" fill="#333" fill-rule="evenodd"/>
    <path id="Pfad_205" data-name="Pfad 205" d="M102.068,79.08a1.422,1.422,0,0,1,0-2.844h10.864a1.422,1.422,0,1,1,0,2.844Z" transform="translate(254.41 68.573)" fill="#333" fill-rule="evenodd"/>
    <path id="Pfad_206" data-name="Pfad 206" d="M109.774,79.169a3.445,3.445,0,1,1-3.445-3.445A3.445,3.445,0,0,1,109.774,79.169Z" transform="translate(261.013 67.062)" fill="#fff" fill-rule="evenodd"/>
    <path id="Pfad_207" data-name="Pfad 207" d="M112.258,80.231a4.864,4.864,0,0,1-8.3,3.441l0,0v0a4.866,4.866,0,1,1,6.882-6.882l.087.095a4.842,4.842,0,0,1,1.339,3.346Zm-3.437,1.43a2.025,2.025,0,0,0,.593-1.43,2,2,0,0,0-.533-1.371l-.059-.059a2.023,2.023,0,1,0-2.86,2.86l0,0a2.041,2.041,0,0,0,1.434.589A2.016,2.016,0,0,0,108.821,81.661Z" transform="translate(259.951 66)" fill="#333" fill-rule="evenodd"/>
    <path id="Pfad_208" data-name="Pfad 208" d="M96.054,66.578a1.422,1.422,0,1,1,0,2.844H85.19a1.422,1.422,0,1,1,0-2.844Z" transform="translate(204.609 40.076)" fill="#333" fill-rule="evenodd"/>
    <path id="Pfad_209" data-name="Pfad 209" d="M83.256,69.515A3.445,3.445,0,1,0,86.7,66.066,3.442,3.442,0,0,0,83.256,69.515Z" transform="translate(203.098 38.565)" fill="#fff" fill-rule="evenodd"/>
    <path id="Pfad_210" data-name="Pfad 210" d="M85.74,70.574A2.023,2.023,0,0,0,86.333,72l.059.063a2.026,2.026,0,0,0,3.394-1.489A2.041,2.041,0,0,0,89.2,69.14l0,0a2.023,2.023,0,0,0-3.453,1.43Zm-1.418,3.441A4.868,4.868,0,0,1,91.2,67.129l0,0,0,0A4.861,4.861,0,0,1,84.417,74.1Z" transform="translate(202.036 37.506)" fill="#333" fill-rule="evenodd"/>
    <path id="Pfad_211" data-name="Pfad 211" d="M96.054,69.8a1.422,1.422,0,1,1,0,2.844H85.19a1.422,1.422,0,1,1,0-2.844Z" transform="translate(204.609 49.574)" fill="#333" fill-rule="evenodd"/>
    <path id="Pfad_212" data-name="Pfad 212" d="M83.256,72.731A3.445,3.445,0,1,0,86.7,69.286,3.442,3.442,0,0,0,83.256,72.731Z" transform="translate(203.098 48.066)" fill="#fff" fill-rule="evenodd"/>
    <path id="Pfad_213" data-name="Pfad 213" d="M85.74,73.793a2.039,2.039,0,0,0,.593,1.43l.059.059a2.036,2.036,0,0,0,2.8-.059,2.039,2.039,0,0,0,.593-1.43,2.008,2.008,0,0,0-.589-1.43v0l0,0a2.022,2.022,0,0,0-2.86,0l-.059.055a2.016,2.016,0,0,0-.533,1.375Zm-1.418,3.441a4.862,4.862,0,0,1-.087-6.791l.087-.091a4.864,4.864,0,0,1,6.882,0h0a4.861,4.861,0,0,1-6.783,6.965Z" transform="translate(202.036 47.004)" fill="#333" fill-rule="evenodd"/>
    <path id="Pfad_214" data-name="Pfad 214" d="M96.054,73.017a1.422,1.422,0,0,1,0,2.844H85.19a1.422,1.422,0,0,1,0-2.844Z" transform="translate(204.609 59.075)" fill="#333" fill-rule="evenodd"/>
    <path id="Pfad_215" data-name="Pfad 215" d="M83.256,75.95A3.445,3.445,0,1,0,86.7,72.505,3.445,3.445,0,0,0,83.256,75.95Z" transform="translate(203.098 57.564)" fill="#fff" fill-rule="evenodd"/>
    <path id="Pfad_216" data-name="Pfad 216" d="M85.74,77.012a2.032,2.032,0,0,0,.593,1.43l.059.059a2,2,0,0,0,1.371.533A2.025,2.025,0,0,0,89.2,75.582v0l0,0a2.022,2.022,0,0,0-2.86,0l-.059.059a2,2,0,0,0-.533,1.371Zm-1.418,3.441a4.857,4.857,0,0,1-.087-6.787l.087-.095a4.864,4.864,0,0,1,6.882,0l0,0a4.86,4.86,0,0,1-6.783,6.961Z" transform="translate(202.036 56.502)" fill="#333" fill-rule="evenodd"/>
    <path id="Pfad_217" data-name="Pfad 217" d="M96.054,76.236a1.422,1.422,0,1,1,0,2.844H85.19a1.422,1.422,0,1,1,0-2.844Z" transform="translate(204.609 68.573)" fill="#333" fill-rule="evenodd"/>
    <path id="Pfad_218" data-name="Pfad 218" d="M83.256,79.169A3.445,3.445,0,1,0,86.7,75.724,3.445,3.445,0,0,0,83.256,79.169Z" transform="translate(203.098 67.062)" fill="#fff" fill-rule="evenodd"/>
    <path id="Pfad_219" data-name="Pfad 219" d="M85.74,80.231a2.025,2.025,0,0,0,3.453,1.434l0,0,.012-.012A2.025,2.025,0,0,0,86.333,78.8l0,0-.02.016a2.018,2.018,0,0,0-.569,1.414Zm-1.418,3.441a4.86,4.86,0,0,1-.028-6.85l.028-.028,0,0a4.864,4.864,0,0,1,6.9,6.858l-.02.02,0,0a4.859,4.859,0,0,1-6.878,0Z" transform="translate(202.036 66)" fill="#333" fill-rule="evenodd"/>
    <rect id="Rechteck_58" data-name="Rechteck 58" width="41.07" height="41.07" rx="1.252" transform="translate(308.036 106.62)" fill="#fff"/>
    <path id="Pfad_220" data-name="Pfad 220" d="M94.752,107.28h31.178a3.525,3.525,0,0,0,2.489-1.031l0,0,.024-.024a3.53,3.53,0,0,0,1.007-2.465V72.577a3.512,3.512,0,0,0-1.035-2.485l-.063-.067a3.512,3.512,0,0,0-2.426-.972H94.752a3.548,3.548,0,0,0-3.524,3.524v31.178a3.5,3.5,0,0,0,1.035,2.489h0a3.513,3.513,0,0,0,2.485,1.035Zm31.178,2.844H94.752a6.349,6.349,0,0,1-4.5-1.869l0,0h0a6.363,6.363,0,0,1-1.869-4.5V72.577a6.38,6.38,0,0,1,6.368-6.368h31.178A6.337,6.337,0,0,1,130.34,68l.091.079a6.365,6.365,0,0,1,1.869,4.5v31.178a6.355,6.355,0,0,1-1.845,4.468l-.024.028-.008,0A6.33,6.33,0,0,1,125.931,110.124Z" transform="translate(218.229 38.987)" fill="#333" fill-rule="evenodd"/>
    <path id="Pfad_221" data-name="Pfad 221" d="M212.751,53.295a1.4,1.4,0,1,1,0,2.8h-35.22a1.4,1.4,0,1,1,0-2.8Zm-51.888,0a1.4,1.4,0,1,1,0,2.8H153.9a1.4,1.4,0,0,1,0-2.8Zm-12.642,0a1.4,1.4,0,0,1,0,2.8H138.3a1.4,1.4,0,1,1,0-2.8Z" transform="translate(361.367 0.882)" fill="#e8f1f2" fill-rule="evenodd"/>
    <path id="Pfad_222" data-name="Pfad 222" d="M147.025,58.29a2.647,2.647,0,1,0-2.647-2.647A2.652,2.652,0,0,0,147.025,58.29Z" transform="translate(383.447 0)" fill="none" stroke="#b8c6d7" stroke-linecap="round" stroke-miterlimit="22.926" stroke-width="0.709" fill-rule="evenodd"/>
    <path id="Pfad_223" data-name="Pfad 223" d="M168.529,137.052l-18.307-12.417v24.834l18.307-12.417Z" transform="translate(400.69 211.381)" fill="#f8951d" fill-rule="evenodd"/>
    <circle id="Ellipse_2" data-name="Ellipse 2" cx="23.108" cy="23.108" r="23.108" transform="translate(137.444 312.731)" fill="#f8951d"/>
    <path id="Pfad_224" data-name="Pfad 224" d="M55.373,122.137a7.531,7.531,0,0,0-1.612,5.112,14.726,14.726,0,0,0,2.1,7.494c1.071,1.707,2.434,2.872,3.848,2.872s2.773-1.165,3.844-2.872a14.727,14.727,0,0,0,2.1-7.494,7.531,7.531,0,0,0-1.612-5.112,6.109,6.109,0,0,0-8.664,0Zm9.5,22.487-4.35,3.078a1.413,1.413,0,0,1-1.632,0l-4.35-3.078H53.517A4.879,4.879,0,0,0,50.111,146l-.063.067a4.885,4.885,0,0,0-1.446,3.469v6.234a21.695,21.695,0,0,0,22.21,0v-6.234a4.937,4.937,0,0,0-4.919-4.915Z" transform="translate(100.847 198.696)" fill="#f4f6f8" fill-rule="evenodd"/>
    <path id="Pfad_225" data-name="Pfad 225" d="M69.736,164.6A21.689,21.689,0,1,0,54.4,158.247,21.624,21.624,0,0,0,69.736,164.6Zm17.343-4.342a24.526,24.526,0,1,1,7.186-17.347A24.46,24.46,0,0,1,87.08,160.258Z" transform="translate(90.818 192.927)" fill="#333" fill-rule="evenodd"/>
    <path id="Pfad_226" data-name="Pfad 226" d="M57.978,119.616a8.4,8.4,0,0,1,6.451,2.769,10.258,10.258,0,0,1,2.335,6.989,17.626,17.626,0,0,1-2.532,8.992c-1.568,2.509-3.761,4.223-6.254,4.223s-4.689-1.715-6.258-4.223a17.626,17.626,0,0,1-2.532-8.992,10.257,10.257,0,0,1,2.335-6.989,8.4,8.4,0,0,1,6.455-2.769Zm4.33,4.646a6.109,6.109,0,0,0-8.664,0,7.531,7.531,0,0,0-1.612,5.112,14.726,14.726,0,0,0,2.1,7.494c1.071,1.707,2.434,2.872,3.848,2.872s2.773-1.165,3.844-2.872a14.727,14.727,0,0,0,2.1-7.494A7.531,7.531,0,0,0,62.308,124.262Z" transform="translate(102.576 196.571)" fill="#333" fill-rule="evenodd"/>
    <g id="Gruppe_140" data-name="Gruppe 140" transform="translate(146.604 340.476)">
      <path id="Pfad_227" data-name="Pfad 227" d="M50.726,139.864a1.422,1.422,0,1,1-2.844,0v-6.341a7.745,7.745,0,0,1,2.28-5.483l.075-.067a7.726,7.726,0,0,1,5.4-2.208H57.1a1.407,1.407,0,0,1,.932.348l3.8,2.686,3.907-2.769a1.421,1.421,0,0,1,.818-.257v-.008h1.462a7.776,7.776,0,0,1,7.763,7.759v6.341a1.422,1.422,0,1,1-2.844,0v-6.341a4.937,4.937,0,0,0-4.919-4.915H67l-4.35,3.078a1.413,1.413,0,0,1-1.632,0l-4.35-3.078H55.641a4.879,4.879,0,0,0-3.405,1.379l-.063.067a4.885,4.885,0,0,0-1.446,3.469v6.341Zm-.49-11.891,1.936.067A1.426,1.426,0,0,0,50.237,127.972Z" transform="translate(-47.882 -125.764)" fill="#333" fill-rule="evenodd"/>
    </g>
    <path id="Pfad_228" data-name="Pfad 228" d="M52.615,134.868h44.8a9.226,9.226,0,0,1,9.2,9.2h0a9.219,9.219,0,0,1-9.2,9.2h-44.8a9.219,9.219,0,0,1-9.2-9.2h0a9.226,9.226,0,0,1,9.2-9.2Zm44.8,2.844h-44.8a6.38,6.38,0,0,0-6.357,6.357h0a6.38,6.38,0,0,0,6.357,6.357h44.8a6.38,6.38,0,0,0,6.353-6.357h0a6.38,6.38,0,0,0-6.353-6.357Z" transform="translate(85.539 241.574)" fill="#333" fill-rule="evenodd"/>
    <path id="Pfad_229" data-name="Pfad 229" d="M63.289,143.922a3.85,3.85,0,0,0,0-7.7H48.62a3.85,3.85,0,1,0,0,7.7Z" transform="translate(89.534 245.57)" fill="#f8951d" fill-rule="evenodd"/>
    <path id="Pfad_230" data-name="Pfad 230" d="M64.351,143.562a2.428,2.428,0,0,0,0-4.855H49.682a2.428,2.428,0,1,0,0,4.855Zm3.725,1.3a5.242,5.242,0,0,1-3.725,1.545H49.682a5.272,5.272,0,1,1,0-10.544H64.351a5.271,5.271,0,0,1,3.725,9Z" transform="translate(88.472 244.507)" fill="#333" fill-rule="evenodd"/>
    <path id="Pfad_231" data-name="Pfad 231" d="M41.153,117.262a1.422,1.422,0,1,1,0-2.844h89.454a1.422,1.422,0,1,1,0,2.844Z" transform="translate(74.672 181.234)" fill="#333" fill-rule="evenodd"/>
  </g>
</svg>
