<svg id="wifi" xmlns="http://www.w3.org/2000/svg" width="77" height="57.684" viewBox="0 0 77 57.684">
  <g id="Calque_1" data-name="Calque 1">
    <circle id="Ellipse_1" data-name="Ellipse 1" cx="8.803" cy="8.803" r="8.803" transform="translate(28.918 40.078)" fill="#ededed"/>
    <path id="Pfad_13" data-name="Pfad 13" d="M5.166,22.622c.056-.084.112-.149.177-.233A41.964,41.964,0,0,1,71.806,23.61L77,19.442A48.576,48.576,0,0,0,.159,18.229c-.056.065-.093.131-.159.205Z" transform="translate(0 0.027)" fill="#ededed"/>
    <path id="Pfad_14" data-name="Pfad 14" d="M21.46,38.249l3.889,3.143A18.241,18.241,0,0,1,54.6,42.6l3.9-3.124a22.745,22.745,0,0,0-4.43-4.719A23.314,23.314,0,0,0,21.46,38.249Z" transform="translate(-1.448 -1.976)" fill="#ededed"/>
    <path id="Pfad_15" data-name="Pfad 15" d="M10.089,28.9l-.159.205,5.176,4.178c.065-.075.1-.149.177-.224a29.841,29.841,0,0,1,47.345.933l5.185-4.122a36.5,36.5,0,0,0-57.734-.933Z" transform="translate(-0.67 -1.003)" fill="#ededed"/>
  </g>
</svg>
